<?xml version="1.0" standalone="no"?>
<!DOCTYPE svg PUBLIC "-//W3C//DTD SVG 1.1//EN" "http://www.w3.org/Graphics/SVG/1.1/DTD/svg11.dtd" >
<svg xmlns="http://www.w3.org/2000/svg" xmlns:xlink="http://www.w3.org/1999/xlink" version="1.1">
<metadata>
Created by FontForge 20170731 at Fri May  5 14:18:49 2017
 By Aleksey,,,
Copyright (c) 2014 Dan Reynolds. Copyright (c) 2014 Mathieu Re'guer.
</metadata>
<defs>
<font id="MartelSans-ExtraBold" horiz-adv-x="635" >
  <font-face 
    font-family="Martel Sans ExtraBold"
    font-weight="800"
    font-stretch="normal"
    units-per-em="1000"
    panose-1="0 0 9 0 0 0 0 0 0 0"
    ascent="800"
    descent="-200"
    x-height="560"
    cap-height="680"
    bbox="-1064 -635 1516 1130"
    underline-thickness="50"
    underline-position="-150"
    unicode-range="U+000D-FB02"
  />
<missing-glyph horiz-adv-x="513" 
d="M513 -200v958h-516v-958h516zM126 407q94 16 132.5 34t38.5 55q0 71 -227 71v114q204 0 294.5 -52t90.5 -134q0 -68 -53 -114.5t-151 -77.5l-6 -80h-110zM124.5 20.5q-27.5 27.5 -27.5 66.5t27.5 66.5t66.5 27.5t66.5 -27.5t27.5 -66.5t-27.5 -66.5t-66.5 -27.5
t-66.5 27.5z" />
    <glyph glyph-name="fi" unicode="fi" horiz-adv-x="756" 
d="M26 0zM264 560h160v-110h-160v-450h-153v450h-85v65l85 32v40q0 106 53.5 162.5t163.5 56.5q39 0 98 -8l-11 -108q-37 5 -62 5q-89 0 -89 -110v-25zM531 684q-26 26 -26 63t26 63t63 26t63.5 -26t26.5 -63t-26.5 -63t-63.5 -26t-63 26zM518 560h153v-560h-153v560z" />
    <glyph glyph-name="fl" unicode="fl" horiz-adv-x="753" 
d="M26 0zM264 560h160v-110h-160v-450h-153v450h-85v65l85 32v40q0 106 53.5 162.5t163.5 56.5q39 0 98 -8l-11 -108q-37 5 -62 5q-89 0 -89 -110v-25zM517 800h153v-800h-153v800z" />
    <glyph glyph-name="f_f" unicode="ff" horiz-adv-x="867" 
d="M26 0zM264 560h160v-110h-160v-450h-153v450h-85v65l85 32v40q0 106 53.5 162.5t163.5 56.5q39 0 98 -8l-11 -108q-37 5 -62 5q-89 0 -89 -110v-25zM697 560h160v-110h-160v-450h-153v450h-85v65l85 32v40q0 106 53.5 162.5t163.5 56.5q39 0 98 -8l-11 -108q-37 5 -62 5
q-89 0 -89 -110v-25z" />
    <glyph glyph-name="f_f_i" unicode="ffi" horiz-adv-x="1190" 
d="M26 0zM264 560h160v-110h-160v-450h-153v450h-85v65l85 32v40q0 106 53.5 162.5t163.5 56.5q39 0 98 -8l-11 -108q-37 5 -62 5q-89 0 -89 -110v-25zM697 560h160v-110h-160v-450h-153v450h-85v65l85 32v40q0 106 53.5 162.5t163.5 56.5q39 0 98 -8l-11 -108q-37 5 -62 5
q-89 0 -89 -110v-25zM965 684q-26 26 -26 63t26 63t63 26t63.5 -26t26.5 -63t-26.5 -63t-63.5 -26t-63 26zM952 560h153v-560h-153v560z" />
    <glyph glyph-name="f_f_l" unicode="ffl" horiz-adv-x="1187" 
d="M26 0zM264 560h160v-110h-160v-450h-153v450h-85v65l85 32v40q0 106 53.5 162.5t163.5 56.5q39 0 98 -8l-11 -108q-37 5 -62 5q-89 0 -89 -110v-25zM697 560h160v-110h-160v-450h-153v450h-85v65l85 32v40q0 106 53.5 162.5t163.5 56.5q39 0 98 -8l-11 -108q-37 5 -62 5
q-89 0 -89 -110v-25zM951 800h153v-800h-153v800z" />
    <glyph glyph-name=".notdef" horiz-adv-x="513" 
d="M513 -200v958h-516v-958h516zM126 407q94 16 132.5 34t38.5 55q0 71 -227 71v114q204 0 294.5 -52t90.5 -134q0 -68 -53 -114.5t-151 -77.5l-6 -80h-110zM124.5 20.5q-27.5 27.5 -27.5 66.5t27.5 66.5t66.5 27.5t66.5 -27.5t27.5 -66.5t-27.5 -66.5t-66.5 -27.5
t-66.5 27.5z" />
    <glyph glyph-name=".null" horiz-adv-x="0" 
 />
    <glyph glyph-name="nonmarkingreturn" unicode="&#xd;" horiz-adv-x="494" 
 />
    <glyph glyph-name="space" unicode=" " horiz-adv-x="250" 
 />
    <glyph glyph-name="exclam" unicode="!" horiz-adv-x="332" 
d="M80 680h163l-10 -457h-133zM99.5 20.5q-27.5 27.5 -27.5 66.5t27.5 66.5t66.5 27.5t66.5 -27.5t27.5 -66.5t-27.5 -66.5t-66.5 -27.5t-66.5 27.5z" />
    <glyph glyph-name="quotedbl" unicode="&#x22;" horiz-adv-x="599" 
d="M92 404zM92 765h163l-23 -361h-116zM344 765h163l-23 -361h-116z" />
    <glyph glyph-name="numbersign" unicode="#" horiz-adv-x="785" 
d="M626 407l-41 -134h102l-35 -112h-102l-49 -161h-143l49 161h-141l-49 -161h-143l49 161h-101l34 112h102l41 134h-101l35 112h101l49 161h143l-49 -161h141l49 161h143l-49 -161h101l-35 -112h-101zM483 407h-141l-41 -134h141z" />
    <glyph glyph-name="dollar" unicode="$" 
d="M531.5 86.5q-44.5 -47.5 -129.5 -66.5v-143h-135v132q-124 6 -208 51l33 109q53 -24 100.5 -35t97.5 -11q56 0 94 19t38 54q0 24 -18 41.5t-45 29.5t-75 28q-64 21 -104.5 40.5t-69.5 54t-29 86.5q0 74 49.5 122.5t136.5 64.5v137h135v-133q82 -9 150 -47l-34 -108
q-84 43 -163 43q-54 0 -87 -18t-33 -51q0 -32 32 -50.5t100 -41.5q66 -23 107.5 -43t71.5 -56t30 -90q0 -71 -44.5 -118.5z" />
    <glyph glyph-name="percent" unicode="%" horiz-adv-x="1080" 
d="M19 0zM795 649l-400 -692l-111 67l400 692zM111 290q-46 29 -69 77.5t-23 105.5q0 58 23 106.5t69 78t112 29.5q67 0 113 -29.5t69 -78t23 -105.5t-23 -105.5t-69 -78t-113 -29.5q-66 0 -112 29zM273 385.5q15 28.5 15 88.5t-15 89t-51 29q-35 0 -50 -29t-15 -89
t15 -88.5t50 -28.5q36 0 51 28.5zM745 18q-46 29 -69 77.5t-23 105.5q0 58 23 106.5t69 78t112 29.5q67 0 113 -29.5t69 -78t23 -105.5t-23 -105.5t-69 -78t-113 -29.5q-66 0 -112 29zM907 113.5q15 28.5 15 88.5t-15 89t-51 29q-35 0 -50 -29t-15 -89t15 -88.5t50 -28.5
q36 0 51 28.5z" />
    <glyph glyph-name="ampersand" unicode="&#x26;" horiz-adv-x="735" 
d="M634 -8q-47 0 -86.5 14.5t-82.5 49.5q-95 -69 -200 -69q-79 0 -135.5 24.5t-85.5 68t-29 98.5q0 137 147 207q-33 37 -47 65.5t-14 63.5q0 49 22.5 89.5t69 64.5t113.5 24q64 0 109.5 -21.5t68.5 -57.5t23 -78q0 -59 -34 -103t-107 -81l105 -116q45 78 75 192l146 -15
q-17 -72 -51 -141.5t-82 -126.5q46 -37 93 -37q24 0 47 5l26 -107q-37 -13 -91 -13zM264.5 562.5q-13.5 -16.5 -13.5 -40.5t9 -43t30 -44q36 23 51.5 44t15.5 48q0 21 -14 36.5t-39 15.5q-26 0 -39.5 -16.5zM201.5 127q28.5 -27 79.5 -27q55 0 104 36l-145 161
q-67 -48 -67 -105q0 -38 28.5 -65z" />
    <glyph glyph-name="quotesingle" unicode="'" horiz-adv-x="347" 
d="M92 765h163l-23 -361h-116z" />
    <glyph glyph-name="parenleft" unicode="(" horiz-adv-x="348" 
d="M103 54.5q-48 108.5 -48 239.5t48 239.5t123 180.5l89 -74q-45 -57 -75.5 -151.5t-30.5 -194.5q0 -103 30.5 -195.5t74.5 -151.5l-88 -73q-75 72 -123 180.5z" />
    <glyph glyph-name="parenright" unicode=")" horiz-adv-x="348" 
d="M32 -52q45 57 75.5 151.5t30.5 194.5q0 103 -30.5 195.5t-74.5 151.5l88 73q75 -72 123 -180.5t48 -239.5t-48 -239.5t-123 -180.5z" />
    <glyph glyph-name="asterisk" unicode="*" horiz-adv-x="537" 
d="M324 436l133 -120l-117 -81l-72 155l-72 -155l-116 81l135 121l-179 23l42 128l152 -80l-30 172h136l-28 -169l151 77l42 -128z" />
    <glyph glyph-name="plus" unicode="+" 
d="M603 244h-227v-235h-117v235h-227v109h227v226h117v-226h227v-109z" />
    <glyph glyph-name="comma" unicode="," horiz-adv-x="333" 
d="M43 -117q58 44 58 138q0 65 -26 132l161 23q16 -60 16 -111q0 -86 -42.5 -146t-118.5 -100z" />
    <glyph glyph-name="hyphen" unicode="-" horiz-adv-x="291" 
d="M20 342h251v-109h-251v109z" />
    <glyph glyph-name="period" unicode="." horiz-adv-x="333" 
d="M99.5 20.5q-27.5 27.5 -27.5 66.5t27.5 66.5t66.5 27.5t66.5 -27.5t27.5 -66.5t-27.5 -66.5t-66.5 -27.5t-66.5 27.5z" />
    <glyph glyph-name="slash" unicode="/" horiz-adv-x="428" 
d="M280 708h155l-288 -944h-154z" />
    <glyph glyph-name="zero" unicode="0" 
d="M163 34.5q-62 47.5 -92 129t-30 182.5q0 98 30 176.5t92 124t154 45.5t154 -45.5t92 -124t30 -176.5q0 -101 -30 -182.5t-92 -129t-154 -47.5t-154 47.5zM407.5 171q28.5 69 28.5 175q0 101 -28.5 166t-89.5 65t-89.5 -65t-28.5 -166q0 -106 28.5 -175t89.5 -69t89.5 69z
" />
    <glyph glyph-name="one" unicode="1" 
d="M582 111v-111h-475v111h159v448l-126 -16l-26 109l176 28l1 -1v1h133v-569h158z" />
    <glyph glyph-name="two" unicode="2" 
d="M63 84l165 160q78 75 115 134.5t37 100.5q0 46 -31.5 72t-88.5 26q-46 0 -90 -18.5t-91 -54.5l-35 104q105 83 238 83q70 0 127.5 -24.5t91.5 -69t34 -102.5q0 -75 -44.5 -151.5t-138.5 -161.5l-74 -67v-2h299v-113h-514v84z" />
    <glyph glyph-name="three" unicode="3" 
d="M524.5 309q40.5 -43 40.5 -103t-34.5 -110.5t-100 -80t-155.5 -29.5q-67 0 -128 14t-104 42l33 107q96 -48 199 -48q63 0 97.5 26t34.5 70t-29.5 71t-81.5 27q-51 0 -109 -16l-11 111q77 19 113 31.5t58.5 34t22.5 58.5q0 28 -21.5 45t-59.5 17q-45 0 -91.5 -14
t-99.5 -47l-35 103q97 73 234 73q69 0 121.5 -21t81 -59.5t28.5 -88.5q0 -48 -28.5 -86.5t-79.5 -65.5q64 -18 104.5 -61z" />
    <glyph glyph-name="four" unicode="4" 
d="M619 155h-111v-155h-158v155h-325v88l330 437h1h152v-412h111v-113zM350 268v109l4 139l-1 -1l-92 -134l-86 -113h175z" />
    <glyph glyph-name="five" unicode="5" 
d="M454 406q61 -27 93 -75.5t32 -110.5q0 -64 -35.5 -117.5t-103 -85t-160.5 -31.5q-64 0 -122.5 14t-100.5 42l33 107q92 -48 190 -48q69 0 105 29.5t36 80.5t-31.5 79t-97.5 28q-42 0 -83 -9t-90 -26l-23 17l32 380h430v-113h-291l-14 -139q32 5 56 5q84 0 145 -27z" />
    <glyph glyph-name="six" unicode="6" 
d="M472 401.5q55 -31.5 84 -82t29 -106.5q0 -61 -32 -113t-93 -83.5t-143 -31.5q-122 0 -195 71.5t-73 210.5q0 118 52.5 208t150.5 145t231 72l22 -109q-112 -26 -177.5 -64t-94.5 -110q54 24 109 24q75 0 130 -31.5zM398.5 128.5q28.5 30.5 28.5 76.5q0 49 -27 82t-74 33
q-69 0 -119 -50v-20q0 -74 30 -113t80 -39q53 0 81.5 30.5z" />
    <glyph glyph-name="seven" unicode="7" 
d="M429 565v2h-386v113h548v-93l-305 -587h-181z" />
    <glyph glyph-name="eight" unicode="8" 
d="M547 290q36 -40 36 -101q0 -57 -29 -102.5t-88.5 -72.5t-147.5 -27t-148.5 25.5t-89.5 67.5t-29 90q0 109 121 173q-49 27 -75 62.5t-26 86.5q0 56 27.5 101t83 72t136.5 27q79 0 134.5 -25t83 -65.5t27.5 -87.5q0 -50 -29 -87t-86 -67q63 -30 99 -70zM251.5 556
q-22.5 -23 -22.5 -56q0 -31 27.5 -52.5t79.5 -43.5q36 23 52.5 49.5t16.5 52.5q0 31 -21.5 52t-65.5 21t-66.5 -23zM399 123q26 23 26 57q0 39 -32 63.5t-94 47.5q-43 -18 -66.5 -47.5t-23.5 -65.5q0 -32 27 -55t82 -23t81 23z" />
    <glyph glyph-name="nine" unicode="9" 
d="M512 620q73 -72 73 -211q0 -118 -52.5 -208t-150.5 -145t-231 -71l-22 109q112 25 177 63t95 111q-54 -24 -109 -24q-75 0 -130 31.5t-84 81.5t-29 106q0 61 32 113.5t93 84t143 31.5q122 0 195 -72zM427 407v20q0 74 -29.5 113t-80.5 39q-53 0 -81.5 -30.5t-28.5 -76.5
q0 -49 27 -82.5t74 -33.5q68 0 119 51z" />
    <glyph glyph-name="colon" unicode=":" horiz-adv-x="333" 
d="M99.5 401.5q-27.5 27.5 -27.5 65.5q0 39 27.5 66.5t66.5 27.5t66.5 -27.5t27.5 -66.5q0 -38 -27.5 -65.5t-66.5 -27.5t-66.5 27.5zM99.5 20.5q-27.5 27.5 -27.5 66.5t27.5 66.5t66.5 27.5t66.5 -27.5t27.5 -66.5t-27.5 -66.5t-66.5 -27.5t-66.5 27.5z" />
    <glyph glyph-name="semicolon" unicode=";" horiz-adv-x="333" 
d="M99.5 401.5q-27.5 27.5 -27.5 65.5q0 39 27.5 66.5t66.5 27.5t66.5 -27.5t27.5 -66.5q0 -38 -27.5 -65.5t-66.5 -27.5t-66.5 27.5zM43 -117q58 44 58 137q0 65 -26 132l161 22q16 -60 16 -110q0 -86 -42 -145.5t-119 -99.5z" />
    <glyph glyph-name="less" unicode="&#x3c;" 
d="M603 448l-435 -154l435 -154v-116l-571 217v105l571 218v-116z" />
    <glyph glyph-name="equal" unicode="=" 
d="M32 471h571v-109h-571v109zM32 235h571v-109h-571v109z" />
    <glyph glyph-name="greater" unicode="&#x3e;" 
d="M603 346v-105l-571 -217v116l435 154l-435 154v116z" />
    <glyph glyph-name="question" unicode="?" horiz-adv-x="520" 
d="M126 407q94 16 132.5 34t38.5 55q0 71 -227 71v114q204 0 294.5 -52t90.5 -134q0 -68 -53 -114.5t-151 -77.5l-6 -80h-110zM124.5 20.5q-27.5 27.5 -27.5 66.5t27.5 66.5t66.5 27.5t66.5 -27.5t27.5 -66.5t-27.5 -66.5t-66.5 -27.5t-66.5 27.5z" />
    <glyph glyph-name="at" unicode="@" horiz-adv-x="931" 
d="M317.5 229.5q20.5 29.5 67.5 52t129 45.5v2q0 29 -11 47t-41 18q-31 0 -63 -13.5t-73 -46.5l-25 90q87 69 181 69q79 0 113 -42.5t34 -130.5v-135q0 -22 7 -31t24 -9q21 0 42.5 21.5t36 64t14.5 100.5q0 66 -30.5 119.5t-88 84.5t-136.5 31q-90 0 -162.5 -34t-115 -103
t-42.5 -169q0 -98 39 -166t106 -102t150 -34q113 0 204 54l43 -93q-110 -68 -248 -68q-111 0 -209 45t-158.5 137.5t-60.5 227.5q0 136 63.5 229t166.5 138.5t223 45.5q121 0 209.5 -46.5t134.5 -125t46 -172.5q0 -90 -36 -154t-92 -97t-116 -33q-78 0 -111 54
q-31 -26 -61.5 -40.5t-64.5 -14.5q-48 0 -78.5 32t-30.5 81q0 42 20.5 71.5zM444 144q30 0 70 31v67q-60 -21 -81 -37.5t-21 -33.5q0 -27 32 -27z" />
    <glyph glyph-name="A" unicode="A" horiz-adv-x="693" 
d="M466 171h-240l-58 -171h-159l262 689h151l263 -689h-161zM429 280l-83 246l-83 -246h166z" />
    <glyph glyph-name="B" unicode="B" horiz-adv-x="677" 
d="M594.5 298.5q40.5 -46.5 40.5 -113.5q0 -90 -71 -137.5t-208 -47.5h-261v680h261q124 0 186.5 -41t62.5 -127q0 -55 -33 -95.5t-95 -56.5q77 -15 117.5 -61.5zM253 569v-154h103q91 0 91 78q0 41 -23 58.5t-68 17.5h-103zM445.5 135q31.5 24 31.5 72q0 97 -121 97h-103
v-193h103q58 0 89.5 24z" />
    <glyph glyph-name="C" unicode="C" horiz-adv-x="685" 
d="M214.5 35.5q-83.5 48.5 -125 129t-41.5 176.5q0 95 43.5 175t129.5 128t208 48q61 0 115 -14.5t94 -40.5l-37 -110q-75 50 -172 50q-70 0 -120.5 -31.5t-76.5 -85t-26 -120.5q0 -105 55.5 -171.5t157.5 -66.5q54 0 102.5 15.5t85.5 38.5l34 -107q-43 -27 -101 -44.5
t-121 -17.5q-121 0 -204.5 48.5z" />
    <glyph glyph-name="D" unicode="D" horiz-adv-x="767" 
d="M558 636q80 -44 120.5 -121t40.5 -174q0 -99 -40.5 -176.5t-120 -121t-192.5 -43.5h-271v680h271q112 0 192 -44zM509 174.5q51 61.5 51 165.5q0 103 -51 165t-143 62h-113v-454h113q92 0 143 61.5z" />
    <glyph glyph-name="E" unicode="E" horiz-adv-x="597" 
d="M545 111v-111h-450v680h430v-111h-272v-154h232v-111h-232v-193h292z" />
    <glyph glyph-name="F" unicode="F" horiz-adv-x="547" 
d="M253 567v-186h232v-112h-232v-269h-158v680h430v-113h-272z" />
    <glyph glyph-name="G" unicode="G" horiz-adv-x="712" 
d="M660 332v-296q-47 -22 -110 -35.5t-131 -13.5q-121 0 -204.5 48.5t-125 129t-41.5 176.5q0 95 43.5 175t129.5 128t208 48q61 0 115 -14.5t94 -40.5l-37 -110q-75 50 -172 50q-70 0 -120.5 -31.5t-76.5 -85t-26 -120.5q0 -105 55.5 -171.5t157.5 -66.5q41 0 88 7v223h153
z" />
    <glyph glyph-name="H" unicode="H" horiz-adv-x="808" 
d="M712 680v-680h-158v303h-301v-303h-158v680h158v-264h301v264h158z" />
    <glyph glyph-name="I" unicode="I" horiz-adv-x="349" 
d="M95 680h158v-680h-158v680z" />
    <glyph glyph-name="J" unicode="J" horiz-adv-x="349" 
d="M-64 -232l11 112q35 -5 60 -5q46 0 67 28t21 86v691h158v-693q0 -110 -54.5 -168.5t-165.5 -58.5q-39 0 -97 8z" />
    <glyph glyph-name="K" unicode="K" horiz-adv-x="725" 
d="M523 0l-270 352v-352h-158v680h158v-303l250 303h182l-278 -313l307 -367h-191z" />
    <glyph glyph-name="L" unicode="L" horiz-adv-x="561" 
d="M545 111v-111h-450v680h158v-569h292z" />
    <glyph glyph-name="M" unicode="M" horiz-adv-x="911" 
d="M815 680v-680h-154v194l10 242l-157 -257h-118l-160 261l13 -246v-194h-154v680h148l212 -342l212 342h148z" />
    <glyph glyph-name="N" unicode="N" horiz-adv-x="808" 
d="M712 680v-680l-141 -1l-330 454l12 -226v-227h-158v680h142l329 -451l-12 230v221h158z" />
    <glyph glyph-name="O" unicode="O" horiz-adv-x="815" 
d="M212.5 34.5q-81.5 47.5 -123 127.5t-41.5 178q0 97 41.5 177t123 127.5t195.5 47.5t195.5 -47.5t123 -127.5t41.5 -177q0 -98 -41.5 -178.5t-122.5 -127.5t-196 -47q-114 0 -195.5 47.5zM517 133q46 31 69.5 85t23.5 122t-23.5 121.5t-69.5 84.5t-109 31t-109 -31
t-69.5 -84.5t-23.5 -121.5t23.5 -122t69.5 -85t109 -31t109 31z" />
    <glyph glyph-name="P" unicode="P" horiz-adv-x="665" 
d="M569.5 626q65.5 -54 65.5 -165t-65.5 -165t-205.5 -54h-111v-242h-158v680h269q140 0 205.5 -54zM450 379.5q27 25.5 27 81.5q0 55 -27 81.5t-86 26.5h-111v-216h111q59 1 86 26.5z" />
    <glyph glyph-name="Q" unicode="Q" horiz-adv-x="815" 
d="M913 -196q-37 -23 -70 -33t-69 -10q-74 0 -132 23.5t-103 77.5l-106 126q-8 -1 -25 -1q-114 0 -195.5 47.5t-123 127.5t-41.5 178q0 97 41.5 177t123 127.5t195.5 47.5t195.5 -47.5t123 -127.5t41.5 -177q0 -106 -48.5 -191t-139.5 -127l49 -58q39 -47 75.5 -66t74.5 -19
q63 0 118 33zM229.5 218q23.5 -54 69.5 -85t109 -31t109 31t69.5 85t23.5 122t-23.5 121.5t-69.5 84.5t-109 31t-109 -31t-69.5 -84.5t-23.5 -121.5t23.5 -122z" />
    <glyph glyph-name="R" unicode="R" horiz-adv-x="727" 
d="M357 262h-104v-262h-158v680h261q139 0 204 -49.5t65 -150.5q0 -142 -114 -186l198 -294h-182zM253 373h103q58 0 84.5 24t26.5 74t-26.5 74t-84.5 24h-103v-196z" />
    <glyph glyph-name="S" unicode="S" horiz-adv-x="608" 
d="M148 0.5q-61 13.5 -106 37.5l33 109q53 -23 100.5 -34t99.5 -11q57 0 96 21.5t39 61.5q0 26 -18.5 45t-46 31.5t-76.5 30.5q-65 24 -106 45t-70 57.5t-29 91.5q0 98 73.5 152t197.5 54q55 0 107.5 -13t94.5 -37l-34 -108q-88 43 -163 43q-55 0 -88.5 -21t-33.5 -60
q0 -33 32 -53t102 -46q67 -25 109.5 -46.5t73 -59.5t30.5 -96q0 -98 -75 -153t-213 -55q-68 0 -129 13.5z" />
    <glyph glyph-name="T" unicode="T" horiz-adv-x="597" 
d="M574 567h-197v-567h-158v567h-195v113h550v-113z" />
    <glyph glyph-name="U" unicode="U" horiz-adv-x="788" 
d="M164.5 62q-79.5 75 -79.5 206v412h158v-411q0 -167 151 -167q150 0 150 167v411h158v-410q0 -132 -79 -207.5t-229 -75.5t-229.5 75z" />
    <glyph glyph-name="V" unicode="V" horiz-adv-x="712" 
d="M697 680l-260 -686h-162l-261 686h161l182 -536l181 536h159z" />
    <glyph glyph-name="W" unicode="W" horiz-adv-x="1090" 
d="M1075 680l-232 -686h-159l-146 493l-146 -493h-160l-218 686h161l139 -521l149 521h151l150 -525l148 525h163z" />
    <glyph glyph-name="X" unicode="X" horiz-adv-x="736" 
d="M530 0l-163 249l-164 -249h-183l255 350l-240 330h186l146 -233l146 233h183l-240 -327l260 -353h-186z" />
    <glyph glyph-name="Y" unicode="Y" horiz-adv-x="681" 
d="M419 275v-275h-158v272l-251 408h167l163 -293l165 293h165z" />
    <glyph glyph-name="Z" unicode="Z" horiz-adv-x="698" 
d="M663 113v-113h-608v87l394 480h-381v113h581v-95l-392 -472h406z" />
    <glyph glyph-name="bracketleft" unicode="[" horiz-adv-x="387" 
d="M72 695h243v-104l-90 -10v-594l90 -10v-104h-243v822z" />
    <glyph glyph-name="backslash" unicode="\" horiz-adv-x="428" 
d="M-7 708h155l287 -944h-154z" />
    <glyph glyph-name="bracketright" unicode="]" horiz-adv-x="387" 
d="M72 -22l90 9v594l-90 9v105h243v-822h-243v105z" />
    <glyph glyph-name="asciicircum" unicode="^" 
d="M388 145l-70 159l-71 -159h-143l146 276h135l146 -276h-143z" />
    <glyph glyph-name="underscore" unicode="_" horiz-adv-x="500" 
d="M0 -161h500v-109h-500v109z" />
    <glyph glyph-name="grave" unicode="`" horiz-adv-x="500" 
d="M115 802h164l97 -212h-118z" />
    <glyph glyph-name="a" unicode="a" horiz-adv-x="601" 
d="M594 5q-57 -13 -104 -13q-93 0 -119 64q-43 -32 -85.5 -48.5t-90.5 -16.5q-44 0 -79 18t-54.5 49.5t-19.5 69.5q0 60 31 96.5t85 59t160 52.5l42 12v13q0 99 -86 99q-43 0 -89 -18.5t-105 -62.5l-34 104q138 90 276 90q93 0 141.5 -50.5t48.5 -170.5v-208
q0 -22 8.5 -31.5t28.5 -9.5q17 0 39 6zM246 101q26 0 53 11.5t61 33.5v115l-26 -9q-79 -27 -109 -49.5t-30 -55.5q0 -46 51 -46z" />
    <glyph glyph-name="b" unicode="b" horiz-adv-x="672" 
d="M507 540q58 -33 90.5 -98t32.5 -158q0 -101 -37 -167.5t-98 -98t-136 -31.5q-81 0 -149 49l-16 -36h-110v800h153v-265q63 38 137 38q75 0 133 -33zM442.5 144.5q32.5 46.5 32.5 139.5q0 96 -33 137t-85 41q-35 0 -63.5 -8.5t-56.5 -26.5v-300q49 -29 104 -29
q69 0 101.5 46.5z" />
    <glyph glyph-name="c" unicode="c" horiz-adv-x="545" 
d="M169.5 25.5q-64.5 38.5 -96 104t-31.5 149.5q0 81 32 147.5t100 106.5t171 40q42 0 87 -11t72 -29l-33 -106q-60 35 -126 35q-71 0 -109.5 -47.5t-38.5 -134.5t35 -135t98 -48q42 0 76.5 14.5t74.5 41.5l44 -97q-36 -30 -86.5 -49.5t-108.5 -19.5q-96 0 -160.5 38.5z" />
    <glyph glyph-name="d" unicode="d" horiz-adv-x="672" 
d="M589 800v-800h-114l-15 43q-71 -56 -161 -56q-76 0 -134 33t-90.5 98.5t-32.5 158.5q0 154 85.5 225t227.5 71q48 0 81 -9v236h153zM230 139q33 -41 85 -41q36 0 64.5 8.5t56.5 27.5v319q-32 9 -72 9q-167 0 -167 -185q0 -97 33 -138z" />
    <glyph glyph-name="e" unicode="e" horiz-adv-x="601" 
d="M418 115q40 18 86 53l44 -97q-50 -43 -101.5 -63.5t-116.5 -20.5q-96 0 -160.5 38.5t-96 104t-31.5 149.5q0 86 32 152.5t96.5 104t159.5 37.5q109 0 168.5 -60t60.5 -169q0 -40 -12 -81h-354q3 -82 36 -124t101 -42q48 0 88 18zM201 363h209q1 5 1 14q-1 45 -25.5 69
t-64.5 24q-95 0 -120 -107z" />
    <glyph glyph-name="f" unicode="f" horiz-adv-x="433" 
d="M264 560h160v-110h-160v-450h-153v450h-85v65l85 32v40q0 106 53.5 162.5t163.5 56.5q39 0 98 -8l-11 -108q-37 5 -62 5q-89 0 -89 -110v-25z" />
    <glyph glyph-name="g" unicode="g" horiz-adv-x="612" 
d="M607 450l-102 13q17 -37 17 -76q0 -50 -25.5 -93t-77.5 -69t-126 -26q-22 0 -56 4q-30 -27 -30 -50q0 -18 11.5 -26t40.5 -8h155q87 0 136 -37t49 -101q0 -63 -43 -115t-118.5 -82.5t-167.5 -30.5q-127 0 -184.5 44t-57.5 106q0 37 21.5 67.5t62.5 61.5
q-28 15 -41.5 37.5t-13.5 47.5q0 30 21 59.5t67 61.5q-39 26 -59.5 64.5t-20.5 82.5q0 51 25.5 93.5t77 68.5t125.5 26q49 0 93 -13h221v-110zM352.5 324q22.5 22 22.5 62t-22 62t-60 22t-60 -22t-22 -62t22.5 -62t59.5 -22t59.5 22zM379 7h-144h-13q-48 -48 -48 -92
q0 -51 96 -51q51 0 93 14t66 36t24 44q0 49 -74 49z" />
    <glyph glyph-name="h" unicode="h" horiz-adv-x="667" 
d="M549 517.5q40 -55.5 40 -161.5v-356h-153v338q0 68 -17.5 95t-64.5 27q-57 0 -117 -42v-418h-153v800h153v-276q85 49 166 49q106 0 146 -55.5z" />
    <glyph glyph-name="i" unicode="i" horiz-adv-x="323" 
d="M98 684q-26 26 -26 63t26 63t63 26t63.5 -26t26.5 -63t-26.5 -63t-63.5 -26t-63 26zM85 560h153v-560h-153v560z" />
    <glyph glyph-name="j" unicode="j" horiz-adv-x="320" 
d="M97 684q-26 26 -26 63t26 63t63 26t63.5 -26t26.5 -63t-26.5 -63t-63.5 -26t-63 26zM-79 -232l11 108q37 -5 62 -5q89 0 89 110v579h153v-581q0 -106 -54 -162.5t-164 -56.5q-39 0 -97 8z" />
    <glyph glyph-name="k" unicode="k" horiz-adv-x="621" 
d="M443 0l-206 291v-291h-153v800h153v-481l180 241h157l-196 -255l233 -305h-168z" />
    <glyph glyph-name="l" unicode="l" horiz-adv-x="320" 
d="M84 800h153v-800h-153v800z" />
    <glyph glyph-name="m" unicode="m" horiz-adv-x="1013" 
d="M894 517q40 -56 40 -161v-356h-153v338q0 68 -17 95t-63 27q-55 0 -118 -44l-2 4q4 -27 4 -64v-356h-153v338q0 68 -17 95t-63 27q-55 0 -115 -42v-418h-153v560h114l17 -49q97 62 186 62q110 0 153 -68q101 68 196 68q104 0 144 -56z" />
    <glyph glyph-name="n" unicode="n" horiz-adv-x="667" 
d="M548 517.5q40 -55.5 40 -161.5v-356h-153v338q0 68 -17.5 95t-64.5 27q-56 0 -116 -42v-418h-153v560h114l17 -49q97 62 187 62q106 0 146 -55.5z" />
    <glyph glyph-name="o" unicode="o" horiz-adv-x="660" 
d="M171 25q-65 38 -97 104t-32 150q0 86 32 152.5t97 104t159 37.5t159 -40t97.5 -106.5t32.5 -145.5t-32.5 -146t-97.5 -107.5t-159 -40.5t-159 38zM464 280q0 182 -133 182q-134 0 -134 -182q0 -183 134 -183q133 0 133 183z" />
    <glyph glyph-name="p" unicode="p" horiz-adv-x="672" 
d="M507 538.5q58 -34.5 90.5 -101t32.5 -158.5q0 -150 -85.5 -221t-226.5 -71q-48 0 -81 9v-229h-153v793h114l15 -42q72 55 161 55q75 0 133 -34.5zM476 283q0 97 -33.5 138t-85.5 41q-36 0 -64 -8.5t-56 -27.5v-320q38 -9 71 -9q168 0 168 186z" />
    <glyph glyph-name="q" unicode="q" horiz-adv-x="672" 
d="M589 560v-797h-153v262q-63 -38 -137 -38q-76 0 -134 33t-90.5 98t-32.5 158q0 101 37 167.5t98.5 98t136.5 31.5q80 0 149 -50l15 37h111zM379.5 106.5q28.5 8.5 56.5 27.5v298q-53 30 -105 30q-69 0 -101.5 -46.5t-32.5 -139.5q0 -97 33 -137.5t85 -40.5q36 0 64.5 8.5
z" />
    <glyph glyph-name="r" unicode="r" horiz-adv-x="454" 
d="M425 426q-51 0 -93.5 -8t-94.5 -32v-386h-153v560h114l24 -68q52 44 100.5 62t102.5 18v-146z" />
    <glyph glyph-name="s" unicode="s" horiz-adv-x="534" 
d="M133 -2q-52 11 -91 29l31 106q89 -36 166 -36q46 0 74.5 14.5t28.5 44.5q0 25 -26.5 41t-83.5 36q-56 20 -91 37.5t-60.5 48t-25.5 75.5q0 88 64 133.5t174 45.5q46 0 93 -9.5t83 -26.5l-32 -107q-72 32 -140 32q-43 0 -67 -12.5t-24 -37.5t25 -39.5t79 -32.5
q56 -18 93 -36t63.5 -52t26.5 -86q0 -84 -65 -131.5t-187 -47.5q-56 0 -108 11z" />
    <glyph glyph-name="t" unicode="t" horiz-adv-x="470" 
d="M446 33q-30 -21 -68 -31t-75 -10q-101 0 -150 46.5t-49 133.5v278h-85v65l103 39l43 147h92v-141h160v-110h-160v-243q0 -56 17.5 -80t54.5 -24q45 0 92 26z" />
    <glyph glyph-name="u" unicode="u" horiz-adv-x="667" 
d="M584 560v-560h-114l-17 48q-95 -61 -188 -61q-106 0 -146 55.5t-40 160.5v357h153v-338q0 -69 17.5 -96t64.5 -27q56 0 117 43v418h153z" />
    <glyph glyph-name="v" unicode="v" horiz-adv-x="599" 
d="M590 560l-216 -566h-149l-216 566h156l136 -411l135 411h154z" />
    <glyph glyph-name="w" unicode="w" horiz-adv-x="872" 
d="M861 560l-177 -566h-147l-100 405l-101 -405h-147l-177 566h156l93 -406l103 406h147l101 -406l95 406h154z" />
    <glyph glyph-name="x" unicode="x" horiz-adv-x="614" 
d="M437 0l-131 199l-131 -199h-166l211 290l-195 270h167l114 -184l114 184h165l-196 -267l215 -293h-167z" />
    <glyph glyph-name="y" unicode="y" horiz-adv-x="611" 
d="M603 560l-239 -634q-34 -95 -93.5 -137t-144.5 -42q-28 0 -59.5 4.5t-54.5 13.5l11 113q50 -15 86 -15q48 0 82 23t60 76l-231 598h156l139 -412l134 412h154z" />
    <glyph glyph-name="z" unicode="z" horiz-adv-x="546" 
d="M512 109v-109h-483v83l298 367h-284v110h459v-85l-297 -366h307z" />
    <glyph glyph-name="braceleft" unicode="{" horiz-adv-x="387" 
d="M170 -92.5q-71 37.5 -71 119.5q0 23 9 63q10 44 10 70q0 36 -25.5 54.5t-79.5 24.5v98q53 5 78.5 23.5t25.5 54.5q0 25 -10 71q-9 38 -9 63q0 82 71.5 119.5t179.5 36.5v-99q-100 1 -100 -62q0 -35 10 -81q9 -36 9 -63q0 -41 -20 -70t-57 -41v-2q38 -12 57.5 -40.5
t19.5 -71.5q0 -27 -9 -63q-10 -44 -10 -80q0 -31 25.5 -46.5t74.5 -15.5v-100q-108 0 -179 37.5z" />
    <glyph glyph-name="bar" unicode="|" horiz-adv-x="389" 
d="M115 807h158v-1043h-158v1043z" />
    <glyph glyph-name="braceright" unicode="}" horiz-adv-x="387" 
d="M38 -30q100 0 100 62q0 35 -10 81q-9 36 -9 62q0 43 19.5 71.5t57.5 40.5v2q-37 12 -57 41t-20 70q0 27 9 63q10 46 10 81q0 63 -100 62v99q107 1 179 -36.5t72 -119.5q0 -23 -9 -63q-10 -44 -10 -71q0 -36 25.5 -54t78.5 -24v-98q-54 -6 -79.5 -24.5t-25.5 -54.5
q0 -26 10 -70q9 -40 9 -63q0 -82 -71.5 -119.5t-178.5 -37.5v100z" />
    <glyph glyph-name="asciitilde" unicode="~" 
d="M35 250q39 53 83.5 86.5t105.5 33.5q30 0 54 -10t53 -28q27 -16 44.5 -23.5t38.5 -7.5q65 0 116 72l71 -69q-41 -53 -83.5 -85t-103.5 -32q-27 0 -48 9t-54 27q-27 17 -46.5 25t-41.5 8q-36 0 -64.5 -20.5t-53.5 -54.5z" />
    <glyph glyph-name="DEL" horiz-adv-x="494" 
 />
    <glyph glyph-name="uni00A0" unicode="&#xa0;" horiz-adv-x="250" 
 />
    <glyph glyph-name="exclamdown" unicode="&#xa1;" horiz-adv-x="332" 
d="M72 0zM252 -114h-163l10 457h133zM232.5 545.5q27.5 -27.5 27.5 -66.5t-27.5 -66.5t-66.5 -27.5t-66.5 27.5t-27.5 66.5t27.5 66.5t66.5 27.5t66.5 -27.5z" />
    <glyph glyph-name="cent" unicode="&#xa2;" 
d="M530 92q-45 -27 -97 -38v-177h-135v173q-126 17 -190.5 95.5t-64.5 192.5q0 107 63 183.5t192 95.5v183h135v-183q44 -8 85.5 -28t69.5 -47l-33 -105q-92 75 -177 75q-86 0 -133 -45.5t-47 -127.5q0 -87 44 -134.5t122 -47.5q56 0 102 24t99 70l43 -96q-33 -36 -78 -63z
" />
    <glyph glyph-name="sterling" unicode="&#xa3;" 
d="M576 112v-112h-498v84q111 66 111 138q0 33 -13 65h-107v110h56q-15 45 -15 96q0 94 67.5 146.5t183.5 52.5q114 -1 210 -52l-35 -105q-40 20 -76.5 31t-75.5 11q-58 0 -89 -26t-31 -64q0 -43 20 -90h209v-110h-159q8 -30 8 -65q0 -29 -12 -55t-36 -55h282z" />
    <glyph glyph-name="currency" unicode="&#xa4;" 
d="M475 29l-68 68q-43 -18 -90 -18q-46 0 -89 18l-69 -68l-94 94l69 69q-19 41 -19 90q0 48 18 88l-68 69l94 94l66 -65q40 20 92 20q51 0 93 -20l65 65l94 -94l-67 -67q19 -39 19 -88q0 -50 -20 -93l69 -68zM256.5 214q23.5 -27 60.5 -27q38 0 62 27t24 69q0 41 -24 69
t-62 28q-37 0 -60.5 -28t-23.5 -69q0 -42 23.5 -69z" />
    <glyph glyph-name="yen" unicode="&#xa5;" 
d="M428 432h131v-110h-164v-42h164v-110h-164v-170h-154v170h-166v110h166v42h-166v110h133l-167 248h163l115 -191l117 191h161z" />
    <glyph glyph-name="brokenbar" unicode="&#xa6;" horiz-adv-x="389" 
d="M115 807h158v-408h-158v408zM115 172h158v-408h-158v408z" />
    <glyph glyph-name="section" unicode="&#xa7;" horiz-adv-x="601" 
d="M524 31q0 -86 -65 -133t-187 -47q-54 0 -106 11t-90 29l31 107q87 -36 163 -36q47 0 75 14t28 45q0 25 -26 40t-83 36q-56 20 -91.5 37.5t-61 48t-25.5 76.5q0 92 77 142q-61 44 -61 110q0 87 64 132.5t174 45.5q46 0 93 -9.5t82 -26.5l-31 -106q-73 31 -140 31
q-43 0 -67 -12.5t-24 -37.5t25 -39.5t79 -32.5q56 -18 93 -36t63.5 -52t26.5 -86q0 -88 -71 -137q55 -43 55 -114zM261 237.5q24 -14.5 74 -31.5q26 14 40 29.5t14 36.5q0 24 -24.5 39t-74.5 34q-27 -14 -40 -30.5t-13 -38.5q0 -24 24 -38.5z" />
    <glyph glyph-name="dieresis" unicode="&#xa8;" horiz-adv-x="500" 
d="M70.5 681.5q-24.5 24.5 -24.5 57.5t24.5 57.5t57.5 24.5t57.5 -24.5t24.5 -57.5t-24.5 -57.5t-57.5 -24.5t-57.5 24.5zM314.5 681.5q-24.5 24.5 -24.5 57.5t24.5 57.5t57.5 24.5t57.5 -24.5t24.5 -57.5t-24.5 -57.5t-57.5 -24.5t-57.5 24.5z" />
    <glyph glyph-name="copyright" unicode="&#xa9;" horiz-adv-x="818" 
d="M221.5 34.5q-82.5 47.5 -128 128.5t-45.5 178t45.5 177t128 127t187.5 47t188 -47t128.5 -127t45.5 -177t-46 -178t-128.5 -128.5t-187.5 -47.5t-187.5 47.5zM542 113q57 35 87.5 95t30.5 133t-30.5 132.5t-87.5 94t-133 34.5q-75 0 -132 -34.5t-87.5 -94t-30.5 -132.5
t30.5 -133t87.5 -95t132 -35q76 0 133 35zM318.5 179.5q-42.5 25.5 -63.5 68t-21 93.5q0 50 22 92t65.5 67.5t103.5 25.5q33 0 62 -8t50 -21l-26 -78q-34 19 -72 19q-44 0 -70 -27.5t-26 -69.5q0 -44 24 -71.5t68 -27.5q40 0 72 22l31 -78q-21 -14 -52.5 -23t-64.5 -9
q-60 0 -102.5 25.5z" />
    <glyph glyph-name="ordfeminine" unicode="&#xaa;" horiz-adv-x="429" 
d="M48.5 494.5q24.5 28.5 69.5 46.5t124 39v3q0 22 -10.5 36.5t-40.5 14.5q-63 0 -138 -47l-30 78q102 60 209 60q78 0 112.5 -37.5t34.5 -121.5v-110q0 -10 3 -15t12 -5q10 0 20 5l6 -101q-37 -9 -76 -9q-72 0 -93 41q-30 -21 -58 -31.5t-65 -10.5q-46 0 -75 26.5t-29 65.5
q0 44 24.5 72.5zM170.5 425q7.5 -6 19.5 -6q19 0 52 23v67q-43 -16 -61 -31t-18 -36q0 -11 7.5 -17zM25 259h384v-104h-384v104z" />
    <glyph glyph-name="guillemotleft" unicode="&#xab;" horiz-adv-x="624" 
d="M48 48zM48 259l158 211l108 -77l-102 -134l102 -134l-108 -77zM312 259l158 211l108 -77l-102 -134l102 -134l-108 -77z" />
    <glyph glyph-name="logicalnot" unicode="&#xac;" 
d="M603 353v-344h-117v235h-454v109h571z" />
    <glyph glyph-name="uni00AD" unicode="&#xad;" horiz-adv-x="600" 
d="M20 233zM20 342h251v-109h-251v109z" />
    <glyph glyph-name="registered" unicode="&#xae;" horiz-adv-x="482" 
d="M346 702q47 -27 74.5 -74.5t27.5 -106.5q0 -58 -27.5 -105.5t-74.5 -75t-104 -27.5t-105 27.5t-76 75t-28 105.5q0 59 28 106.5t76 74.5t105 27t104 -27zM315.5 389.5q34.5 19.5 54.5 54t20 77.5t-20 78t-54.5 55t-75.5 20q-40 0 -74 -20t-54 -55t-20 -78t20 -77.5
t54 -54t74 -19.5q41 0 75.5 19.5zM294 501l42 -62h-60l-31 50h-23v-50h-52v166h80q32 0 50 -16t18 -42q0 -33 -24 -46zM222 529h24q11 0 15.5 4.5t4.5 14.5q0 17 -20 17h-24v-36z" />
    <glyph glyph-name="macron" unicode="&#xaf;" horiz-adv-x="500" 
d="M61 782h379v-108h-379v108z" />
    <glyph glyph-name="degree" unicode="&#xb0;" horiz-adv-x="508" 
d="M150 371q-44 26 -67.5 69.5t-23.5 94.5t23.5 95t67.5 70.5t103 26.5q60 0 104.5 -26.5t67.5 -70t23 -93.5q0 -52 -23 -96t-67.5 -70t-104.5 -26q-59 0 -103 26zM314.5 467.5q24.5 27.5 24.5 68.5t-24.5 68.5t-61.5 27.5q-36 0 -60 -27.5t-24 -68.5t23.5 -68.5t60.5 -27.5
t61.5 27.5z" />
    <glyph glyph-name="plusminus" unicode="&#xb1;" 
d="M603 418v-105h-227v-160h-117v160h-227v105h227v161h117v-161h227zM32 104h571v-104h-571v104z" />
    <glyph glyph-name="uni00B2" unicode="&#xb2;" horiz-adv-x="446" 
d="M128 836q41 18 85 18q58 0 96.5 -18.5t56.5 -48t18 -63.5q0 -45 -25.5 -78.5t-83.5 -77.5l-38 -28v-1h158v-100h-322v93l98 72q44 33 61.5 58.5t17.5 49.5q0 20 -11.5 31.5t-29.5 11.5q-28 0 -58 -15.5t-65 -42.5l-32 93q33 28 74 46z" />
    <glyph glyph-name="uni00B3" unicode="&#xb3;" horiz-adv-x="446" 
d="M370.5 619.5q23.5 -26.5 23.5 -64.5q0 -35 -22.5 -64t-67 -46t-106.5 -17q-80 0 -149 36l29 86q61 -31 122 -31q31 0 48 12t17 32q0 19 -13.5 30t-37.5 11q-29 0 -67 -11l-9 87q57 11 81 21.5t24 33.5q0 13 -11 21t-31 8q-24 0 -55 -10.5t-56 -29.5l-29 79q32 24 74 37.5
t84 13.5q69 0 111 -29t42 -77q0 -52 -62 -88q37 -14 60.5 -40.5z" />
    <glyph glyph-name="acute" unicode="&#xb4;" horiz-adv-x="500" 
d="M221 802h164l-143 -212h-118z" />
    <glyph glyph-name="paragraph" unicode="&#xb6;" horiz-adv-x="604" 
d="M517 -21q0 -106 -54 -162.5t-164 -56.5q-39 0 -97 8l11 109q37 -5 62 -5q89 0 89 109v219h-66q-129 0 -198.5 65.5t-69.5 175.5q0 68 30.5 122.5t91 85.5t146.5 31h219v-701z" />
    <glyph glyph-name="periodcentered" unicode="&#xb7;" horiz-adv-x="332" 
d="M99.5 222.5q-27.5 27.5 -27.5 66.5t27.5 66.5t66.5 27.5t66.5 -27.5t27.5 -66.5t-27.5 -66.5t-66.5 -27.5t-66.5 27.5z" />
    <glyph glyph-name="cedilla" unicode="&#xb8;" horiz-adv-x="500" 
d="M331.5 -72.5q25.5 -22.5 25.5 -55.5q0 -43 -42.5 -77.5t-135.5 -37.5l-21 68q50 4 68 14t18 26q0 11 -9 17.5t-24 6.5t-29 -6l-31 40l64 118h100l-48 -88q39 -3 64.5 -25.5z" />
    <glyph glyph-name="uni00B9" unicode="&#xb9;" horiz-adv-x="446" 
d="M405 539v-100h-302v100h84v210l-72 -8l-22 89l116 17h112v-308h84z" />
    <glyph glyph-name="ordmasculine" unicode="&#xba;" horiz-adv-x="452" 
d="M45 624q23 46 69 74t112 28t112.5 -28t69.5 -73.5t23 -97.5q0 -54 -23 -100t-69.5 -74t-112.5 -28t-112 28t-69 73.5t-23 98.5t23 99zM275.5 604.5q-15.5 26.5 -50.5 26.5t-50 -26.5t-15 -78.5q0 -53 15 -79t50 -26q36 0 51 26t15 79q0 52 -15.5 78.5zM417 259v-104h-381
v104h381z" />
    <glyph glyph-name="guillemotright" unicode="&#xbb;" horiz-adv-x="624" 
d="M46 48zM46 125l102 134l-102 134l108 77l158 -211l-158 -211zM310 125l102 134l-102 134l108 77l158 -211l-158 -211z" />
    <glyph glyph-name="onequarter" unicode="&#xbc;" horiz-adv-x="1105" 
d="M93 0zM847 649l-400 -692l-111 67l400 692zM405 372v-100h-302v100h84v210l-72 -8l-22 89l116 17h112v-308h84zM1086 71h-63v-80h-131v80h-206v78l195 259h142v-237h63v-100zM892 171v55l2 65l-43 -60l-41 -60h82z" />
    <glyph glyph-name="onehalf" unicode="&#xbd;" horiz-adv-x="1131" 
d="M93 0zM847 649l-400 -692l-111 67l400 692zM405 372v-100h-302v100h84v210l-72 -8l-22 89l116 17h112v-308h84zM813 397q41 18 85 18q58 0 96.5 -18.5t56.5 -48t18 -63.5q0 -45 -25.5 -78.5t-83.5 -77.5l-38 -28v-1h158v-100h-322v93l98 72q44 33 61.5 58.5t17.5 49.5
q0 20 -11.5 31.5t-29.5 11.5q-28 0 -58 -15.5t-65 -42.5l-32 93q33 28 74 46z" />
    <glyph glyph-name="threequarters" unicode="&#xbe;" horiz-adv-x="1054" 
d="M49 0zM795 649l-400 -692l-111 67l400 692zM370.5 452.5q23.5 -26.5 23.5 -64.5q0 -35 -22.5 -64t-67 -46t-106.5 -17q-80 0 -149 36l29 86q61 -31 122 -31q31 0 48 12t17 32q0 19 -13.5 30t-37.5 11q-29 0 -67 -11l-9 87q57 11 81 21.5t24 33.5q0 13 -11 21t-31 8
q-24 0 -55 -10.5t-56 -29.5l-29 79q32 24 74 37.5t84 13.5q69 0 111 -29t42 -77q0 -52 -62 -88q37 -14 60.5 -40.5zM1035 71h-63v-80h-131v80h-206v78l195 259h142v-237h63v-100zM841 171v55l2 65l-43 -60l-41 -60h82z" />
    <glyph glyph-name="questiondown" unicode="&#xbf;" horiz-adv-x="520" 
d="M66 0zM395 159q-94 -16 -132.5 -34t-38.5 -55q0 -71 227 -71v-114q-204 0 -294.5 52t-90.5 134q0 68 53 114.5t151 77.5l6 80h110zM396.5 545.5q27.5 -27.5 27.5 -66.5t-27.5 -66.5t-66.5 -27.5t-66.5 27.5t-27.5 66.5t27.5 66.5t66.5 27.5t66.5 -27.5z" />
    <glyph glyph-name="Agrave" unicode="&#xc0;" horiz-adv-x="693" 
d="M9 0zM466 171h-240l-58 -171h-159l262 689h151l263 -689h-161zM429 280l-83 246l-83 -246h166zM121 907h162l137 -167h-130z" />
    <glyph glyph-name="Aacute" unicode="&#xc1;" horiz-adv-x="693" 
d="M9 0zM466 171h-240l-58 -171h-159l262 689h151l263 -689h-161zM429 280l-83 246l-83 -246h166zM410 907h162l-170 -167h-129z" />
    <glyph glyph-name="Acircumflex" unicode="&#xc2;" horiz-adv-x="693" 
d="M9 0zM466 171h-240l-58 -171h-159l262 689h151l263 -689h-161zM429 280l-83 246l-83 -246h166zM418 740l-73 94l-73 -94h-144l143 167h148l143 -167h-144z" />
    <glyph glyph-name="Atilde" unicode="&#xc3;" horiz-adv-x="693" 
d="M9 0zM466 171h-240l-58 -171h-159l262 689h151l263 -689h-161zM429 280l-83 246l-83 -246h166zM153 738q5 78 37 123t82 45q21 0 39 -8t40 -22q21 -12 33.5 -18t25.5 -6q15 0 25.5 14.5t17.5 47.5l84 -4q-5 -73 -38 -120.5t-81 -47.5q-22 0 -40 7.5t-45 23.5
q-19 12 -30.5 17.5t-22.5 5.5q-15 0 -25.5 -14.5t-17.5 -47.5z" />
    <glyph glyph-name="Adieresis" unicode="&#xc4;" horiz-adv-x="693" 
d="M9 0zM466 171h-240l-58 -171h-159l262 689h151l263 -689h-161zM429 280l-83 246l-83 -246h166zM170 769.5q-22 22.5 -22 52.5q0 31 22 53.5t53 22.5t53.5 -22.5t22.5 -53.5q0 -30 -22.5 -52.5t-53.5 -22.5t-53 22.5zM414 769.5q-22 22.5 -22 52.5q0 31 22 53.5t53 22.5
t53.5 -22.5t22.5 -53.5q0 -30 -22.5 -52.5t-53.5 -22.5t-53 22.5z" />
    <glyph glyph-name="Aring" unicode="&#xc5;" horiz-adv-x="693" 
d="M9 0zM466 171h-240l-58 -171h-159l262 689h151l263 -689h-161zM429 280l-83 246l-83 -246h166zM240.5 761.5q-37.5 29.5 -37.5 75.5t37.5 75t104.5 29t104.5 -29t37.5 -75t-37.5 -75.5t-104.5 -29.5t-104.5 29.5zM387 837q0 16 -11 25t-31 9t-31.5 -9t-11.5 -25
q0 -17 11.5 -26t31.5 -9q42 0 42 35z" />
    <glyph glyph-name="AE" unicode="&#xc6;" horiz-adv-x="1007" 
d="M955 111v-111h-450v233h-213l-139 -233h-161l429 680h514v-111h-272v-172h232v-111h-232v-175h292zM505 344v244l-146 -244h146z" />
    <glyph glyph-name="Ccedilla" unicode="&#xc7;" horiz-adv-x="685" 
d="M506.5 -72.5q25.5 -22.5 25.5 -55.5q0 -43 -42.5 -77.5t-135.5 -37.5l-21 68q50 4 68 14t18 26q0 11 -9 17.5t-24 6.5t-29 -6l-31 40l36 67q-103 12 -173.5 62t-105.5 125.5t-35 163.5q0 95 43.5 175t129.5 128t208 48q61 0 115 -14.5t94 -40.5l-37 -110q-75 50 -172 50
q-70 0 -120.5 -31.5t-76.5 -85t-26 -120.5q0 -105 55.5 -171.5t157.5 -66.5q54 0 102.5 15.5t85.5 38.5l34 -107q-35 -22 -81.5 -38.5t-97.5 -21.5l-20 -36q39 -3 64.5 -25.5z" />
    <glyph glyph-name="Egrave" unicode="&#xc8;" horiz-adv-x="597" 
d="M90 0zM545 111v-111h-450v680h430v-111h-272v-154h232v-111h-232v-193h292zM90 907h162l137 -167h-130z" />
    <glyph glyph-name="Eacute" unicode="&#xc9;" horiz-adv-x="597" 
d="M95 0zM545 111v-111h-450v680h430v-111h-272v-154h232v-111h-232v-193h292zM379 907h162l-170 -167h-129z" />
    <glyph glyph-name="Ecircumflex" unicode="&#xca;" horiz-adv-x="597" 
d="M95 0zM545 111v-111h-450v680h430v-111h-272v-154h232v-111h-232v-193h292zM387 740l-73 94l-73 -94h-144l143 167h148l143 -167h-144z" />
    <glyph glyph-name="Edieresis" unicode="&#xcb;" horiz-adv-x="597" 
d="M95 0zM545 111v-111h-450v680h430v-111h-272v-154h232v-111h-232v-193h292zM139 769.5q-22 22.5 -22 52.5q0 31 22 53.5t53 22.5t53.5 -22.5t22.5 -53.5q0 -30 -22.5 -52.5t-53.5 -22.5t-53 22.5zM383 769.5q-22 22.5 -22 52.5q0 31 22 53.5t53 22.5t53.5 -22.5
t22.5 -53.5q0 -30 -22.5 -52.5t-53.5 -22.5t-53 22.5z" />
    <glyph glyph-name="Igrave" unicode="&#xcc;" horiz-adv-x="349" 
d="M0 0zM95 680h158v-680h-158v680zM-50 907h162l137 -167h-130z" />
    <glyph glyph-name="Iacute" unicode="&#xcd;" horiz-adv-x="349" 
d="M95 0zM95 680h158v-680h-158v680zM239 907h162l-170 -167h-129z" />
    <glyph glyph-name="Icircumflex" unicode="&#xce;" horiz-adv-x="349" 
d="M0 0zM95 680h158v-680h-158v680zM247 740l-73 94l-73 -94h-144l143 167h148l143 -167h-144z" />
    <glyph glyph-name="Idieresis" unicode="&#xcf;" horiz-adv-x="349" 
d="M0 0zM95 680h158v-680h-158v680zM-1 769.5q-22 22.5 -22 52.5q0 31 22 53.5t53 22.5t53.5 -22.5t22.5 -53.5q0 -30 -22.5 -52.5t-53.5 -22.5t-53 22.5zM243 769.5q-22 22.5 -22 52.5q0 31 22 53.5t53 22.5t53.5 -22.5t22.5 -53.5q0 -30 -22.5 -52.5t-53.5 -22.5t-53 22.5
z" />
    <glyph glyph-name="Eth" unicode="&#xd0;" horiz-adv-x="767" 
d="M558 636q80 -44 120.5 -121t40.5 -174q0 -99 -40.5 -176.5t-120 -121t-192.5 -43.5h-271v303h-92v107h92v270h271q112 0 192 -44zM509 174.5q51 61.5 51 165.5q0 103 -51 165t-143 62h-113v-157h140v-107h-140v-190h113q92 0 143 61.5z" />
    <glyph glyph-name="Ntilde" unicode="&#xd1;" horiz-adv-x="808" 
d="M95 0zM712 680v-680l-141 -1l-330 454l12 -226v-227h-158v680h142l329 -451l-12 230v221h158zM211 738q5 78 37 123t82 45q21 0 39 -8t40 -22q21 -12 33.5 -18t25.5 -6q15 0 25.5 14.5t17.5 47.5l84 -4q-5 -73 -38 -120.5t-81 -47.5q-22 0 -40 7.5t-45 23.5
q-19 12 -30.5 17.5t-22.5 5.5q-15 0 -25.5 -14.5t-17.5 -47.5z" />
    <glyph glyph-name="Ograve" unicode="&#xd2;" horiz-adv-x="815" 
d="M48 0zM212.5 34.5q-81.5 47.5 -123 127.5t-41.5 178q0 97 41.5 177t123 127.5t195.5 47.5t195.5 -47.5t123 -127.5t41.5 -177q0 -98 -41.5 -178.5t-122.5 -127.5t-196 -47q-114 0 -195.5 47.5zM517 133q46 31 69.5 85t23.5 122t-23.5 121.5t-69.5 84.5t-109 31t-109 -31
t-69.5 -84.5t-23.5 -121.5t23.5 -122t69.5 -85t109 -31t109 31zM184 907h162l137 -167h-130z" />
    <glyph glyph-name="Oacute" unicode="&#xd3;" horiz-adv-x="815" 
d="M48 0zM212.5 34.5q-81.5 47.5 -123 127.5t-41.5 178q0 97 41.5 177t123 127.5t195.5 47.5t195.5 -47.5t123 -127.5t41.5 -177q0 -98 -41.5 -178.5t-122.5 -127.5t-196 -47q-114 0 -195.5 47.5zM517 133q46 31 69.5 85t23.5 122t-23.5 121.5t-69.5 84.5t-109 31t-109 -31
t-69.5 -84.5t-23.5 -121.5t23.5 -122t69.5 -85t109 -31t109 31zM473 907h162l-170 -167h-129z" />
    <glyph glyph-name="Ocircumflex" unicode="&#xd4;" horiz-adv-x="815" 
d="M48 0zM212.5 34.5q-81.5 47.5 -123 127.5t-41.5 178q0 97 41.5 177t123 127.5t195.5 47.5t195.5 -47.5t123 -127.5t41.5 -177q0 -98 -41.5 -178.5t-122.5 -127.5t-196 -47q-114 0 -195.5 47.5zM517 133q46 31 69.5 85t23.5 122t-23.5 121.5t-69.5 84.5t-109 31t-109 -31
t-69.5 -84.5t-23.5 -121.5t23.5 -122t69.5 -85t109 -31t109 31zM481 740l-73 94l-73 -94h-144l143 167h148l143 -167h-144z" />
    <glyph glyph-name="Otilde" unicode="&#xd5;" horiz-adv-x="815" 
d="M48 0zM212.5 34.5q-81.5 47.5 -123 127.5t-41.5 178q0 97 41.5 177t123 127.5t195.5 47.5t195.5 -47.5t123 -127.5t41.5 -177q0 -98 -41.5 -178.5t-122.5 -127.5t-196 -47q-114 0 -195.5 47.5zM517 133q46 31 69.5 85t23.5 122t-23.5 121.5t-69.5 84.5t-109 31t-109 -31
t-69.5 -84.5t-23.5 -121.5t23.5 -122t69.5 -85t109 -31t109 31zM216 738q5 78 37 123t82 45q21 0 39 -8t40 -22q21 -12 33.5 -18t25.5 -6q15 0 25.5 14.5t17.5 47.5l84 -4q-5 -73 -38 -120.5t-81 -47.5q-22 0 -40 7.5t-45 23.5q-19 12 -30.5 17.5t-22.5 5.5
q-15 0 -25.5 -14.5t-17.5 -47.5z" />
    <glyph glyph-name="Odieresis" unicode="&#xd6;" horiz-adv-x="815" 
d="M48 0zM212.5 34.5q-81.5 47.5 -123 127.5t-41.5 178q0 97 41.5 177t123 127.5t195.5 47.5t195.5 -47.5t123 -127.5t41.5 -177q0 -98 -41.5 -178.5t-122.5 -127.5t-196 -47q-114 0 -195.5 47.5zM517 133q46 31 69.5 85t23.5 122t-23.5 121.5t-69.5 84.5t-109 31t-109 -31
t-69.5 -84.5t-23.5 -121.5t23.5 -122t69.5 -85t109 -31t109 31zM233 769.5q-22 22.5 -22 52.5q0 31 22 53.5t53 22.5t53.5 -22.5t22.5 -53.5q0 -30 -22.5 -52.5t-53.5 -22.5t-53 22.5zM477 769.5q-22 22.5 -22 52.5q0 31 22 53.5t53 22.5t53.5 -22.5t22.5 -53.5
q0 -30 -22.5 -52.5t-53.5 -22.5t-53 22.5z" />
    <glyph glyph-name="multiply" unicode="&#xd7;" 
d="M482 54l-166 167l-164 -164l-77 77l164 164l-160 160l77 77l160 -160l163 163l77 -77l-163 -163l166 -167z" />
    <glyph glyph-name="Oslash" unicode="&#xd8;" horiz-adv-x="824" 
d="M747.5 468.5q20.5 -60.5 20.5 -128.5q0 -98 -41.5 -178.5t-122.5 -127.5t-196 -47q-107 0 -188 43l-79 -92l-85 73l76 89q-41 47 -62.5 108.5t-21.5 131.5q0 97 41.5 177t123 127.5t195.5 47.5q107 0 192 -45l75 88l85 -73l-73 -86q40 -47 60.5 -107.5zM231 215l284 333
q-48 29 -107 29q-63 0 -109 -31t-69.5 -84.5t-23.5 -121.5q0 -72 25 -125zM517 133q46 31 69.5 85t23.5 122q0 66 -23 120l-282 -331q44 -27 103 -27q63 0 109 31z" />
    <glyph glyph-name="Ugrave" unicode="&#xd9;" horiz-adv-x="788" 
d="M85 0zM164.5 62q-79.5 75 -79.5 206v412h158v-411q0 -167 151 -167q150 0 150 167v411h158v-410q0 -132 -79 -207.5t-229 -75.5t-229.5 75zM170 907h162l137 -167h-130z" />
    <glyph glyph-name="Uacute" unicode="&#xda;" horiz-adv-x="788" 
d="M85 0zM164.5 62q-79.5 75 -79.5 206v412h158v-411q0 -167 151 -167q150 0 150 167v411h158v-410q0 -132 -79 -207.5t-229 -75.5t-229.5 75zM459 907h162l-170 -167h-129z" />
    <glyph glyph-name="Ucircumflex" unicode="&#xdb;" horiz-adv-x="788" 
d="M85 0zM164.5 62q-79.5 75 -79.5 206v412h158v-411q0 -167 151 -167q150 0 150 167v411h158v-410q0 -132 -79 -207.5t-229 -75.5t-229.5 75zM467 740l-73 94l-73 -94h-144l143 167h148l143 -167h-144z" />
    <glyph glyph-name="Udieresis" unicode="&#xdc;" horiz-adv-x="788" 
d="M85 0zM164.5 62q-79.5 75 -79.5 206v412h158v-411q0 -167 151 -167q150 0 150 167v411h158v-410q0 -132 -79 -207.5t-229 -75.5t-229.5 75zM219 769.5q-22 22.5 -22 52.5q0 31 22 53.5t53 22.5t53.5 -22.5t22.5 -53.5q0 -30 -22.5 -52.5t-53.5 -22.5t-53 22.5zM463 769.5
q-22 22.5 -22 52.5q0 31 22 53.5t53 22.5t53.5 -22.5t22.5 -53.5q0 -30 -22.5 -52.5t-53.5 -22.5t-53 22.5z" />
    <glyph glyph-name="Yacute" unicode="&#xdd;" horiz-adv-x="681" 
d="M10 0zM419 275v-275h-158v272l-251 408h167l163 -293l165 293h165zM405 907h162l-170 -167h-129z" />
    <glyph glyph-name="Thorn" unicode="&#xde;" horiz-adv-x="694" 
d="M569.5 515q65.5 -54 65.5 -165t-65.5 -165t-205.5 -54h-111v-131h-158v680h158v-111h111q140 0 205.5 -54zM450 268.5q27 25.5 27 81.5q0 55 -27 81.5t-86 26.5h-111v-216h111q59 1 86 26.5z" />
    <glyph glyph-name="germandbls" unicode="&#xdf;" horiz-adv-x="702" 
d="M270 18l30 107q32 -13 67.5 -20.5t65.5 -7.5q77 0 77 59q0 23 -19 40t-60 40q-40 22 -65.5 41t-44 49t-18.5 72q0 51 21.5 86.5t60.5 76.5q26 28 37.5 44.5t11.5 34.5q0 27 -22.5 41t-63.5 14q-111 0 -111 -116v-579h-153v581q0 107 70 166t202 59q108 0 168.5 -42.5
t60.5 -116.5q0 -42 -20.5 -74.5t-57.5 -70.5q-28 -32 -40.5 -49.5t-12.5 -37.5q0 -22 18.5 -38t57.5 -39q41 -24 67 -44t45 -52.5t19 -76.5q0 -53 -29.5 -93.5t-79.5 -62.5t-109 -22q-92 0 -173 31z" />
    <glyph glyph-name="agrave" unicode="&#xe0;" horiz-adv-x="601" 
d="M42 0zM594 5q-57 -13 -104 -13q-93 0 -119 64q-43 -32 -85.5 -48.5t-90.5 -16.5q-44 0 -79 18t-54.5 49.5t-19.5 69.5q0 60 31 96.5t85 59t160 52.5l42 12v13q0 99 -86 99q-43 0 -89 -18.5t-105 -62.5l-34 104q138 90 276 90q93 0 141.5 -50.5t48.5 -170.5v-208
q0 -22 8.5 -31.5t28.5 -9.5q17 0 39 6zM246 101q26 0 53 11.5t61 33.5v115l-26 -9q-79 -27 -109 -49.5t-30 -55.5q0 -46 51 -46zM113 835h164l97 -212h-118z" />
    <glyph glyph-name="aacute" unicode="&#xe1;" horiz-adv-x="601" 
d="M42 0zM594 5q-57 -13 -104 -13q-93 0 -119 64q-43 -32 -85.5 -48.5t-90.5 -16.5q-44 0 -79 18t-54.5 49.5t-19.5 69.5q0 60 31 96.5t85 59t160 52.5l42 12v13q0 99 -86 99q-43 0 -89 -18.5t-105 -62.5l-34 104q138 90 276 90q93 0 141.5 -50.5t48.5 -170.5v-208
q0 -22 8.5 -31.5t28.5 -9.5q17 0 39 6zM246 101q26 0 53 11.5t61 33.5v115l-26 -9q-79 -27 -109 -49.5t-30 -55.5q0 -46 51 -46zM327 835h164l-143 -212h-118z" />
    <glyph glyph-name="acircumflex" unicode="&#xe2;" horiz-adv-x="601" 
d="M42 0zM594 5q-57 -13 -104 -13q-93 0 -119 64q-43 -32 -85.5 -48.5t-90.5 -16.5q-44 0 -79 18t-54.5 49.5t-19.5 69.5q0 60 31 96.5t85 59t160 52.5l42 12v13q0 99 -86 99q-43 0 -89 -18.5t-105 -62.5l-34 104q138 90 276 90q93 0 141.5 -50.5t48.5 -170.5v-208
q0 -22 8.5 -31.5t28.5 -9.5q17 0 39 6zM246 101q26 0 53 11.5t61 33.5v115l-26 -9q-79 -27 -109 -49.5t-30 -55.5q0 -46 51 -46zM373 623l-70 117l-71 -117h-118l113 210h151l114 -210h-119z" />
    <glyph glyph-name="atilde" unicode="&#xe3;" horiz-adv-x="601" 
d="M42 0zM594 5q-57 -13 -104 -13q-93 0 -119 64q-43 -32 -85.5 -48.5t-90.5 -16.5q-44 0 -79 18t-54.5 49.5t-19.5 69.5q0 60 31 96.5t85 59t160 52.5l42 12v13q0 99 -86 99q-43 0 -89 -18.5t-105 -62.5l-34 104q138 90 276 90q93 0 141.5 -50.5t48.5 -170.5v-208
q0 -22 8.5 -31.5t28.5 -9.5q17 0 39 6zM246 101q26 0 53 11.5t61 33.5v115l-26 -9q-79 -27 -109 -49.5t-30 -55.5q0 -46 51 -46zM111 659q5 78 37 123t82 45q21 0 39 -8t40 -22q21 -13 33.5 -18.5t25.5 -5.5q15 0 25.5 14.5t17.5 47.5l84 -4q-5 -73 -38 -120.5t-81 -47.5
q-22 0 -40 7.5t-45 23.5q-19 12 -30.5 17.5t-22.5 5.5q-15 0 -25.5 -14.5t-17.5 -47.5z" />
    <glyph glyph-name="adieresis" unicode="&#xe4;" horiz-adv-x="601" 
d="M42 0zM594 5q-57 -13 -104 -13q-93 0 -119 64q-43 -32 -85.5 -48.5t-90.5 -16.5q-44 0 -79 18t-54.5 49.5t-19.5 69.5q0 60 31 96.5t85 59t160 52.5l42 12v13q0 99 -86 99q-43 0 -89 -18.5t-105 -62.5l-34 104q138 90 276 90q93 0 141.5 -50.5t48.5 -170.5v-208
q0 -22 8.5 -31.5t28.5 -9.5q17 0 39 6zM246 101q26 0 53 11.5t61 33.5v115l-26 -9q-79 -27 -109 -49.5t-30 -55.5q0 -46 51 -46zM123.5 681.5q-24.5 24.5 -24.5 57.5t24.5 57.5t57.5 24.5t57.5 -24.5t24.5 -57.5t-24.5 -57.5t-57.5 -24.5t-57.5 24.5zM367.5 681.5
q-24.5 24.5 -24.5 57.5t24.5 57.5t57.5 24.5t57.5 -24.5t24.5 -57.5t-24.5 -57.5t-57.5 -24.5t-57.5 24.5z" />
    <glyph glyph-name="aring" unicode="&#xe5;" horiz-adv-x="601" 
d="M42 0zM594 5q-57 -13 -104 -13q-93 0 -119 64q-43 -32 -85.5 -48.5t-90.5 -16.5q-44 0 -79 18t-54.5 49.5t-19.5 69.5q0 60 31 96.5t85 59t160 52.5l42 12v13q0 99 -86 99q-43 0 -89 -18.5t-105 -62.5l-34 104q138 90 276 90q93 0 141.5 -50.5t48.5 -170.5v-208
q0 -22 8.5 -31.5t28.5 -9.5q17 0 39 6zM246 101q26 0 53 11.5t61 33.5v115l-26 -9q-79 -27 -109 -49.5t-30 -55.5q0 -46 51 -46zM225 635q-33 17 -49.5 44t-16.5 58t16.5 58t49.5 43.5t78 16.5t77.5 -16.5t49 -44t16.5 -57.5q0 -31 -16.5 -58t-49 -44t-77.5 -17t-78 17z
M339.5 699.5q13.5 14.5 13.5 37.5q0 22 -13.5 36.5t-36.5 14.5t-36.5 -14.5t-13.5 -36.5q0 -23 13.5 -37.5t36.5 -14.5t36.5 14.5z" />
    <glyph glyph-name="ae" unicode="&#xe6;" horiz-adv-x="918" 
d="M734 115q40 18 87 53l44 -97q-51 -43 -102.5 -63.5t-116.5 -20.5q-79 0 -136.5 27.5t-93.5 77.5q-58 -50 -109 -75.5t-112 -25.5q-44 0 -79 18t-54.5 49.5t-19.5 69.5q0 60 31 96.5t85 59t160 52.5l42 12v13q0 99 -86 99q-43 0 -89 -18.5t-105 -62.5l-34 104
q138 90 276 90q95 0 136 -59q73 59 188 59q109 0 169 -60t61 -169q0 -40 -12 -81h-354q3 -82 36 -124t101 -42q47 0 87 18zM518 363h209q1 5 1 14q-1 45 -25.5 69t-64.5 24q-95 0 -120 -107zM307 116q31 15 74 45q-15 46 -18 101l-29 -10q-79 -27 -109 -49.5t-30 -55.5
q0 -46 51 -46q30 0 61 15z" />
    <glyph glyph-name="ccedilla" unicode="&#xe7;" horiz-adv-x="545" 
d="M417.5 -72.5q25.5 -22.5 25.5 -55.5q0 -43 -42.5 -77.5t-135.5 -37.5l-21 68q50 4 68 14t18 26q0 11 -9 17.5t-24 6.5t-29 -6l-31 40l37 68q-115 16 -173.5 94.5t-58.5 193.5q0 81 32 147.5t100 106.5t171 40q42 0 87 -11t72 -29l-33 -106q-60 35 -126 35
q-71 0 -109.5 -47.5t-38.5 -134.5t35 -135t98 -48q42 0 76.5 14.5t74.5 41.5l44 -97q-28 -24 -67 -42t-85 -24l-20 -37q39 -3 64.5 -25.5z" />
    <glyph glyph-name="egrave" unicode="&#xe8;" horiz-adv-x="601" 
d="M42 0zM418 115q40 18 86 53l44 -97q-50 -43 -101.5 -63.5t-116.5 -20.5q-96 0 -160.5 38.5t-96 104t-31.5 149.5q0 86 32 152.5t96.5 104t159.5 37.5q109 0 168.5 -60t60.5 -169q0 -40 -12 -81h-354q3 -82 36 -124t101 -42q48 0 88 18zM201 363h209q1 5 1 14
q-1 45 -25.5 69t-64.5 24q-95 0 -120 -107zM128 835h164l97 -212h-118z" />
    <glyph glyph-name="eacute" unicode="&#xe9;" horiz-adv-x="601" 
d="M42 0zM418 115q40 18 86 53l44 -97q-50 -43 -101.5 -63.5t-116.5 -20.5q-96 0 -160.5 38.5t-96 104t-31.5 149.5q0 86 32 152.5t96.5 104t159.5 37.5q109 0 168.5 -60t60.5 -169q0 -40 -12 -81h-354q3 -82 36 -124t101 -42q48 0 88 18zM201 363h209q1 5 1 14
q-1 45 -25.5 69t-64.5 24q-95 0 -120 -107zM342 835h164l-143 -212h-118z" />
    <glyph glyph-name="ecircumflex" unicode="&#xea;" horiz-adv-x="601" 
d="M42 0zM418 115q40 18 86 53l44 -97q-50 -43 -101.5 -63.5t-116.5 -20.5q-96 0 -160.5 38.5t-96 104t-31.5 149.5q0 86 32 152.5t96.5 104t159.5 37.5q109 0 168.5 -60t60.5 -169q0 -40 -12 -81h-354q3 -82 36 -124t101 -42q48 0 88 18zM201 363h209q1 5 1 14
q-1 45 -25.5 69t-64.5 24q-95 0 -120 -107zM388 623l-70 117l-71 -117h-118l113 210h151l114 -210h-119z" />
    <glyph glyph-name="edieresis" unicode="&#xeb;" horiz-adv-x="601" 
d="M42 0zM418 115q40 18 86 53l44 -97q-50 -43 -101.5 -63.5t-116.5 -20.5q-96 0 -160.5 38.5t-96 104t-31.5 149.5q0 86 32 152.5t96.5 104t159.5 37.5q109 0 168.5 -60t60.5 -169q0 -40 -12 -81h-354q3 -82 36 -124t101 -42q48 0 88 18zM201 363h209q1 5 1 14
q-1 45 -25.5 69t-64.5 24q-95 0 -120 -107zM138.5 681.5q-24.5 24.5 -24.5 57.5t24.5 57.5t57.5 24.5t57.5 -24.5t24.5 -57.5t-24.5 -57.5t-57.5 -24.5t-57.5 24.5zM382.5 681.5q-24.5 24.5 -24.5 57.5t24.5 57.5t57.5 24.5t57.5 -24.5t24.5 -57.5t-24.5 -57.5t-57.5 -24.5
t-57.5 24.5z" />
    <glyph glyph-name="igrave" unicode="&#xec;" horiz-adv-x="323" 
d="M0 0zM85 560h153v-560h-153v560zM-28 835h164l97 -212h-118z" />
    <glyph glyph-name="iacute" unicode="&#xed;" horiz-adv-x="323" 
d="M85 0zM85 560h153v-560h-153v560zM186 835h164l-143 -212h-118z" />
    <glyph glyph-name="icircumflex" unicode="&#xee;" horiz-adv-x="323" 
d="M0 0zM85 560h153v-560h-153v560zM232 623l-70 117l-71 -117h-118l113 210h151l114 -210h-119z" />
    <glyph glyph-name="idieresis" unicode="&#xef;" horiz-adv-x="323" 
d="M0 0zM85 560h153v-560h-153v560zM-17.5 681.5q-24.5 24.5 -24.5 57.5t24.5 57.5t57.5 24.5t57.5 -24.5t24.5 -57.5t-24.5 -57.5t-57.5 -24.5t-57.5 24.5zM226.5 681.5q-24.5 24.5 -24.5 57.5t24.5 57.5t57.5 24.5t57.5 -24.5t24.5 -57.5t-24.5 -57.5t-57.5 -24.5
t-57.5 24.5z" />
    <glyph glyph-name="eth" unicode="&#xf0;" horiz-adv-x="686" 
d="M575 494.5q43 -98.5 43 -200.5q0 -92 -36 -162t-100.5 -108t-146.5 -38q-95 0 -161 38t-99 101t-33 138q0 76 33.5 139t98 100.5t154.5 37.5q40 0 73 -10q-27 44 -72 86l-163 -70l-41 91l108 46q-52 29 -118 50l86 76q89 -24 163 -70l146 62l40 -90l-97 -42
q79 -76 122 -174.5zM428.5 148.5q34.5 51.5 34.5 142.5q0 36 -4 64q-24 38 -58 56t-73 18q-62 0 -96.5 -46t-34.5 -120q0 -72 35.5 -119t102.5 -47q59 0 93.5 51.5z" />
    <glyph glyph-name="ntilde" unicode="&#xf1;" horiz-adv-x="667" 
d="M84 0zM548 517.5q40 -55.5 40 -161.5v-356h-153v338q0 68 -17.5 95t-64.5 27q-56 0 -116 -42v-418h-153v560h114l17 -49q97 62 187 62q106 0 146 -55.5zM145 659q5 78 37 123t82 45q21 0 39 -8t40 -22q21 -13 33.5 -18.5t25.5 -5.5q15 0 25.5 14.5t17.5 47.5l84 -4
q-5 -73 -38 -120.5t-81 -47.5q-22 0 -40 7.5t-45 23.5q-19 12 -30.5 17.5t-22.5 5.5q-15 0 -25.5 -14.5t-17.5 -47.5z" />
    <glyph glyph-name="ograve" unicode="&#xf2;" horiz-adv-x="660" 
d="M42 0zM171 25q-65 38 -97 104t-32 150q0 86 32 152.5t97 104t159 37.5t159 -40t97.5 -106.5t32.5 -145.5t-32.5 -146t-97.5 -107.5t-159 -40.5t-159 38zM464 280q0 182 -133 182q-134 0 -134 -182q0 -183 134 -183q133 0 133 183zM140 835h164l97 -212h-118z" />
    <glyph glyph-name="oacute" unicode="&#xf3;" horiz-adv-x="660" 
d="M42 0zM171 25q-65 38 -97 104t-32 150q0 86 32 152.5t97 104t159 37.5t159 -40t97.5 -106.5t32.5 -145.5t-32.5 -146t-97.5 -107.5t-159 -40.5t-159 38zM464 280q0 182 -133 182q-134 0 -134 -182q0 -183 134 -183q133 0 133 183zM354 835h164l-143 -212h-118z" />
    <glyph glyph-name="ocircumflex" unicode="&#xf4;" horiz-adv-x="660" 
d="M42 0zM171 25q-65 38 -97 104t-32 150q0 86 32 152.5t97 104t159 37.5t159 -40t97.5 -106.5t32.5 -145.5t-32.5 -146t-97.5 -107.5t-159 -40.5t-159 38zM464 280q0 182 -133 182q-134 0 -134 -182q0 -183 134 -183q133 0 133 183zM400 623l-70 117l-71 -117h-118l113 210
h151l114 -210h-119z" />
    <glyph glyph-name="otilde" unicode="&#xf5;" horiz-adv-x="660" 
d="M42 0zM171 25q-65 38 -97 104t-32 150q0 86 32 152.5t97 104t159 37.5t159 -40t97.5 -106.5t32.5 -145.5t-32.5 -146t-97.5 -107.5t-159 -40.5t-159 38zM464 280q0 182 -133 182q-134 0 -134 -182q0 -183 134 -183q133 0 133 183zM138 659q5 78 37 123t82 45q21 0 39 -8
t40 -22q21 -13 33.5 -18.5t25.5 -5.5q15 0 25.5 14.5t17.5 47.5l84 -4q-5 -73 -38 -120.5t-81 -47.5q-22 0 -40 7.5t-45 23.5q-19 12 -30.5 17.5t-22.5 5.5q-15 0 -25.5 -14.5t-17.5 -47.5z" />
    <glyph glyph-name="odieresis" unicode="&#xf6;" horiz-adv-x="660" 
d="M42 0zM171 25q-65 38 -97 104t-32 150q0 86 32 152.5t97 104t159 37.5t159 -40t97.5 -106.5t32.5 -145.5t-32.5 -146t-97.5 -107.5t-159 -40.5t-159 38zM464 280q0 182 -133 182q-134 0 -134 -182q0 -183 134 -183q133 0 133 183zM150.5 681.5q-24.5 24.5 -24.5 57.5
t24.5 57.5t57.5 24.5t57.5 -24.5t24.5 -57.5t-24.5 -57.5t-57.5 -24.5t-57.5 24.5zM394.5 681.5q-24.5 24.5 -24.5 57.5t24.5 57.5t57.5 24.5t57.5 -24.5t24.5 -57.5t-24.5 -57.5t-57.5 -24.5t-57.5 24.5z" />
    <glyph glyph-name="divide" unicode="&#xf7;" 
d="M250.5 435.5q-27.5 27.5 -27.5 66.5t27.5 66.5t66.5 27.5t66.5 -27.5t27.5 -66.5t-27.5 -66.5t-66.5 -27.5t-66.5 27.5zM32 353h571v-109h-571v109zM250.5 28.5q-27.5 27.5 -27.5 66.5t27.5 66.5t66.5 27.5t66.5 -27.5t27.5 -66.5t-27.5 -66.5t-66.5 -27.5t-66.5 27.5z
" />
    <glyph glyph-name="oslash" unicode="&#xf8;" horiz-adv-x="660" 
d="M596.5 403.5q22.5 -57.5 22.5 -122.5q0 -79 -32.5 -146t-97.5 -107.5t-159 -40.5q-81 0 -144 30l-50 -71l-65 42l52 73q-40 39 -60.5 95t-20.5 123q0 86 32 152.5t97 104t159 37.5q78 0 138 -29l48 68l64 -42l-49 -69q43 -40 65.5 -97.5zM210 183l188 263q-26 16 -67 16
q-134 0 -134 -182q0 -58 13 -97zM464 280q0 64 -16 105l-191 -268q31 -20 74 -20q133 0 133 183z" />
    <glyph glyph-name="ugrave" unicode="&#xf9;" horiz-adv-x="667" 
d="M79 0zM584 560v-560h-114l-17 48q-95 -61 -188 -61q-106 0 -146 55.5t-40 160.5v357h153v-338q0 -69 17.5 -96t64.5 -27q56 0 117 43v418h153zM139 835h164l97 -212h-118z" />
    <glyph glyph-name="uacute" unicode="&#xfa;" horiz-adv-x="667" 
d="M79 0zM584 560v-560h-114l-17 48q-95 -61 -188 -61q-106 0 -146 55.5t-40 160.5v357h153v-338q0 -69 17.5 -96t64.5 -27q56 0 117 43v418h153zM353 835h164l-143 -212h-118z" />
    <glyph glyph-name="ucircumflex" unicode="&#xfb;" horiz-adv-x="667" 
d="M79 0zM584 560v-560h-114l-17 48q-95 -61 -188 -61q-106 0 -146 55.5t-40 160.5v357h153v-338q0 -69 17.5 -96t64.5 -27q56 0 117 43v418h153zM399 623l-70 117l-71 -117h-118l113 210h151l114 -210h-119z" />
    <glyph glyph-name="udieresis" unicode="&#xfc;" horiz-adv-x="667" 
d="M79 0zM584 560v-560h-114l-17 48q-95 -61 -188 -61q-106 0 -146 55.5t-40 160.5v357h153v-338q0 -69 17.5 -96t64.5 -27q56 0 117 43v418h153zM149.5 681.5q-24.5 24.5 -24.5 57.5t24.5 57.5t57.5 24.5t57.5 -24.5t24.5 -57.5t-24.5 -57.5t-57.5 -24.5t-57.5 24.5z
M393.5 681.5q-24.5 24.5 -24.5 57.5t24.5 57.5t57.5 24.5t57.5 -24.5t24.5 -57.5t-24.5 -57.5t-57.5 -24.5t-57.5 24.5z" />
    <glyph glyph-name="yacute" unicode="&#xfd;" horiz-adv-x="611" 
d="M12 0zM603 560l-239 -634q-34 -95 -93.5 -137t-144.5 -42q-28 0 -59.5 4.5t-54.5 13.5l11 113q50 -15 86 -15q48 0 82 23t60 76l-231 598h156l139 -412l134 412h154zM339 835h164l-143 -212h-118z" />
    <glyph glyph-name="thorn" unicode="&#xfe;" horiz-adv-x="672" 
d="M507 540q58 -33 90.5 -98.5t32.5 -158.5q0 -100 -37 -166.5t-98 -98t-136 -31.5q-63 0 -122 32v-252h-153v1033h153v-266q62 39 137 39t133 -33zM442.5 144q32.5 47 32.5 139q0 97 -33 138t-85 41q-36 0 -64 -8.5t-56 -27.5v-299q48 -30 104 -30q69 0 101.5 47z" />
    <glyph glyph-name="ydieresis" unicode="&#xff;" horiz-adv-x="611" 
d="M12 0zM603 560l-239 -634q-34 -95 -93.5 -137t-144.5 -42q-28 0 -59.5 4.5t-54.5 13.5l11 113q50 -15 86 -15q48 0 82 23t60 76l-231 598h156l139 -412l134 412h154zM135.5 681.5q-24.5 24.5 -24.5 57.5t24.5 57.5t57.5 24.5t57.5 -24.5t24.5 -57.5t-24.5 -57.5
t-57.5 -24.5t-57.5 24.5zM379.5 681.5q-24.5 24.5 -24.5 57.5t24.5 57.5t57.5 24.5t57.5 -24.5t24.5 -57.5t-24.5 -57.5t-57.5 -24.5t-57.5 24.5z" />
    <glyph glyph-name="Amacron" unicode="&#x100;" horiz-adv-x="693" 
d="M9 0zM466 171h-240l-58 -171h-159l262 689h151l263 -689h-161zM429 280l-83 246l-83 -246h166zM156 881h379v-108h-379v108z" />
    <glyph glyph-name="amacron" unicode="&#x101;" horiz-adv-x="601" 
d="M42 0zM594 5q-57 -13 -104 -13q-93 0 -119 64q-43 -32 -85.5 -48.5t-90.5 -16.5q-44 0 -79 18t-54.5 49.5t-19.5 69.5q0 60 31 96.5t85 59t160 52.5l42 12v13q0 99 -86 99q-43 0 -89 -18.5t-105 -62.5l-34 104q138 90 276 90q93 0 141.5 -50.5t48.5 -170.5v-208
q0 -22 8.5 -31.5t28.5 -9.5q17 0 39 6zM246 101q26 0 53 11.5t61 33.5v115l-26 -9q-79 -27 -109 -49.5t-30 -55.5q0 -46 51 -46zM114 815h379v-108h-379v108z" />
    <glyph glyph-name="Abreve" unicode="&#x102;" horiz-adv-x="693" 
d="M9 0zM466 171h-240l-58 -171h-159l262 689h151l263 -689h-161zM429 280l-83 246l-83 -246h166zM208.5 783.5q-49.5 46.5 -51.5 127.5l111 1q2 -37 22.5 -55.5t54.5 -18.5t54 18.5t22 55.5l111 -2q-2 -81 -51.5 -127t-135.5 -46q-87 0 -136.5 46.5z" />
    <glyph glyph-name="abreve" unicode="&#x103;" horiz-adv-x="601" 
d="M42 0zM594 5q-57 -13 -104 -13q-93 0 -119 64q-43 -32 -85.5 -48.5t-90.5 -16.5q-44 0 -79 18t-54.5 49.5t-19.5 69.5q0 60 31 96.5t85 59t160 52.5l42 12v13q0 99 -86 99q-43 0 -89 -18.5t-105 -62.5l-34 104q138 90 276 90q93 0 141.5 -50.5t48.5 -170.5v-208
q0 -22 8.5 -31.5t28.5 -9.5q17 0 39 6zM246 101q26 0 53 11.5t61 33.5v115l-26 -9q-79 -27 -109 -49.5t-30 -55.5q0 -46 51 -46zM172.5 677q-46.5 51 -48.5 151l103 2q2 -51 22 -77t54 -26q35 0 55 26t22 78l103 -3q-2 -100 -49 -151t-131 -51t-130.5 51z" />
    <glyph glyph-name="Aogonek" unicode="&#x104;" horiz-adv-x="693" 
d="M701 -210q-20 -23 -58.5 -41t-79.5 -18q-59 0 -94 30.5t-35 83.5q0 39 23.5 81.5t65.5 76.5l-57 168h-240l-58 -171h-159l262 689h151l263 -689h-43q-87 -75 -87 -124q0 -17 10 -26t27 -9q31 0 68 32zM429 280l-83 246l-83 -246h166z" />
    <glyph glyph-name="aogonek" unicode="&#x105;" horiz-adv-x="601" 
d="M598 -210q-20 -23 -58.5 -41t-79.5 -18q-59 0 -94 30.5t-35 83.5q0 40 23.5 82.5t66.5 76.5q-34 14 -50 52q-43 -32 -85.5 -48.5t-90.5 -16.5q-44 0 -79 18t-54.5 49.5t-19.5 69.5q0 60 31 96.5t85 59t160 52.5l42 12v13q0 99 -86 99q-43 0 -89 -18.5t-105 -62.5l-34 104
q138 90 276 90q93 0 141.5 -50.5t48.5 -170.5v-208q0 -22 8.5 -31.5t28.5 -9.5q17 0 39 6l6 -104q-39 -9 -63 -11q-79 -70 -79 -118q0 -17 10 -26t27 -9q31 0 68 32zM246 101q26 0 53 11.5t61 33.5v115l-26 -9q-79 -27 -109 -49.5t-30 -55.5q0 -46 51 -46z" />
    <glyph glyph-name="Cacute" unicode="&#x106;" horiz-adv-x="685" 
d="M48 0zM214.5 35.5q-83.5 48.5 -125 129t-41.5 176.5q0 95 43.5 175t129.5 128t208 48q61 0 115 -14.5t94 -40.5l-37 -110q-75 50 -172 50q-70 0 -120.5 -31.5t-76.5 -85t-26 -120.5q0 -105 55.5 -171.5t157.5 -66.5q54 0 102.5 15.5t85.5 38.5l34 -107
q-43 -27 -101 -44.5t-121 -17.5q-121 0 -204.5 48.5zM479 907h162l-170 -167h-129z" />
    <glyph glyph-name="cacute" unicode="&#x107;" horiz-adv-x="545" 
d="M42 0zM169.5 25.5q-64.5 38.5 -96 104t-31.5 149.5q0 81 32 147.5t100 106.5t171 40q42 0 87 -11t72 -29l-33 -106q-60 35 -126 35q-71 0 -109.5 -47.5t-38.5 -134.5t35 -135t98 -48q42 0 76.5 14.5t74.5 41.5l44 -97q-36 -30 -86.5 -49.5t-108.5 -19.5
q-96 0 -160.5 38.5zM353 835h164l-143 -212h-118z" />
    <glyph glyph-name="Ccaron" unicode="&#x10c;" horiz-adv-x="685" 
d="M48 0zM214.5 35.5q-83.5 48.5 -125 129t-41.5 176.5q0 95 43.5 175t129.5 128t208 48q61 0 115 -14.5t94 -40.5l-37 -110q-75 50 -172 50q-70 0 -120.5 -31.5t-76.5 -85t-26 -120.5q0 -105 55.5 -171.5t157.5 -66.5q54 0 102.5 15.5t85.5 38.5l34 -107
q-43 -27 -101 -44.5t-121 -17.5q-121 0 -204.5 48.5zM631 907l-143 -167h-148l-143 167h144l73 -94l73 94h144z" />
    <glyph glyph-name="ccaron" unicode="&#x10d;" horiz-adv-x="545" 
d="M42 0zM169.5 25.5q-64.5 38.5 -96 104t-31.5 149.5q0 81 32 147.5t100 106.5t171 40q42 0 87 -11t72 -29l-33 -106q-60 35 -126 35q-71 0 -109.5 -47.5t-38.5 -134.5t35 -135t98 -48q42 0 76.5 14.5t74.5 41.5l44 -97q-36 -30 -86.5 -49.5t-108.5 -19.5
q-96 0 -160.5 38.5zM518 833l-114 -210h-151l-113 210h118l71 -117l70 117h119z" />
    <glyph glyph-name="Dcaron" unicode="&#x10e;" horiz-adv-x="767" 
d="M95 0zM558 636q80 -44 120.5 -121t40.5 -174q0 -99 -40.5 -176.5t-120 -121t-192.5 -43.5h-271v680h271q112 0 192 -44zM509 174.5q51 61.5 51 165.5q0 103 -51 165t-143 62h-113v-454h113q92 0 143 61.5zM578 907l-143 -167h-148l-143 167h144l73 -94l73 94h144z" />
    <glyph glyph-name="dcaron" unicode="&#x10f;" horiz-adv-x="672" 
d="M42 0zM589 800v-800h-114l-15 43q-71 -56 -161 -56q-76 0 -134 33t-90.5 98.5t-32.5 158.5q0 154 85.5 225t227.5 71q48 0 81 -9v236h153zM230 139q33 -41 85 -41q36 0 64.5 8.5t56.5 27.5v319q-32 9 -72 9q-167 0 -167 -185q0 -97 33 -138zM637 580q26 25 38 53.5
t12 65.5q0 49 -25 101h136q13 -46 13 -87q0 -60 -37.5 -109.5t-93.5 -79.5z" />
    <glyph glyph-name="Dcroat" unicode="&#x110;" horiz-adv-x="767" 
d="M558 636q80 -44 120.5 -121t40.5 -174q0 -99 -40.5 -176.5t-120 -121t-192.5 -43.5h-271v303h-92v107h92v270h271q112 0 192 -44zM509 174.5q51 61.5 51 165.5q0 103 -51 165t-143 62h-113v-157h140v-107h-140v-190h113q92 0 143 61.5z" />
    <glyph glyph-name="dcroat" unicode="&#x111;" horiz-adv-x="672" 
d="M670 625h-81v-625h-114l-15 43q-71 -56 -161 -56q-76 0 -134 33t-90.5 98.5t-32.5 158.5q0 154 85.5 225t227.5 71q48 0 81 -9v61h-161v108h161v67h153v-67h81v-108zM230 139q33 -41 85 -41q36 0 64.5 8.5t56.5 27.5v319q-32 9 -72 9q-167 0 -167 -185q0 -97 33 -138z
" />
    <glyph glyph-name="Emacron" unicode="&#x112;" horiz-adv-x="597" 
d="M95 0zM545 111v-111h-450v680h430v-111h-272v-154h232v-111h-232v-193h292zM125 881h379v-108h-379v108z" />
    <glyph glyph-name="emacron" unicode="&#x113;" horiz-adv-x="601" 
d="M42 0zM418 115q40 18 86 53l44 -97q-50 -43 -101.5 -63.5t-116.5 -20.5q-96 0 -160.5 38.5t-96 104t-31.5 149.5q0 86 32 152.5t96.5 104t159.5 37.5q109 0 168.5 -60t60.5 -169q0 -40 -12 -81h-354q3 -82 36 -124t101 -42q48 0 88 18zM201 363h209q1 5 1 14
q-1 45 -25.5 69t-64.5 24q-95 0 -120 -107zM129 815h379v-108h-379v108z" />
    <glyph glyph-name="Edotaccent" unicode="&#x116;" horiz-adv-x="597" 
d="M95 0zM545 111v-111h-450v680h430v-111h-272v-154h232v-111h-232v-193h292zM261 769q-22 22 -22 53t22 53t53 22t53.5 -22t22.5 -53t-22.5 -53t-53.5 -22t-53 22z" />
    <glyph glyph-name="edotaccent" unicode="&#x117;" horiz-adv-x="601" 
d="M42 0zM418 115q40 18 86 53l44 -97q-50 -43 -101.5 -63.5t-116.5 -20.5q-96 0 -160.5 38.5t-96 104t-31.5 149.5q0 86 32 152.5t96.5 104t159.5 37.5q109 0 168.5 -60t60.5 -169q0 -40 -12 -81h-354q3 -82 36 -124t101 -42q48 0 88 18zM201 363h209q1 5 1 14
q-1 45 -25.5 69t-64.5 24q-95 0 -120 -107zM260.5 681.5q-24.5 24.5 -24.5 57.5t24.5 57.5t57.5 24.5t57.5 -24.5t24.5 -57.5t-24.5 -57.5t-57.5 -24.5t-57.5 24.5z" />
    <glyph glyph-name="Eogonek" unicode="&#x118;" horiz-adv-x="597" 
d="M95 0zM545 111v-111h-450v680h430v-111h-272v-154h232v-111h-232v-193h292zM310 -238.5q-35 30.5 -35 83.5q0 43 28 89t77 81h121q-105 -84 -105 -139q0 -17 10 -26t27 -9q31 0 68 32l41 -83q-20 -23 -58.5 -41t-79.5 -18q-59 0 -94 30.5z" />
    <glyph glyph-name="eogonek" unicode="&#x119;" horiz-adv-x="601" 
d="M359 -124q0 -17 10 -26t27 -9q31 0 68 32l41 -83q-20 -23 -58.5 -41t-79.5 -18q-59 0 -94 30.5t-35 83.5q0 35 18.5 72.5t52.5 69.5q-88 4 -148 43.5t-89.5 104t-29.5 144.5q0 86 32 152.5t96.5 104t159.5 37.5q109 0 168.5 -60t60.5 -169q0 -40 -12 -81h-354
q3 -82 36 -124t101 -42q48 0 88 18t86 53l44 -97q-41 -35 -84 -56q-105 -84 -105 -139zM201 363h209q1 5 1 14q-1 45 -25.5 69t-64.5 24q-95 0 -120 -107z" />
    <glyph glyph-name="Ecaron" unicode="&#x11a;" horiz-adv-x="597" 
d="M95 0zM545 111v-111h-450v680h430v-111h-272v-154h232v-111h-232v-193h292zM531 907l-143 -167h-148l-143 167h144l73 -94l73 94h144z" />
    <glyph glyph-name="ecaron" unicode="&#x11b;" horiz-adv-x="601" 
d="M42 0zM418 115q40 18 86 53l44 -97q-50 -43 -101.5 -63.5t-116.5 -20.5q-96 0 -160.5 38.5t-96 104t-31.5 149.5q0 86 32 152.5t96.5 104t159.5 37.5q109 0 168.5 -60t60.5 -169q0 -40 -12 -81h-354q3 -82 36 -124t101 -42q48 0 88 18zM201 363h209q1 5 1 14
q-1 45 -25.5 69t-64.5 24q-95 0 -120 -107zM507 833l-114 -210h-151l-113 210h118l71 -117l70 117h119z" />
    <glyph glyph-name="Gbreve" unicode="&#x11e;" horiz-adv-x="712" 
d="M48 0zM660 332v-296q-47 -22 -110 -35.5t-131 -13.5q-121 0 -204.5 48.5t-125 129t-41.5 176.5q0 95 43.5 175t129.5 128t208 48q61 0 115 -14.5t94 -40.5l-37 -110q-75 50 -172 50q-70 0 -120.5 -31.5t-76.5 -85t-26 -120.5q0 -105 55.5 -171.5t157.5 -66.5q41 0 88 7
v223h153zM277.5 783.5q-49.5 46.5 -51.5 127.5l111 1q2 -37 22.5 -55.5t54.5 -18.5t54 18.5t22 55.5l111 -2q-2 -81 -51.5 -127t-135.5 -46q-87 0 -136.5 46.5z" />
    <glyph glyph-name="gbreve" unicode="&#x11f;" horiz-adv-x="612" 
d="M28 0zM607 450l-102 13q17 -37 17 -76q0 -50 -25.5 -93t-77.5 -69t-126 -26q-22 0 -56 4q-30 -27 -30 -50q0 -18 11.5 -26t40.5 -8h155q87 0 136 -37t49 -101q0 -63 -43 -115t-118.5 -82.5t-167.5 -30.5q-127 0 -184.5 44t-57.5 106q0 37 21.5 67.5t62.5 61.5
q-28 15 -41.5 37.5t-13.5 47.5q0 30 21 59.5t67 61.5q-39 26 -59.5 64.5t-20.5 82.5q0 51 25.5 93.5t77 68.5t125.5 26q49 0 93 -13h221v-110zM352.5 324q22.5 22 22.5 62t-22 62t-60 22t-60 -22t-22 -62t22.5 -62t59.5 -22t59.5 22zM379 7h-144h-13q-48 -48 -48 -92
q0 -51 96 -51q51 0 93 14t66 36t24 44q0 49 -74 49zM175.5 677q-46.5 51 -48.5 151l103 2q2 -51 22 -77t54 -26q35 0 55 26t22 78l103 -3q-2 -100 -49 -151t-131 -51t-130.5 51z" />
    <glyph glyph-name="Gcommaaccent" unicode="&#x122;" horiz-adv-x="712" 
d="M48 0zM660 332v-296q-47 -22 -110 -35.5t-131 -13.5q-121 0 -204.5 48.5t-125 129t-41.5 176.5q0 95 43.5 175t129.5 128t208 48q61 0 115 -14.5t94 -40.5l-37 -110q-75 50 -172 50q-70 0 -120.5 -31.5t-76.5 -85t-26 -120.5q0 -105 55.5 -171.5t157.5 -66.5q41 0 88 7
v223h153zM327 -191q42 3 58.5 15t16.5 32q0 33 -50 36l31 74q69 -7 100.5 -35.5t31.5 -68.5q0 -51 -43.5 -84.5t-121.5 -37.5z" />
    <glyph glyph-name="gcommaaccent" unicode="&#x123;" horiz-adv-x="612" 
d="M28 0zM607 450l-102 13q17 -37 17 -76q0 -50 -25.5 -93t-77.5 -69t-126 -26q-22 0 -56 4q-30 -27 -30 -50q0 -18 11.5 -26t40.5 -8h155q87 0 136 -37t49 -101q0 -63 -43 -115t-118.5 -82.5t-167.5 -30.5q-127 0 -184.5 44t-57.5 106q0 37 21.5 67.5t62.5 61.5
q-28 15 -41.5 37.5t-13.5 47.5q0 30 21 59.5t67 61.5q-39 26 -59.5 64.5t-20.5 82.5q0 51 25.5 93.5t77 68.5t125.5 26q49 0 93 -13h221v-110zM352.5 324q22.5 22 22.5 62t-22 62t-60 22t-60 -22t-22 -62t22.5 -62t59.5 -22t59.5 22zM379 7h-144h-13q-48 -48 -48 -92
q0 -51 96 -51q51 0 93 14t66 36t24 44q0 49 -74 49zM246.5 661.5q-31.5 28.5 -31.5 68.5q0 51 44 84.5t121 37.5l23 -69q-42 -4 -58.5 -15.5t-16.5 -31.5q0 -33 50 -36l-31 -74q-69 7 -100.5 35.5z" />
    <glyph glyph-name="Hbar" unicode="&#x126;" horiz-adv-x="808" 
d="M805 497h-93v-497h-158v303h-301v-303h-158v497h-92v108h92v75h158v-75h301v75h158v-75h93v-108zM554 497h-301v-81h301v81z" />
    <glyph glyph-name="hbar" unicode="&#x127;" horiz-adv-x="667" 
d="M549 517.5q40 -55.5 40 -161.5v-356h-153v338q0 68 -17.5 95t-64.5 27q-57 0 -117 -42v-418h-153v625h-82v108h82v67h153v-67h160v-108h-160v-101q85 49 166 49q106 0 146 -55.5z" />
    <glyph glyph-name="Itilde" unicode="&#x128;" horiz-adv-x="349" 
d="M0 0zM95 680h158v-680h-158v680zM-18 738q5 78 37 123t82 45q21 0 39 -8t40 -22q21 -12 33.5 -18t25.5 -6q15 0 25.5 14.5t17.5 47.5l84 -4q-5 -73 -38 -120.5t-81 -47.5q-22 0 -40 7.5t-45 23.5q-19 12 -30.5 17.5t-22.5 5.5q-15 0 -25.5 -14.5t-17.5 -47.5z" />
    <glyph glyph-name="itilde" unicode="&#x129;" horiz-adv-x="323" 
d="M0 0zM85 560h153v-560h-153v560zM-30 659q5 78 37 123t82 45q21 0 39 -8t40 -22q21 -13 33.5 -18.5t25.5 -5.5q15 0 25.5 14.5t17.5 47.5l84 -4q-5 -73 -38 -120.5t-81 -47.5q-22 0 -40 7.5t-45 23.5q-19 12 -30.5 17.5t-22.5 5.5q-15 0 -25.5 -14.5t-17.5 -47.5z" />
    <glyph glyph-name="Imacron" unicode="&#x12a;" horiz-adv-x="349" 
d="M0 0zM95 680h158v-680h-158v680zM-15 881h379v-108h-379v108z" />
    <glyph glyph-name="imacron" unicode="&#x12b;" horiz-adv-x="323" 
d="M0 0zM85 560h153v-560h-153v560zM-27 815h379v-108h-379v108z" />
    <glyph glyph-name="Iogonek" unicode="&#x12e;" horiz-adv-x="349" 
d="M273 -210q-20 -23 -58.5 -41t-79.5 -18q-59 0 -94 30.5t-35 83.5q0 39 23.5 81.5t65.5 76.5v677h158v-680h-39q-87 -75 -87 -124q0 -17 10 -26t27 -9q31 0 68 32z" />
    <glyph glyph-name="iogonek" unicode="&#x12f;" horiz-adv-x="323" 
d="M98 684q-26 26 -26 63t26 63t63 26t63.5 -26t26.5 -63t-26.5 -63t-63.5 -26t-63 26zM85 560h153v-560h-59q-87 -75 -87 -124q0 -17 10 -26t27 -9q31 0 68 32l41 -83q-20 -23 -58.5 -41t-79.5 -18q-59 0 -94 30.5t-35 83.5q0 43 28 89t77 81h9v545z" />
    <glyph glyph-name="Idotaccent" unicode="&#x130;" horiz-adv-x="349" 
d="M95 0zM95 680h158v-680h-158v680zM121 769q-22 22 -22 53t22 53t53 22t53.5 -22t22.5 -53t-22.5 -53t-53.5 -22t-53 22z" />
    <glyph glyph-name="dotlessi" unicode="&#x131;" horiz-adv-x="323" 
d="M85 560h153v-560h-153v560z" />
    <glyph glyph-name="IJ" unicode="&#x132;" horiz-adv-x="697" 
d="M95 0zM95 680h158v-680h-158v680zM285 -232l11 112q35 -5 60 -5q46 0 67 28t21 86v691h158v-693q0 -110 -54.5 -168.5t-165.5 -58.5q-39 0 -97 8z" />
    <glyph glyph-name="ij" unicode="&#x133;" horiz-adv-x="643" 
d="M72 0zM98 684q-26 26 -26 63t26 63t63 26t63.5 -26t26.5 -63t-26.5 -63t-63.5 -26t-63 26zM85 560h153v-560h-153v560zM420 684q-26 26 -26 63t26 63t63 26t63.5 -26t26.5 -63t-26.5 -63t-63.5 -26t-63 26zM244 -232l11 108q37 -5 62 -5q89 0 89 110v579h153v-581
q0 -106 -54 -162.5t-164 -56.5q-39 0 -97 8z" />
    <glyph glyph-name="Jcircumflex" unicode="&#x134;" horiz-adv-x="349" 
d="M0 0zM-64 -232l11 112q35 -5 60 -5q46 0 67 28t21 86v691h158v-693q0 -110 -54.5 -168.5t-165.5 -58.5q-39 0 -97 8zM247 740l-73 94l-73 -94h-144l143 167h148l143 -167h-144z" />
    <glyph glyph-name="jcircumflex" unicode="&#x135;" horiz-adv-x="320" 
d="M0 0zM-79 -232l11 108q37 -5 62 -5q89 0 89 110v579h153v-581q0 -106 -54 -162.5t-164 -56.5q-39 0 -97 8zM230 623l-70 117l-71 -117h-118l113 210h151l114 -210h-119z" />
    <glyph glyph-name="Kcommaaccent" unicode="&#x136;" horiz-adv-x="725" 
d="M95 0zM523 0l-270 352v-352h-158v680h158v-303l250 303h182l-278 -313l307 -367h-191zM287 -191q42 3 58.5 15t16.5 32q0 33 -50 36l31 74q69 -7 100.5 -35.5t31.5 -68.5q0 -51 -43.5 -84.5t-121.5 -37.5z" />
    <glyph glyph-name="kcommaaccent" unicode="&#x137;" horiz-adv-x="621" 
d="M84 0zM443 0l-206 291v-291h-153v800h153v-481l180 241h157l-196 -255l233 -305h-168zM247 -191q42 3 58.5 15t16.5 32q0 33 -50 36l31 74q69 -7 100.5 -35.5t31.5 -68.5q0 -51 -43.5 -84.5t-121.5 -37.5z" />
    <glyph glyph-name="kgreenlandic" unicode="&#x138;" horiz-adv-x="637" 
d="M443 0l-206 291v-291h-153v560h153v-241l180 241h157l-196 -255l233 -305h-168z" />
    <glyph glyph-name="Lacute" unicode="&#x139;" horiz-adv-x="561" 
d="M95 0zM545 111v-111h-450v680h158v-569h292zM241 907h162l-170 -167h-129z" />
    <glyph glyph-name="lacute" unicode="&#x13a;" horiz-adv-x="320" 
d="M84 0zM84 800h153v-800h-153v800zM184 1032h164l-143 -212h-118z" />
    <glyph glyph-name="Lcommaaccent" unicode="&#x13b;" horiz-adv-x="561" 
d="M95 0zM545 111v-111h-450v680h158v-569h292zM240 -191q42 3 58.5 15t16.5 32q0 33 -50 36l31 74q69 -7 100.5 -35.5t31.5 -68.5q0 -51 -43.5 -84.5t-121.5 -37.5z" />
    <glyph glyph-name="lcommaaccent" unicode="&#x13c;" horiz-adv-x="320" 
d="M68 0zM84 800h153v-800h-153v800zM68 -191q42 3 58.5 15t16.5 32q0 33 -50 36l31 74q69 -7 100.5 -35.5t31.5 -68.5q0 -51 -43.5 -84.5t-121.5 -37.5z" />
    <glyph glyph-name="Lcaron" unicode="&#x13d;" horiz-adv-x="561" 
d="M95 0zM545 111v-111h-450v680h158v-569h292zM332 460q26 25 38 53.5t12 65.5q0 49 -25 101h136q13 -46 13 -87q0 -60 -37.5 -109.5t-93.5 -79.5z" />
    <glyph glyph-name="lcaron" unicode="&#x13e;" horiz-adv-x="320" 
d="M84 0zM84 800h153v-800h-153v800zM285 580q26 25 38 53.5t12 65.5q0 49 -25 101h136q13 -46 13 -87q0 -60 -37.5 -109.5t-93.5 -79.5z" />
    <glyph glyph-name="Ldot" unicode="&#x13f;" horiz-adv-x="561" 
d="M95 0zM545 111v-111h-450v680h158v-569h292zM377.5 297.5q-27.5 27.5 -27.5 66.5t27.5 66.5t66.5 27.5t66.5 -27.5t27.5 -66.5t-27.5 -66.5t-66.5 -27.5t-66.5 27.5z" />
    <glyph glyph-name="ldot" unicode="&#x140;" horiz-adv-x="320" 
d="M386.5 330.5q27.5 -27.5 27.5 -66.5t-27.5 -66.5t-66.5 -27.5q-27 0 -49 13.5t-34 36.5v-220h-153v800h153v-492q12 23 34 36.5t49 13.5q39 0 66.5 -27.5z" />
    <glyph glyph-name="Lslash" unicode="&#x141;" horiz-adv-x="561" 
d="M545 111v-111h-450v183l-49 -31l-59 94l108 68v366h158v-266l162 102l59 -93l-221 -140v-172h292z" />
    <glyph glyph-name="lslash" unicode="&#x142;" horiz-adv-x="320" 
d="M237 409v-409h-153v299l-55 -39l-64 87l119 85v368h153v-259l54 39l64 -86z" />
    <glyph glyph-name="Nacute" unicode="&#x143;" horiz-adv-x="808" 
d="M95 0zM712 680v-680l-141 -1l-330 454l12 -226v-227h-158v680h142l329 -451l-12 230v221h158zM468 907h162l-170 -167h-129z" />
    <glyph glyph-name="nacute" unicode="&#x144;" horiz-adv-x="667" 
d="M84 0zM548 517.5q40 -55.5 40 -161.5v-356h-153v338q0 68 -17.5 95t-64.5 27q-56 0 -116 -42v-418h-153v560h114l17 -49q97 62 187 62q106 0 146 -55.5zM361 835h164l-143 -212h-118z" />
    <glyph glyph-name="Ncommaaccent" unicode="&#x145;" horiz-adv-x="808" 
d="M95 0zM712 680v-680l-141 -1l-330 454l12 -226v-227h-158v680h142l329 -451l-12 230v221h158zM311 -191q42 3 58.5 15t16.5 32q0 33 -50 36l31 74q69 -7 100.5 -35.5t31.5 -68.5q0 -51 -43.5 -84.5t-121.5 -37.5z" />
    <glyph glyph-name="ncommaaccent" unicode="&#x146;" horiz-adv-x="667" 
d="M84 0zM548 517.5q40 -55.5 40 -161.5v-356h-153v338q0 68 -17.5 95t-64.5 27q-56 0 -116 -42v-418h-153v560h114l17 -49q97 62 187 62q106 0 146 -55.5zM245 -191q42 3 58.5 15t16.5 32q0 33 -50 36l31 74q69 -7 100.5 -35.5t31.5 -68.5q0 -51 -43.5 -84.5t-121.5 -37.5z
" />
    <glyph glyph-name="Ncaron" unicode="&#x147;" horiz-adv-x="808" 
d="M95 0zM712 680v-680l-141 -1l-330 454l12 -226v-227h-158v680h142l329 -451l-12 230v221h158zM620 907l-143 -167h-148l-143 167h144l73 -94l73 94h144z" />
    <glyph glyph-name="ncaron" unicode="&#x148;" horiz-adv-x="667" 
d="M84 0zM548 517.5q40 -55.5 40 -161.5v-356h-153v338q0 68 -17.5 95t-64.5 27q-56 0 -116 -42v-418h-153v560h114l17 -49q97 62 187 62q106 0 146 -55.5zM526 833l-114 -210h-151l-113 210h118l71 -117l70 117h119z" />
    <glyph glyph-name="Omacron" unicode="&#x14c;" horiz-adv-x="815" 
d="M48 0zM212.5 34.5q-81.5 47.5 -123 127.5t-41.5 178q0 97 41.5 177t123 127.5t195.5 47.5t195.5 -47.5t123 -127.5t41.5 -177q0 -98 -41.5 -178.5t-122.5 -127.5t-196 -47q-114 0 -195.5 47.5zM517 133q46 31 69.5 85t23.5 122t-23.5 121.5t-69.5 84.5t-109 31t-109 -31
t-69.5 -84.5t-23.5 -121.5t23.5 -122t69.5 -85t109 -31t109 31zM219 881h379v-108h-379v108z" />
    <glyph glyph-name="omacron" unicode="&#x14d;" horiz-adv-x="660" 
d="M42 0zM171 25q-65 38 -97 104t-32 150q0 86 32 152.5t97 104t159 37.5t159 -40t97.5 -106.5t32.5 -145.5t-32.5 -146t-97.5 -107.5t-159 -40.5t-159 38zM464 280q0 182 -133 182q-134 0 -134 -182q0 -183 134 -183q133 0 133 183zM141 815h379v-108h-379v108z" />
    <glyph glyph-name="Ohungarumlaut" unicode="&#x150;" horiz-adv-x="815" 
d="M48 0zM212.5 34.5q-81.5 47.5 -123 127.5t-41.5 178q0 97 41.5 177t123 127.5t195.5 47.5t195.5 -47.5t123 -127.5t41.5 -177q0 -98 -41.5 -178.5t-122.5 -127.5t-196 -47q-114 0 -195.5 47.5zM517 133q46 31 69.5 85t23.5 122t-23.5 121.5t-69.5 84.5t-109 31t-109 -31
t-69.5 -84.5t-23.5 -121.5t23.5 -122t69.5 -85t109 -31t109 31zM385 907h145l-169 -167h-113zM589 907h145l-169 -167h-113z" />
    <glyph glyph-name="ohungarumlaut" unicode="&#x151;" horiz-adv-x="660" 
d="M42 0zM171 25q-65 38 -97 104t-32 150q0 86 32 152.5t97 104t159 37.5t159 -40t97.5 -106.5t32.5 -145.5t-32.5 -146t-97.5 -107.5t-159 -40.5t-159 38zM464 280q0 182 -133 182q-134 0 -134 -182q0 -183 134 -183q133 0 133 183zM274 835h139l-143 -212h-93zM474 835
h139l-143 -212h-93z" />
    <glyph glyph-name="OE" unicode="&#x152;" horiz-adv-x="1015" 
d="M963 111v-111h-562q-113 0 -192.5 44t-120 121t-40.5 174q0 99 40.5 176.5t120 121t192.5 43.5h542v-111h-272v-154h232v-111h-232v-193h292zM513 113v454h-112q-92 0 -143.5 -61.5t-51.5 -165.5q0 -103 51.5 -165t143.5 -62h112z" />
    <glyph glyph-name="oe" unicode="&#x153;" horiz-adv-x="1023" 
d="M839 115q40 18 87 53l44 -97q-51 -43 -102 -63.5t-116 -20.5q-139 0 -215 82q-79 -82 -207 -82q-94 0 -159 38t-97 104t-32 150q0 86 33 152.5t97.5 104t157.5 37.5q128 0 207 -81q75 81 215 81q109 0 168.5 -60t60.5 -169q0 -40 -12 -81h-354q3 -82 36 -124t101 -42
q47 0 87 18zM623 363h209q1 5 1 14q-1 45 -25.5 69t-64.5 24q-95 0 -120 -107zM464 280q0 182 -133 182q-134 0 -134 -182q0 -183 134 -183q133 0 133 183z" />
    <glyph glyph-name="Racute" unicode="&#x154;" horiz-adv-x="727" 
d="M95 0zM357 262h-104v-262h-158v680h261q139 0 204 -49.5t65 -150.5q0 -142 -114 -186l198 -294h-182zM253 373h103q58 0 84.5 24t26.5 74t-26.5 74t-84.5 24h-103v-196zM404 907h162l-170 -167h-129z" />
    <glyph glyph-name="racute" unicode="&#x155;" horiz-adv-x="454" 
d="M84 0zM425 426q-51 0 -93.5 -8t-94.5 -32v-386h-153v560h114l24 -68q52 44 100.5 62t102.5 18v-146zM272 835h164l-143 -212h-118z" />
    <glyph glyph-name="Rcommaaccent" unicode="&#x156;" horiz-adv-x="727" 
d="M95 0zM357 262h-104v-262h-158v680h261q139 0 204 -49.5t65 -150.5q0 -142 -114 -186l198 -294h-182zM253 373h103q58 0 84.5 24t26.5 74t-26.5 74t-84.5 24h-103v-196zM277 -191q42 3 58.5 15t16.5 32q0 33 -50 36l31 74q69 -7 100.5 -35.5t31.5 -68.5
q0 -51 -43.5 -84.5t-121.5 -37.5z" />
    <glyph glyph-name="rcommaaccent" unicode="&#x157;" horiz-adv-x="454" 
d="M67 0zM425 426q-51 0 -93.5 -8t-94.5 -32v-386h-153v560h114l24 -68q52 44 100.5 62t102.5 18v-146zM67 -191q42 3 58.5 15t16.5 32q0 33 -50 36l31 74q69 -7 100.5 -35.5t31.5 -68.5q0 -51 -43.5 -84.5t-121.5 -37.5z" />
    <glyph glyph-name="Rcaron" unicode="&#x158;" horiz-adv-x="727" 
d="M95 0zM357 262h-104v-262h-158v680h261q139 0 204 -49.5t65 -150.5q0 -142 -114 -186l198 -294h-182zM253 373h103q58 0 84.5 24t26.5 74t-26.5 74t-84.5 24h-103v-196zM556 907l-143 -167h-148l-143 167h144l73 -94l73 94h144z" />
    <glyph glyph-name="rcaron" unicode="&#x159;" horiz-adv-x="454" 
d="M59 0zM425 426q-51 0 -93.5 -8t-94.5 -32v-386h-153v560h114l24 -68q52 44 100.5 62t102.5 18v-146zM437 833l-114 -210h-151l-113 210h118l71 -117l70 117h119z" />
    <glyph glyph-name="Sacute" unicode="&#x15a;" horiz-adv-x="608" 
d="M42 0zM148 0.5q-61 13.5 -106 37.5l33 109q53 -23 100.5 -34t99.5 -11q57 0 96 21.5t39 61.5q0 26 -18.5 45t-46 31.5t-76.5 30.5q-65 24 -106 45t-70 57.5t-29 91.5q0 98 73.5 152t197.5 54q55 0 107.5 -13t94.5 -37l-34 -108q-88 43 -163 43q-55 0 -88.5 -21t-33.5 -60
q0 -33 32 -53t102 -46q67 -25 109.5 -46.5t73 -59.5t30.5 -96q0 -98 -75 -153t-213 -55q-68 0 -129 13.5zM384 907h162l-170 -167h-129z" />
    <glyph glyph-name="sacute" unicode="&#x15b;" horiz-adv-x="534" 
d="M42 0zM133 -2q-52 11 -91 29l31 106q89 -36 166 -36q46 0 74.5 14.5t28.5 44.5q0 25 -26.5 41t-83.5 36q-56 20 -91 37.5t-60.5 48t-25.5 75.5q0 88 64 133.5t174 45.5q46 0 93 -9.5t83 -26.5l-32 -107q-72 32 -140 32q-43 0 -67 -12.5t-24 -37.5t25 -39.5t79 -32.5
q56 -18 93 -36t63.5 -52t26.5 -86q0 -84 -65 -131.5t-187 -47.5q-56 0 -108 11zM303 835h164l-143 -212h-118z" />
    <glyph glyph-name="Scedilla" unicode="&#x15e;" horiz-adv-x="608" 
d="M511.5 60q-53.5 -53 -154.5 -68l-22 -39q39 -3 64.5 -25.5t25.5 -55.5q0 -43 -42.5 -77.5t-135.5 -37.5l-21 68q50 4 68 14t18 26q0 11 -9 17.5t-24 6.5t-29 -6l-31 40l35 64q-61 2 -116 15.5t-96 35.5l33 109q53 -23 100.5 -34t99.5 -11q57 0 96 21.5t39 61.5
q0 26 -18.5 45t-46 31.5t-76.5 30.5q-65 24 -106 45t-70 57.5t-29 91.5q0 98 73.5 152t197.5 54q55 0 107.5 -13t94.5 -37l-34 -108q-88 43 -163 43q-55 0 -88.5 -21t-33.5 -60q0 -33 32 -53t102 -46q67 -25 109.5 -46.5t73 -59.5t30.5 -96q0 -82 -53.5 -135z" />
    <glyph glyph-name="scedilla" unicode="&#x15f;" horiz-adv-x="534" 
d="M441.5 45q-51.5 -46 -150.5 -56l-20 -36q39 -3 64.5 -25.5t25.5 -55.5q0 -43 -42.5 -77.5t-135.5 -37.5l-21 68q50 4 68 14t18 26q0 11 -9 17.5t-24 6.5t-29 -6l-31 40l36 66q-86 9 -149 38l31 106q89 -36 166 -36q46 0 74.5 14.5t28.5 44.5q0 25 -26.5 41t-83.5 36
q-56 20 -91 37.5t-60.5 48t-25.5 75.5q0 88 64 133.5t174 45.5q46 0 93 -9.5t83 -26.5l-32 -107q-72 32 -140 32q-43 0 -67 -12.5t-24 -37.5t25 -39.5t79 -32.5q56 -18 93 -36t63.5 -52t26.5 -86q0 -75 -51.5 -121z" />
    <glyph glyph-name="Scaron" unicode="&#x160;" horiz-adv-x="608" 
d="M42 0zM148 0.5q-61 13.5 -106 37.5l33 109q53 -23 100.5 -34t99.5 -11q57 0 96 21.5t39 61.5q0 26 -18.5 45t-46 31.5t-76.5 30.5q-65 24 -106 45t-70 57.5t-29 91.5q0 98 73.5 152t197.5 54q55 0 107.5 -13t94.5 -37l-34 -108q-88 43 -163 43q-55 0 -88.5 -21t-33.5 -60
q0 -33 32 -53t102 -46q67 -25 109.5 -46.5t73 -59.5t30.5 -96q0 -98 -75 -153t-213 -55q-68 0 -129 13.5zM536 907l-143 -167h-148l-143 167h144l73 -94l73 94h144z" />
    <glyph glyph-name="scaron" unicode="&#x161;" horiz-adv-x="534" 
d="M42 0zM133 -2q-52 11 -91 29l31 106q89 -36 166 -36q46 0 74.5 14.5t28.5 44.5q0 25 -26.5 41t-83.5 36q-56 20 -91 37.5t-60.5 48t-25.5 75.5q0 88 64 133.5t174 45.5q46 0 93 -9.5t83 -26.5l-32 -107q-72 32 -140 32q-43 0 -67 -12.5t-24 -37.5t25 -39.5t79 -32.5
q56 -18 93 -36t63.5 -52t26.5 -86q0 -84 -65 -131.5t-187 -47.5q-56 0 -108 11zM468 833l-114 -210h-151l-113 210h118l71 -117l70 117h119z" />
    <glyph glyph-name="Tcaron" unicode="&#x164;" horiz-adv-x="597" 
d="M24 0zM574 567h-197v-567h-158v567h-195v113h550v-113zM516 907l-143 -167h-148l-143 167h144l73 -94l73 94h144z" />
    <glyph glyph-name="tcaron" unicode="&#x165;" horiz-adv-x="470" 
d="M19 0zM446 33q-30 -21 -68 -31t-75 -10q-101 0 -150 46.5t-49 133.5v278h-85v65l103 39l43 147h92v-141h160v-110h-160v-243q0 -56 17.5 -80t54.5 -24q45 0 92 26zM297 657q26 25 38 53.5t12 65.5q0 49 -25 101h136q13 -46 13 -87q0 -60 -37.5 -109.5t-93.5 -79.5z" />
    <glyph glyph-name="Umacron" unicode="&#x16a;" horiz-adv-x="788" 
d="M85 0zM164.5 62q-79.5 75 -79.5 206v412h158v-411q0 -167 151 -167q150 0 150 167v411h158v-410q0 -132 -79 -207.5t-229 -75.5t-229.5 75zM205 881h379v-108h-379v108z" />
    <glyph glyph-name="umacron" unicode="&#x16b;" horiz-adv-x="667" 
d="M79 0zM584 560v-560h-114l-17 48q-95 -61 -188 -61q-106 0 -146 55.5t-40 160.5v357h153v-338q0 -69 17.5 -96t64.5 -27q56 0 117 43v418h153zM140 815h379v-108h-379v108z" />
    <glyph glyph-name="Uring" unicode="&#x16e;" horiz-adv-x="788" 
d="M85 0zM164.5 62q-79.5 75 -79.5 206v412h158v-411q0 -167 151 -167q150 0 150 167v411h158v-410q0 -132 -79 -207.5t-229 -75.5t-229.5 75zM289.5 761.5q-37.5 29.5 -37.5 75.5t37.5 75t104.5 29t104.5 -29t37.5 -75t-37.5 -75.5t-104.5 -29.5t-104.5 29.5zM436 837
q0 16 -11 25t-31 9t-31.5 -9t-11.5 -25q0 -17 11.5 -26t31.5 -9q42 0 42 35z" />
    <glyph glyph-name="uring" unicode="&#x16f;" horiz-adv-x="667" 
d="M79 0zM584 560v-560h-114l-17 48q-95 -61 -188 -61q-106 0 -146 55.5t-40 160.5v357h153v-338q0 -69 17.5 -96t64.5 -27q56 0 117 43v418h153zM251 635q-33 17 -49.5 44t-16.5 58t16.5 58t49.5 43.5t78 16.5t77.5 -16.5t49 -44t16.5 -57.5q0 -31 -16.5 -58t-49 -44
t-77.5 -17t-78 17zM365.5 699.5q13.5 14.5 13.5 37.5q0 22 -13.5 36.5t-36.5 14.5t-36.5 -14.5t-13.5 -36.5q0 -23 13.5 -37.5t36.5 -14.5t36.5 14.5z" />
    <glyph glyph-name="Uhungarumlaut" unicode="&#x170;" horiz-adv-x="788" 
d="M85 0zM164.5 62q-79.5 75 -79.5 206v412h158v-411q0 -167 151 -167q150 0 150 167v411h158v-410q0 -132 -79 -207.5t-229 -75.5t-229.5 75zM372 907h145l-169 -167h-113zM576 907h145l-169 -167h-113z" />
    <glyph glyph-name="uhungarumlaut" unicode="&#x171;" horiz-adv-x="667" 
d="M79 0zM584 560v-560h-114l-17 48q-95 -61 -188 -61q-106 0 -146 55.5t-40 160.5v357h153v-338q0 -69 17.5 -96t64.5 -27q56 0 117 43v418h153zM273 835h139l-143 -212h-93zM473 835h139l-143 -212h-93z" />
    <glyph glyph-name="Uogonek" unicode="&#x172;" horiz-adv-x="788" 
d="M702 680v-410q0 -101 -47 -170t-138 -97q-91 -76 -91 -127q0 -17 10 -26t27 -9q31 0 68 32l41 -83q-20 -23 -58.5 -41t-79.5 -18q-59 0 -94 30.5t-35 83.5q0 35 18.5 72.5t52.5 69.5q-142 5 -216.5 79.5t-74.5 201.5v412h158v-411q0 -167 151 -167q150 0 150 167v411h158
z" />
    <glyph glyph-name="uogonek" unicode="&#x173;" horiz-adv-x="667" 
d="M626 -210q-20 -23 -58.5 -41t-79.5 -18q-59 0 -94 30.5t-35 83.5q0 43 28 89t77 81h1l-12 33q-95 -61 -188 -61q-106 0 -146 55.5t-40 160.5v357h153v-338q0 -69 17.5 -96t64.5 -27q56 0 117 43v418h153v-545h1l-1 -1v-14h-17q-87 -75 -87 -124q0 -17 10 -26t27 -9
q31 0 68 32z" />
    <glyph glyph-name="Ydieresis" unicode="&#x178;" horiz-adv-x="681" 
d="M10 0zM419 275v-275h-158v272l-251 408h167l163 -293l165 293h165zM165 769.5q-22 22.5 -22 52.5q0 31 22 53.5t53 22.5t53.5 -22.5t22.5 -53.5q0 -30 -22.5 -52.5t-53.5 -22.5t-53 22.5zM409 769.5q-22 22.5 -22 52.5q0 31 22 53.5t53 22.5t53.5 -22.5t22.5 -53.5
q0 -30 -22.5 -52.5t-53.5 -22.5t-53 22.5z" />
    <glyph glyph-name="Zacute" unicode="&#x179;" horiz-adv-x="698" 
d="M55 0zM663 113v-113h-608v87l394 480h-381v113h581v-95l-392 -472h406zM425 907h162l-170 -167h-129z" />
    <glyph glyph-name="zacute" unicode="&#x17a;" horiz-adv-x="546" 
d="M29 0zM512 109v-109h-483v83l298 367h-284v110h459v-85l-297 -366h307zM301 835h164l-143 -212h-118z" />
    <glyph glyph-name="Zdotaccent" unicode="&#x17b;" horiz-adv-x="698" 
d="M55 0zM663 113v-113h-608v87l394 480h-381v113h581v-95l-392 -472h406zM307 769q-22 22 -22 53t22 53t53 22t53.5 -22t22.5 -53t-22.5 -53t-53.5 -22t-53 22z" />
    <glyph glyph-name="zdotaccent" unicode="&#x17c;" horiz-adv-x="546" 
d="M29 0zM512 109v-109h-483v83l298 367h-284v110h459v-85l-297 -366h307zM219.5 681.5q-24.5 24.5 -24.5 57.5t24.5 57.5t57.5 24.5t57.5 -24.5t24.5 -57.5t-24.5 -57.5t-57.5 -24.5t-57.5 24.5z" />
    <glyph glyph-name="Zcaron" unicode="&#x17d;" horiz-adv-x="698" 
d="M55 0zM663 113v-113h-608v87l394 480h-381v113h581v-95l-392 -472h406zM577 907l-143 -167h-148l-143 167h144l73 -94l73 94h144z" />
    <glyph glyph-name="zcaron" unicode="&#x17e;" horiz-adv-x="546" 
d="M29 0zM512 109v-109h-483v83l298 367h-284v110h459v-85l-297 -366h307zM466 833l-114 -210h-151l-113 210h118l71 -117l70 117h119z" />
    <glyph glyph-name="florin" unicode="&#x192;" 
d="M373 455h170v-108h-178l-42 -520h-152l42 520h-99v108h107l2 21q11 136 72.5 193.5t168.5 57.5q43 0 96 -12l-34 -103q-27 5 -45 5q-52 0 -76 -32.5t-30 -110.5z" />
    <glyph glyph-name="Scommaaccent" unicode="&#x218;" horiz-adv-x="608" 
d="M42 0zM148 0.5q-61 13.5 -106 37.5l33 109q53 -23 100.5 -34t99.5 -11q57 0 96 21.5t39 61.5q0 26 -18.5 45t-46 31.5t-76.5 30.5q-65 24 -106 45t-70 57.5t-29 91.5q0 98 73.5 152t197.5 54q55 0 107.5 -13t94.5 -37l-34 -108q-88 43 -163 43q-55 0 -88.5 -21t-33.5 -60
q0 -33 32 -53t102 -46q67 -25 109.5 -46.5t73 -59.5t30.5 -96q0 -98 -75 -153t-213 -55q-68 0 -129 13.5zM221 -191q42 3 58.5 15t16.5 32q0 33 -50 36l31 74q69 -7 100.5 -35.5t31.5 -68.5q0 -51 -43.5 -84.5t-121.5 -37.5z" />
    <glyph glyph-name="scommaaccent" unicode="&#x219;" horiz-adv-x="534" 
d="M42 0zM133 -2q-52 11 -91 29l31 106q89 -36 166 -36q46 0 74.5 14.5t28.5 44.5q0 25 -26.5 41t-83.5 36q-56 20 -91 37.5t-60.5 48t-25.5 75.5q0 88 64 133.5t174 45.5q46 0 93 -9.5t83 -26.5l-32 -107q-72 32 -140 32q-43 0 -67 -12.5t-24 -37.5t25 -39.5t79 -32.5
q56 -18 93 -36t63.5 -52t26.5 -86q0 -84 -65 -131.5t-187 -47.5q-56 0 -108 11zM157 -191q42 3 58.5 15t16.5 32q0 33 -50 36l31 74q69 -7 100.5 -35.5t31.5 -68.5q0 -51 -43.5 -84.5t-121.5 -37.5z" />
    <glyph glyph-name="uni021A" unicode="&#x21a;" horiz-adv-x="597" 
d="M24 0zM574 567h-197v-567h-158v567h-195v113h550v-113zM207 -191q42 3 58.5 15t16.5 32q0 33 -50 36l31 74q69 -7 100.5 -35.5t31.5 -68.5q0 -51 -43.5 -84.5t-121.5 -37.5z" />
    <glyph glyph-name="uni021B" unicode="&#x21b;" horiz-adv-x="470" 
d="M19 0zM446 33q-30 -21 -68 -31t-75 -10q-101 0 -150 46.5t-49 133.5v278h-85v65l103 39l43 147h92v-141h160v-110h-160v-243q0 -56 17.5 -80t54.5 -24q45 0 92 26zM167 -191q42 3 58.5 15t16.5 32q0 33 -50 36l31 74q69 -7 100.5 -35.5t31.5 -68.5q0 -51 -43.5 -84.5
t-121.5 -37.5z" />
    <glyph glyph-name="uni0237" unicode="&#x237;" horiz-adv-x="320" 
d="M-79 -232l11 108q37 -5 62 -5q89 0 89 110v579h153v-581q0 -106 -54 -162.5t-164 -56.5q-39 0 -97 8z" />
    <glyph glyph-name="circumflex" unicode="&#x2c6;" horiz-adv-x="500" 
d="M320 590l-70 117l-71 -117h-118l113 210h151l114 -210h-119z" />
    <glyph glyph-name="caron" unicode="&#x2c7;" horiz-adv-x="500" 
d="M439 800l-114 -210h-151l-113 210h118l71 -117l70 117h119z" />
    <glyph glyph-name="breve" unicode="&#x2d8;" horiz-adv-x="500" 
d="M119.5 644q-46.5 51 -48.5 151l103 2q2 -51 22 -77t54 -26q35 0 55 26t22 78l103 -3q-2 -100 -49 -151t-131 -51t-130.5 51z" />
    <glyph glyph-name="dotaccent" unicode="&#x2d9;" horiz-adv-x="500" 
d="M192.5 681.5q-24.5 24.5 -24.5 57.5t24.5 57.5t57.5 24.5t57.5 -24.5t24.5 -57.5t-24.5 -57.5t-57.5 -24.5t-57.5 24.5z" />
    <glyph glyph-name="ring" unicode="&#x2da;" horiz-adv-x="500" 
d="M172 619q-33 17 -49.5 44t-16.5 58t16.5 58t49.5 43.5t78 16.5t77.5 -16.5t49 -44t16.5 -57.5q0 -31 -16.5 -58t-49 -44t-77.5 -17t-78 17zM286.5 683.5q13.5 14.5 13.5 37.5q0 22 -13.5 36.5t-36.5 14.5t-36.5 -14.5t-13.5 -36.5q0 -23 13.5 -37.5t36.5 -14.5t36.5 14.5
z" />
    <glyph glyph-name="ogonek" unicode="&#x2db;" horiz-adv-x="500" 
d="M169 -238.5q-35 30.5 -35 83.5q0 43 28 89t77 81h121q-105 -84 -105 -139q0 -17 10 -26t27 -9q31 0 68 32l41 -83q-20 -23 -58.5 -41t-79.5 -18q-59 0 -94 30.5z" />
    <glyph glyph-name="tilde" unicode="&#x2dc;" horiz-adv-x="500" 
d="M58 626q5 78 37 123t82 45q21 0 39 -8t40 -22q21 -13 33.5 -18.5t25.5 -5.5q15 0 25.5 14.5t17.5 47.5l84 -4q-5 -73 -38 -120.5t-81 -47.5q-22 0 -40 7.5t-45 23.5q-19 12 -30.5 17.5t-22.5 5.5q-15 0 -25.5 -14.5t-17.5 -47.5z" />
    <glyph glyph-name="hungarumlaut" unicode="&#x2dd;" horiz-adv-x="500" 
d="M141 802h139l-143 -212h-93zM341 802h139l-143 -212h-93z" />
    <glyph glyph-name="uni0326" unicode="&#x326;" horiz-adv-x="500" 
d="M-347 -191q42 3 58.5 15t16.5 32q0 33 -50 36l31 74q69 -7 100.5 -35.5t31.5 -68.5q0 -51 -43.5 -84.5t-121.5 -37.5z" />
    <glyph glyph-name="Omega" unicode="&#x3a9;" horiz-adv-x="830" 
d="M745 233.5q-37 -67.5 -101 -118.5v-4h141v-111h-326v100q86 67 125.5 132t39.5 146q0 60 -26 106t-73.5 71.5t-109.5 25.5t-109.5 -25.5t-73.5 -71.5t-26 -106q0 -81 39.5 -146t125.5 -132v-100h-326v111h142v4q-65 52 -102 119t-37 143q0 90 45 162.5t128 114t194 41.5
q110 0 193.5 -41.5t128.5 -114t45 -162.5q0 -76 -37 -143.5z" />
    <glyph glyph-name="mu" unicode="&#x3bc;" horiz-adv-x="668" 
d="M585 560v-560h-114l-17 49q-98 -62 -189 -62q-33 0 -56 6l23 -230h-153v797h153v-338q0 -69 17.5 -96t64.5 -27q53 0 118 43v418h153z" />
    <glyph glyph-name="pi" unicode="&#x3c0;" horiz-adv-x="726" 
d="M577 450v-301q0 -24 9 -34.5t31 -10.5q20 0 43 8l8 -105q-49 -15 -108 -15q-64 0 -100 31t-36 107v320h-118l-43 -450h-153l43 450h-126v110h645v-110h-95z" />
    <glyph glyph-name="uni0901" unicode="&#x901;" horiz-adv-x="0" 
d="M0 728zM-292.5 770.5q-64.5 42.5 -99.5 110.5l90 63q61 -102 156 -102t156 102l90 -63q-37 -69 -100.5 -111t-145.5 -42t-146.5 42.5zM-211 1077q27 27 64 27t64 -27t27 -65q0 -37 -27 -64t-64 -27q-38 0 -64.5 27t-26.5 64q0 38 27 65z" />
    <glyph glyph-name="uni0902" unicode="&#x902;" horiz-adv-x="0" 
d="M-207 871q27 27 64 27t64 -27t27 -65q0 -37 -27 -64t-64 -27q-38 0 -64.5 27t-26.5 64q0 38 27 65z" />
    <glyph glyph-name="uni0903" unicode="&#x903;" horiz-adv-x="405" 
d="M135.5 401.5q-27.5 27.5 -27.5 65.5q0 39 27.5 66.5t66.5 27.5t66.5 -27.5t27.5 -66.5q0 -38 -27.5 -65.5t-66.5 -27.5t-66.5 27.5zM135.5 81.5q-27.5 27.5 -27.5 66.5t27.5 66.5t66.5 27.5t66.5 -27.5t27.5 -66.5t-27.5 -66.5t-66.5 -27.5t-66.5 27.5z" />
    <glyph glyph-name="uni0904" unicode="&#x904;" horiz-adv-x="864" 
d="M864 556h-94v-556h-140v224q-41 -18 -87 -18q-12 0 -34 2q2 -16 2 -26q0 -49 -26 -89.5t-74.5 -64t-113.5 -23.5q-175 0 -297 193l71 85q47 -73 105 -119t116 -46q37 0 58 21.5t21 59.5q0 51 -38 94q-46 -13 -113 -16l-34 114q72 5 109.5 17.5t50.5 32.5t13 50
q0 34 -20.5 56.5t-59.5 22.5q-55 0 -144 -70l-59 105q49 36 97.5 58t99.5 22q59 0 111 -24.5t83.5 -73t31.5 -115.5q0 -81 -61 -130q53 -22 105 -22q50 0 87 20v216h-115v113h123v11q0 33 -18 55t-61 22q-36 0 -110 -6q-72 -6 -105 -6q-77 0 -119.5 32.5t-42.5 93.5
q0 30 11 62.5t28 56.5l126 -29q-26 -31 -26 -64q0 -38 41 -38q33 0 99 6q68 6 98 6q106 0 162 -52.5t56 -139.5v-10h87v-113z" />
    <glyph glyph-name="uni0905" unicode="&#x905;" horiz-adv-x="864" 
d="M864 556h-94v-556h-140v224q-41 -18 -87 -18q-12 0 -34 2q2 -16 2 -26q0 -49 -26 -89.5t-74.5 -64t-113.5 -23.5q-175 0 -297 193l71 85q47 -73 105 -119t116 -46q37 0 58 21.5t21 59.5q0 51 -38 94q-46 -13 -113 -16l-34 114q72 5 109.5 17.5t50.5 32.5t13 50
q0 34 -20.5 56.5t-59.5 22.5q-55 0 -144 -70l-59 105q49 36 97.5 58t99.5 22q59 0 111 -24.5t83.5 -73t31.5 -115.5q0 -81 -61 -130q53 -22 105 -22q50 0 87 20v216h-115v113h349v-113z" />
    <glyph glyph-name="uni0906" unicode="&#x906;" horiz-adv-x="1192" 
d="M1192 556h-94v-556h-140v556h-188v-556h-140v224q-41 -18 -87 -18q-12 0 -34 2q2 -16 2 -26q0 -49 -26 -89.5t-74.5 -64t-113.5 -23.5q-175 0 -297 193l71 85q47 -73 105 -119t116 -46q37 0 58 21.5t21 59.5q0 51 -38 94q-46 -13 -113 -16l-34 114q72 5 109.5 17.5
t50.5 32.5t13 50q0 34 -20.5 56.5t-59.5 22.5q-55 0 -144 -70l-59 105q49 36 97.5 58t99.5 22q59 0 111 -24.5t83.5 -73t31.5 -115.5q0 -81 -61 -130q53 -22 105 -22q50 0 87 20v216h-115v113h677v-113z" />
    <glyph glyph-name="uni0907" unicode="&#x907;" horiz-adv-x="545" 
d="M198 382q-8 -11 -8 -28q0 -20 15.5 -30.5t45.5 -10.5q37 0 85 9t85 24q37 -26 63.5 -72t26.5 -95q0 -79 -54.5 -133t-141.5 -67l96 -142l-125 -66l-95 210q-63 11 -103 39.5t-40 63.5q0 37 36.5 61.5t99.5 25.5l56 -82q5 -1 14 -1q51 0 84 24t33 60q0 21 -13 44
q-54 -17 -105 -17q-67 0 -112.5 21.5t-68 57t-22.5 79.5q0 64 39.5 106.5t108.5 42.5h102v50h-320v113h565v-113h-106v-163h-221q-12 0 -20 -11z" />
    <glyph glyph-name="uni0908" unicode="&#x908;" horiz-adv-x="545" 
d="M198 382q-8 -11 -8 -28q0 -20 15.5 -30.5t45.5 -10.5q37 0 85 9t85 24q37 -26 63.5 -72t26.5 -95q0 -79 -54.5 -133t-141.5 -67l96 -142l-125 -66l-95 210q-63 11 -103 39.5t-40 63.5q0 37 36.5 61.5t99.5 25.5l56 -82q5 -1 14 -1q51 0 84 24t33 60q0 21 -13 44
q-54 -17 -105 -17q-67 0 -112.5 21.5t-68 57t-22.5 79.5q0 64 39.5 106.5t108.5 42.5h102v50h-320v113h291q-39 37 -59 77.5t-20 90.5q0 71 51 117t145 46q37 0 71 -11t60 -28l-34 -96q-19 10 -36.5 16t-39.5 6q-39 0 -58 -21t-19 -58q0 -38 22.5 -71t61.5 -68h129v-113
h-106v-163h-221q-12 0 -20 -11z" />
    <glyph glyph-name="uni0909" unicode="&#x909;" horiz-adv-x="597" 
d="M597 556h-97q22 -42 22 -92q0 -77 -70 -125q78 -76 78 -170q0 -52 -27.5 -94t-78 -66t-116.5 -24q-174 0 -299 214l71 85q48 -82 106 -134t117 -52q40 0 63.5 25t23.5 63q0 61 -46 107q-62 -15 -136 -16l-35 114q85 5 131 18t62 31t16 43q0 22 -12.5 41.5t-36.5 31.5
h-353v113h617v-113z" />
    <glyph glyph-name="uni090A" unicode="&#x90a;" horiz-adv-x="860" 
d="M522 464q0 -77 -70 -125q10 -10 28 -32q45 41 87 65t87 24q55 0 95.5 -23t61.5 -61.5t21 -82.5q0 -64 -27 -122.5t-71 -106.5l-130 75q88 99 88 159q0 22 -12 35t-33 13q-50 0 -119 -81q2 -20 2 -32q0 -52 -27.5 -94t-78 -66t-116.5 -24q-174 0 -299 214l71 85
q48 -82 106 -134t117 -52q40 0 63.5 25t23.5 63q0 61 -46 107q-62 -15 -136 -16l-35 114q85 5 131 18t62 31t16 43q0 22 -12.5 41.5t-36.5 31.5h-353v113h880v-113h-360q22 -42 22 -92z" />
    <glyph glyph-name="uni090B" unicode="&#x90b;" horiz-adv-x="893" 
d="M928 -40q-27 -20 -64.5 -32.5t-80.5 -12.5q-54 0 -96 20t-64.5 55.5t-22.5 78.5q0 82 87 144l-22 51q-61 -23 -118 -23q-13 0 -19 1v-242h-140v179l-227 -173l-85 111l294 195q-41 30 -74 42.5t-67 12.5q-44 0 -138 -45l-66 120q103 39 204 39q40 0 77.5 -12t81.5 -41
v128h-408v113h913v-113h-365v-200q7 -1 21 -1q34 0 71 12l-35 81q18 28 45.5 43.5t57.5 15.5q48 0 74.5 -29.5t26.5 -69.5q0 -48 -35 -85l79 -162q-113 -33 -113 -89q0 -21 16 -32t46 -11q25 0 52 8t45 21z" />
    <glyph glyph-name="uni090C" unicode="&#x90c;" horiz-adv-x="800" 
d="M825 -80q-38 -32 -78.5 -50t-96.5 -18q-77 0 -129.5 41t-52.5 112q0 42 22 77t66 84q36 40 53 65.5t17 52.5t-15.5 41.5t-42.5 14.5q-44 0 -76.5 -46.5t-48.5 -126.5l-140 26q12 70 39 121q-40 43 -86 43q-30 0 -53 -22.5t-23 -62.5q0 -64 37 -119.5t115 -124.5l-80 -81
q-97 79 -154.5 166.5t-57.5 172.5q0 89 55.5 137.5t143.5 48.5q51 0 92 -24t68 -59q43 41 95 56v111h-514v113h820v-113h-166v-110q62 -19 97 -65.5t35 -101.5q0 -41 -24 -77.5t-69 -85.5q-34 -37 -51 -61.5t-17 -46.5q0 -21 14.5 -32t39.5 -11q30 0 61 14.5t59 39.5z" />
    <glyph glyph-name="uni090D" unicode="&#x90d;" horiz-adv-x="688" 
d="M0 0zM672.5 -59.5q25.5 -31.5 25.5 -60.5q0 -37 -15.5 -69t-51.5 -69l-118 59q18 21 26.5 37.5t8.5 32.5q0 18 -17 36.5t-55 42.5l-241 164q-68 46 -97 88.5t-29 104.5v249h-129v113h708v-113h-100v-217q0 -95 -121 -150l-107 85q44 17 66 38.5t22 55.5v188h-199v-246
q0 -42 14.5 -64.5t51.5 -47.5l276 -188q56 -38 81.5 -69.5zM198.5 770.5q-64.5 42.5 -99.5 110.5l90 63q61 -102 156 -102t156 102l90 -63q-37 -69 -100.5 -111t-145.5 -42t-146.5 42.5z" />
    <glyph glyph-name="uni090E" unicode="&#x90e;" horiz-adv-x="688" 
d="M672.5 -59.5q25.5 -31.5 25.5 -60.5q0 -37 -15.5 -69t-51.5 -69l-118 59q18 21 26.5 37.5t8.5 32.5q0 18 -17 36.5t-55 42.5l-241 164q-68 46 -97 88.5t-29 104.5v249h-129v113h474v11q0 33 -18 55t-61 22q-36 0 -110 -6q-72 -6 -105 -6q-77 0 -119.5 32.5t-42.5 93.5
q0 30 11 62.5t28 56.5l126 -29q-26 -31 -26 -64q0 -38 41 -38q33 0 99 6q68 6 98 6q106 0 162 -52.5t56 -139.5v-10h95v-113h-100v-217q0 -95 -121 -150l-107 85q44 17 66 38.5t22 55.5v188h-199v-246q0 -42 14.5 -64.5t51.5 -47.5l276 -188q56 -38 81.5 -69.5z" />
    <glyph glyph-name="uni090F" unicode="&#x90f;" horiz-adv-x="688" 
d="M672.5 -59.5q25.5 -31.5 25.5 -60.5q0 -37 -15.5 -69t-51.5 -69l-118 59q18 21 26.5 37.5t8.5 32.5q0 18 -17 36.5t-55 42.5l-241 164q-68 46 -97 88.5t-29 104.5v249h-129v113h708v-113h-100v-217q0 -95 -121 -150l-107 85q44 17 66 38.5t22 55.5v188h-199v-246
q0 -42 14.5 -64.5t51.5 -47.5l276 -188q56 -38 81.5 -69.5z" />
    <glyph glyph-name="uni0910" unicode="&#x910;" horiz-adv-x="688" 
d="M672.5 -59.5q25.5 -31.5 25.5 -60.5q0 -37 -15.5 -69t-51.5 -69l-118 59q18 21 26.5 37.5t8.5 32.5q0 18 -17 36.5t-55 42.5l-241 164q-68 46 -97 88.5t-29 104.5v249h-129v113h455l-25 56q-33 75 -68.5 110t-86.5 35q-47 0 -90 -13l-24 107q51 21 113 21
q93 0 156.5 -57.5t122.5 -186.5l33 -72h122v-113h-100v-217q0 -95 -121 -150l-107 85q44 17 66 38.5t22 55.5v188h-199v-246q0 -42 14.5 -64.5t51.5 -47.5l276 -188q56 -38 81.5 -69.5z" />
    <glyph glyph-name="uni0911" unicode="&#x911;" horiz-adv-x="1192" 
d="M0 0zM1192 556h-94v-556h-140v556h-188v-556h-140v224q-41 -18 -87 -18q-12 0 -34 2q2 -16 2 -26q0 -49 -26 -89.5t-74.5 -64t-113.5 -23.5q-175 0 -297 193l71 85q47 -73 105 -119t116 -46q37 0 58 21.5t21 59.5q0 51 -38 94q-46 -13 -113 -16l-34 114q72 5 109.5 17.5
t50.5 32.5t13 50q0 34 -20.5 56.5t-59.5 22.5q-55 0 -144 -70l-59 105q49 36 97.5 58t99.5 22q59 0 111 -24.5t83.5 -73t31.5 -115.5q0 -81 -61 -130q53 -22 105 -22q50 0 87 20v216h-115v113h677v-113zM830.5 770.5q-64.5 42.5 -99.5 110.5l90 63q61 -102 156 -102t156 102
l90 -63q-37 -69 -100.5 -111t-145.5 -42t-146.5 42.5z" />
    <glyph glyph-name="uni0912" unicode="&#x912;" horiz-adv-x="1192" 
d="M1192 556h-94v-556h-140v556h-188v-556h-140v224q-41 -18 -87 -18q-12 0 -34 2q2 -16 2 -26q0 -49 -26 -89.5t-74.5 -64t-113.5 -23.5q-175 0 -297 193l71 85q47 -73 105 -119t116 -46q37 0 58 21.5t21 59.5q0 51 -38 94q-46 -13 -113 -16l-34 114q72 5 109.5 17.5
t50.5 32.5t13 50q0 34 -20.5 56.5t-59.5 22.5q-55 0 -144 -70l-59 105q49 36 97.5 58t99.5 22q59 0 111 -24.5t83.5 -73t31.5 -115.5q0 -81 -61 -130q53 -22 105 -22q50 0 87 20v216h-115v113h452v11q0 33 -18 55t-61 22q-36 0 -110 -6q-72 -6 -105 -6q-77 0 -119.5 32.5
t-42.5 93.5q0 30 11 62.5t28 56.5l126 -29q-26 -31 -26 -64q0 -38 41 -38q33 0 99 6q68 6 98 6q106 0 162 -52.5t56 -139.5v-10h86v-113z" />
    <glyph glyph-name="uni0913" unicode="&#x913;" horiz-adv-x="1192" 
d="M1192 556h-94v-556h-140v556h-188v-556h-140v224q-41 -18 -87 -18q-12 0 -34 2q2 -16 2 -26q0 -49 -26 -89.5t-74.5 -64t-113.5 -23.5q-175 0 -297 193l71 85q47 -73 105 -119t116 -46q37 0 58 21.5t21 59.5q0 51 -38 94q-46 -13 -113 -16l-34 114q72 5 109.5 17.5
t50.5 32.5t13 50q0 34 -20.5 56.5t-59.5 22.5q-55 0 -144 -70l-59 105q49 36 97.5 58t99.5 22q59 0 111 -24.5t83.5 -73t31.5 -115.5q0 -81 -61 -130q53 -22 105 -22q50 0 87 20v216h-115v113h432l-25 56q-33 75 -68.5 110t-86.5 35q-47 0 -90 -13l-24 107q51 21 113 21
q93 0 156.5 -57.5t122.5 -186.5l33 -72h114v-113z" />
    <glyph glyph-name="uni0914" unicode="&#x914;" horiz-adv-x="1192" 
d="M1192 556h-94v-556h-140v556h-188v-556h-140v224q-41 -18 -87 -18q-12 0 -34 2q2 -16 2 -26q0 -49 -26 -89.5t-74.5 -64t-113.5 -23.5q-175 0 -297 193l71 85q47 -73 105 -119t116 -46q37 0 58 21.5t21 59.5q0 51 -38 94q-46 -13 -113 -16l-34 114q72 5 109.5 17.5
t50.5 32.5t13 50q0 34 -20.5 56.5t-59.5 22.5q-55 0 -144 -70l-59 105q49 36 97.5 58t99.5 22q59 0 111 -24.5t83.5 -73t31.5 -115.5q0 -81 -61 -130q53 -22 105 -22q50 0 87 20v216h-115v113h390l-22 34q-43 68 -116 68q-51 0 -97 -20l-24 107q57 29 120 29q82 0 150 -65
q-30 60 -50 90.5t-42.5 44.5t-55.5 14q-39 0 -73 -13l-24 107q50 21 112 21q65 0 111.5 -32.5t88 -105.5t92.5 -207l27 -72h90v-113z" />
    <glyph glyph-name="uni0915" unicode="&#x915;" horiz-adv-x="874" 
d="M514 556v-155q73 54 141 54q58 0 101 -25.5t66 -66.5t23 -86q0 -126 -100 -247l-130 75q90 109 90 177q0 27 -15.5 42.5t-41.5 15.5q-35 0 -67 -20.5t-67 -59.5v-260h-140v153q-34 -24 -68.5 -39t-76.5 -15q-60 0 -105 25t-69.5 67t-24.5 93q0 53 24 96.5t67.5 69.5
t100.5 26q46 0 85 -15t67 -37v132h-394v113h894v-113h-360zM310.5 234q33.5 21 63.5 55v2q-27 32 -59.5 51.5t-65.5 19.5q-34 0 -56.5 -22t-22.5 -56q0 -31 20.5 -51t54.5 -20q32 0 65.5 21z" />
    <glyph glyph-name="uni0916" unicode="&#x916;" horiz-adv-x="910" 
d="M910 556h-94v-567h-140v76q-59 -41 -129.5 -63.5t-137.5 -22.5q-107 0 -191 54.5t-129 154.5t-40 230l121 17q-1 -27 1 -74q11 -8 25 -8q17 0 30.5 18.5t13.5 53.5q0 32 -11 66t-30 65h-219v113h930v-113zM676 556h-337q40 -67 40 -144q0 -57 -21.5 -96t-54.5 -57.5
t-69 -18.5q-20 0 -39 7q29 -78 86 -116t128 -38q70 0 139 24.5t128 71.5v32q-52 -40 -108 -40q-49 0 -86.5 21.5t-57.5 56t-20 71.5q0 48 22.5 86t60 59t81.5 21q61 0 108 -43v103zM676 339q-40 55 -86 55q-26 0 -42 -15.5t-16 -41.5q0 -25 15 -39.5t41 -14.5q21 0 44 14
t44 39v3z" />
    <glyph glyph-name="uni0917" unicode="&#x917;" horiz-adv-x="680" 
d="M680 556h-94v-556h-139v556h-159v-281q0 -61 -27.5 -93.5t-79.5 -32.5q-34 0 -63.5 18t-47 50t-17.5 72q0 28 9 56h87v211h-169v113h700v-113z" />
    <glyph glyph-name="uni0918" unicode="&#x918;" horiz-adv-x="741" 
d="M741 556h-94v-556h-140v132q-80 -50 -164 -50q-61 0 -109 23.5t-75 67t-27 101.5q0 62 44 111q-122 60 -122 137q0 18 3 34h-77v113h761v-113zM507 556h-297q-14 -26 -14 -51q0 -38 57 -68q38 16 81 16q38 0 62 -11l-9 -109q-20 6 -39 6q-34 0 -55 -20.5t-21 -55.5
q0 -32 20.5 -49.5t49.5 -17.5q82 0 165 72v288z" />
    <glyph glyph-name="uni0919" unicode="&#x919;" horiz-adv-x="792" 
d="M560 262q27 -44 27 -91q0 -83 -63.5 -132t-178.5 -49q-92 0 -171.5 33.5t-140.5 94.5l57 89q115 -104 244 -104q57 0 85 17.5t28 41.5q0 21 -15 44q-65 -15 -128 -15q-110 0 -166.5 44t-56.5 111q0 61 43.5 102.5t120.5 41.5h126v66h-391v113h812v-113h-282v-180h-244
q-45 0 -45 -34q0 -37 81 -37q44 0 97.5 7t95.5 19q38 -25 65 -69zM766.5 393.5q26.5 -26.5 26.5 -64.5q0 -37 -26.5 -64t-64.5 -27q-37 0 -64 27t-27 64q0 38 27 64.5t64 26.5q38 0 64.5 -26.5z" />
    <glyph glyph-name="uni091A" unicode="&#x91a;" horiz-adv-x="702" 
d="M702 556h-94v-556h-140v145q-87 -67 -181 -67q-61 0 -106.5 22.5t-69.5 61.5t-24 87q0 59 41 107h-111v113h360v-105h-4q-69 -10 -107.5 -42t-38.5 -73q0 -27 16 -41.5t43 -14.5q39 0 87 23.5t95 71.5v268h-488v113h722v-113z" />
    <glyph glyph-name="uni091B" unicode="&#x91b;" horiz-adv-x="825" 
d="M638 556v-90q47 -23 74.5 -67.5t27.5 -106.5q0 -57 -30 -115q92 -63 92 -152q0 -107 -75 -219l-133 72q41 47 62.5 83t21.5 72q0 27 -33 55q-62 -63 -147 -101t-171 -38q-103 0 -165 50.5t-62 136.5q0 49 27 90q-98 58 -98 129q0 40 21.5 73t62 52.5t97.5 19.5
q58 0 95 -16l-14 -112q-31 14 -66 14q-26 0 -41 -12.5t-15 -34.5q0 -25 31 -50q48 23 98 23q38 0 62 -11l-9 -109q-17 6 -39 6q-34 0 -53 -20.5t-19 -50.5q0 -31 22 -47t56 -16q59 0 116 26t98 68q-74 43 -115.5 85.5t-41.5 102.5t32.5 96.5t90.5 44.5v69h-518v113h845v-113
h-187zM534.5 286.5q19.5 -19.5 55.5 -39.5q10 30 10 55q0 35 -14 54t-34 19q-15 0 -26 -12t-11 -33q0 -24 19.5 -43.5z" />
    <glyph glyph-name="uni091C" unicode="&#x91c;" horiz-adv-x="791" 
d="M791 556h-94v-556h-140v346h-127q74 -67 74 -140q0 -45 -22.5 -80.5t-60.5 -54.5t-81 -19q-130 0 -205.5 92.5t-118.5 271.5l110 32q25 -97 57 -160.5t64.5 -93t61.5 -29.5q55 0 55 58q0 37 -29.5 74.5t-86.5 84.5l34 77h275v97h-577v113h811v-113z" />
    <glyph glyph-name="uni091D" unicode="&#x91d;" horiz-adv-x="851" 
d="M850 556h-93v-556h-140v181q-38 -14 -78 -14q-10 0 -28 2q-4 -76 -58 -127t-138 -63l96 -142l-125 -66l-95 210q-63 11 -103 39.5t-40 63.5q0 37 36.5 61.5t99.5 25.5l56 -82q5 -1 14 -1q51 0 84 24t33 60q0 21 -13 44q-54 -17 -105 -17q-67 0 -112.5 21.5t-68 57
t-22.5 79.5q0 64 39.5 106.5t108.5 42.5h102v50h-320v113h870v-113zM617 556h-178v-163h-221q-12 0 -20 -11t-8 -28q0 -20 15.5 -30.5t45.5 -10.5q37 0 85 9t85 24q29 -20 54 -56q32 -8 64 -8q43 0 78 16v258z" />
    <glyph glyph-name="uni091E" unicode="&#x91e;" horiz-adv-x="824" 
d="M824 556h-94v-556h-140v236q-32 -10 -64 -10q-14 0 -32 3q-22 -52 -75 -83t-123 -31q-82 0 -152.5 53.5t-141.5 166.5l83 55q54 -84 100.5 -122.5t99.5 -38.5q39 0 61 19t22 47q0 30 -16 48.5t-47 18.5q-19 0 -32.5 -6.5t-32.5 -20.5l-76 85q34 27 70 41.5t81 14.5
q67 0 120 -34.5t68 -99.5q16 -2 23 -2q32 0 64 10v206h-610v113h844v-113z" />
    <glyph glyph-name="uni091F" unicode="&#x91f;" horiz-adv-x="620" 
d="M268 325.5q-66 -32.5 -66 -89.5q0 -50 38 -76.5t95 -26.5q56 0 105 16.5t98 47.5l51 -102q-61 -39 -123 -57t-137 -18q-76 0 -136 26t-94 75t-34 115q0 95 66.5 153t204.5 80v87h-356v113h640v-113h-145v-188q-141 -10 -207 -42.5z" />
    <glyph glyph-name="uni0920" unicode="&#x920;" horiz-adv-x="668" 
d="M668 556h-193q7 -17 7 -39q0 -34 -12 -66q58 -41 96 -93t38 -113q0 -65 -37 -117t-100 -81.5t-138 -29.5t-135 26.5t-94.5 76t-34.5 115.5q0 194 271 237q7 25 7 44t-8 40h-355v113h688v-113zM396.5 145q31.5 15 50.5 41t19 59q0 68 -66 117q-198 -26 -198 -127
q0 -51 37.5 -78t91.5 -27q34 0 65.5 15z" />
    <glyph glyph-name="uni0921" unicode="&#x921;" horiz-adv-x="616" 
d="M221 342q0 -37 81 -37q44 0 97.5 7t95.5 19q38 -25 65 -69t27 -91q0 -83 -63.5 -132t-178.5 -49q-92 0 -171.5 33.5t-140.5 94.5l57 89q115 -104 244 -104q57 0 85 17.5t28 41.5q0 21 -15 44q-65 -15 -128 -15q-110 0 -166.5 44t-56.5 111q0 61 43.5 102.5t120.5 41.5
h126v66h-391v113h636v-113h-106v-180h-244q-45 0 -45 -34z" />
    <glyph glyph-name="uni0922" unicode="&#x922;" horiz-adv-x="616" 
d="M220 342q-30 -30 -30 -81q0 -53 21 -94.5t55 -66.5q-16 32 -16 64q0 38 20.5 68.5t54.5 47t74 16.5q45 0 82.5 -20t60 -56t22.5 -81q0 -56 -29 -96t-74.5 -60t-93.5 -20q-81 0 -154 39t-118 109t-45 157q0 97 60 157.5t177 60.5h59v70h-366v113h636v-113h-131v-184h-174
q-61 0 -91 -30zM376.5 176q-11.5 -14 -11.5 -37q0 -36 17 -62q32 7 49.5 24.5t17.5 41.5q0 21 -12 34t-30 13q-19 0 -30.5 -14z" />
    <glyph glyph-name="uni0923" unicode="&#x923;" horiz-adv-x="796" 
d="M796 556h-94v-556h-140v556h-95v-225q0 -87 -52.5 -134t-145.5 -47t-146 47t-53 134v225h-90v113h816v-113zM327 556h-117v-225q0 -67 59 -67q28 0 43 16.5t15 50.5v225z" />
    <glyph glyph-name="uni0924" unicode="&#x924;" horiz-adv-x="642" 
d="M642 556h-94v-556h-140v345h-140q-36 0 -58 -20t-22 -56q0 -57 32.5 -109t98.5 -118l-86 -75q-76 65 -130.5 154t-54.5 174q0 75 50 119.5t152 44.5h158v97h-428v113h662v-113z" />
    <glyph glyph-name="uni0925" unicode="&#x925;" horiz-adv-x="722" 
d="M722 556h-94v-556h-140v156q-32 -24 -72.5 -37.5t-84.5 -13.5q-101 0 -170 61t-95 171q60 18 99 42q-60 27 -92 70.5t-32 98.5q0 64 46 102.5t118 38.5q51 0 95 -20.5t70.5 -62.5t26.5 -102q0 -68 -44 -126.5t-128 -97.5q29 -61 106 -61q40 0 81.5 19t75.5 54v264h-63
v113h297v-113zM191.5 565q-10.5 -10 -10.5 -30q0 -22 16 -42.5t47 -33.5q13 27 13 60q0 25 -10.5 40.5t-28.5 15.5q-16 0 -26.5 -10z" />
    <glyph glyph-name="uni0926" unicode="&#x926;" horiz-adv-x="626" 
d="M229.5 347.5q-26.5 -24.5 -26.5 -64.5q0 -38 19 -65.5t49.5 -42t62.5 -14.5q15 0 23 1l-31 71q18 28 46 44t58 16q46 0 73.5 -28.5t27.5 -70.5q0 -46 -33 -84l98 -144l-126 -66l-68 157q-31 -9 -70 -9q-67 0 -128.5 28t-100 81.5t-38.5 125.5q0 93 56 148t168 55h53v70
h-362v113h646v-113h-145v-184h-169q-56 0 -82.5 -24.5z" />
    <glyph glyph-name="uni0927" unicode="&#x927;" horiz-adv-x="715" 
d="M714 556h-93v-556h-140v132q-80 -50 -164 -50q-61 0 -109 23.5t-75 67t-27 101.5q0 67 47 114q-111 75 -111 165q0 38 20.5 71.5t57 53.5t83.5 20q49 0 81 -12t56 -33l-41 -100q-34 30 -71 30q-21 0 -33.5 -12.5t-12.5 -32.5q0 -21 15 -46t47 -49q30 10 64 10
q38 0 62 -11l-9 -109q-20 6 -39 6q-34 0 -55 -20.5t-21 -55.5q0 -32 20.5 -49.5t49.5 -17.5q82 0 165 72v288h-92v113h325v-113z" />
    <glyph glyph-name="uni0928" unicode="&#x928;" horiz-adv-x="640" 
d="M640 556h-94v-556h-139v288h-183v-87q-26 -9 -58 -9q-56 0 -92.5 31t-36.5 76q0 49 30 75.5t87 26.5h253v155h-427v113h660v-113z" />
    <glyph glyph-name="uni0929" unicode="&#x929;" horiz-adv-x="640" 
d="M0 0zM640 556h-94v-556h-139v288h-183v-87q-26 -9 -58 -9q-56 0 -92.5 31t-36.5 76q0 49 30 75.5t87 26.5h253v155h-427v113h660v-113zM148.5 76q26.5 27 64.5 27t64.5 -27t26.5 -64q0 -38 -26.5 -64.5t-64.5 -26.5t-64.5 26.5t-26.5 64.5q0 37 26.5 64z" />
    <glyph glyph-name="uni092A" unicode="&#x92a;" horiz-adv-x="611" 
d="M611 556h-94v-556h-140v184q-57 -31 -114 -31q-95 0 -144 49.5t-49 147.5v206h-90v113h631v-113zM377 556h-167v-211q0 -78 64 -78q54 0 103 34v255z" />
    <glyph glyph-name="uni092B" unicode="&#x92b;" horiz-adv-x="875" 
d="M517 402q73 52 139 52q58 0 101 -25t66 -66t23 -86q0 -126 -100 -247l-130 75q90 109 90 177q0 27 -15.5 42.5t-41.5 15.5q-51 0 -132 -67v-273h-140v184q-57 -31 -114 -31q-95 0 -144 49.5t-49 147.5v206h-90v113h895v-113h-358v-154zM377 301v255h-167v-211
q0 -78 64 -78q54 0 103 34z" />
    <glyph glyph-name="uni092C" unicode="&#x92c;" horiz-adv-x="648" 
d="M659 556h-94v-556h-140v146q-88 -67 -174 -67q-68 0 -117.5 27t-75.5 73t-26 102q0 59 27 107.5t78 77t119 28.5q50 0 93.5 -20t75.5 -49v131h-445v113h679v-113zM425 289v1q-33 41 -72.5 65.5t-82.5 24.5h-8l98 -149q37 26 65 58zM195 219.5q23 -25.5 64 -25.5
q23 0 51 10l-103 156q-17 -14 -26 -33.5t-9 -42.5q0 -39 23 -64.5z" />
    <glyph glyph-name="uni092D" unicode="&#x92d;" horiz-adv-x="802" 
d="M801 556h-93v-556h-140v201h-173v-73q-39 -13 -76 -13q-41 0 -73.5 15.5t-50.5 41t-18 54.5q0 33 21.5 58t56.5 29v36q-109 22 -161.5 76.5t-52.5 121.5t48 104.5t129 37.5q84 0 130.5 -45.5t46.5 -143.5v-186h173v242h-116v113h349v-113zM200 487q19 -21 55 -35v66
q0 57 -37 57q-17 0 -27 -11t-10 -30q0 -26 19 -47z" />
    <glyph glyph-name="uni092E" unicode="&#x92e;" horiz-adv-x="672" 
d="M672 556h-94v-556h-140v221h-184v-73q-39 -13 -76 -13q-41 0 -73.5 15.5t-50.5 41t-18 54.5q0 33 21.5 58t56.5 29v223h-134v113h692v-113zM438 556h-184v-222h184v222z" />
    <glyph glyph-name="uni092F" unicode="&#x92f;" horiz-adv-x="658" 
d="M658 556h-94v-556h-140v156q-31 -24 -71.5 -37.5t-83.5 -13.5q-99 0 -168.5 64.5t-90.5 180.5q84 25 120 50.5t36 59.5q0 52 -55 96h-131v113h678v-113zM424 556h-161q40 -42 40 -98q0 -51 -35 -97.5t-104 -78.5q35 -63 105 -63q40 0 81 19t74 53v265z" />
    <glyph glyph-name="uni0930" unicode="&#x930;" horiz-adv-x="457" 
d="M457 556h-117q42 -66 42 -146q0 -57 -23.5 -95.5t-59.5 -57.5t-74 -19q-17 0 -32 3q17 -28 50 -61l142 -140l-82 -82l-113 111q-67 65 -100.5 118.5t-44.5 103.5t-14 125l123 17q1 -31 5 -74q14 -7 29 -7q21 0 38 18t17 54q0 65 -44 132h-219v113h477v-113z" />
    <glyph glyph-name="uni0931" unicode="&#x931;" horiz-adv-x="457" 
d="M0 0zM457 556h-117q42 -66 42 -146q0 -57 -23.5 -95.5t-59.5 -57.5t-74 -19q-17 0 -32 3q17 -28 50 -61l142 -140l-82 -82l-113 111q-67 65 -100.5 118.5t-44.5 103.5t-14 125l123 17q1 -31 5 -74q14 -7 29 -7q21 0 38 18t17 54q0 65 -44 132h-219v113h477v-113zM35.5 4
q26.5 27 64.5 27t64.5 -27t26.5 -64q0 -38 -26.5 -64.5t-64.5 -26.5t-64.5 26.5t-26.5 64.5q0 37 26.5 64z" />
    <glyph glyph-name="uni0932" unicode="&#x932;" horiz-adv-x="821" 
d="M821 556h-94v-556h-140v335q-13 5 -27 5q-42 0 -72 -46.5t-45 -126.5l-140 26q10 68 37 124q-38 40 -84 40q-30 0 -53 -22.5t-23 -62.5q0 -64 37 -119t115 -124l-80 -81q-97 79 -154.5 166t-57.5 172q0 89 55.5 137.5t144.5 48.5q49 0 88 -22t67 -56q30 30 67.5 45.5
t77.5 15.5q24 0 47 -5v106h-607v113h841v-113z" />
    <glyph glyph-name="uni0933" unicode="&#x933;" horiz-adv-x="784" 
d="M640 556v-70q56 -22 89.5 -73.5t33.5 -123.5q0 -65 -27.5 -112.5t-73 -73t-97.5 -25.5q-58 0 -94.5 23.5t-66.5 63.5q-64 -86 -158 -86q-58 0 -104.5 25.5t-74 73.5t-27.5 113t26 113t71 73.5t101 25.5q58 0 95.5 -24t65.5 -64q45 60 101 78v63h-520v113h804v-113h-144z
M292.5 218q19.5 25 38.5 71q8 20 13 29q-20 32 -43 51.5t-57 19.5q-27 0 -45.5 -27t-18.5 -71t18.5 -71t45.5 -27q29 0 48.5 25zM604.5 219q18.5 27 18.5 70q0 44 -18.5 71.5t-46.5 27.5t-47.5 -25.5t-38.5 -71.5q-8 -20 -13 -30q19 -31 42 -50t57 -19q28 0 46.5 27z" />
    <glyph glyph-name="uni0934" unicode="&#x934;" horiz-adv-x="784" 
d="M0 0zM640 556v-70q56 -22 89.5 -73.5t33.5 -123.5q0 -65 -27.5 -112.5t-73 -73t-97.5 -25.5q-58 0 -94.5 23.5t-66.5 63.5q-64 -86 -158 -86q-58 0 -104.5 25.5t-74 73.5t-27.5 113t26 113t71 73.5t101 25.5q58 0 95.5 -24t65.5 -64q45 60 101 78v63h-520v113h804v-113
h-144zM292.5 218q19.5 25 38.5 71q8 20 13 29q-20 32 -43 51.5t-57 19.5q-27 0 -45.5 -27t-18.5 -71t18.5 -71t45.5 -27q29 0 48.5 25zM604.5 219q18.5 27 18.5 70q0 44 -18.5 71.5t-46.5 27.5t-47.5 -25.5t-38.5 -71.5q-8 -20 -13 -30q19 -31 42 -50t57 -19q28 0 46.5 27z
M339.5 22q26.5 27 64.5 27t64.5 -27t26.5 -64q0 -38 -26.5 -64.5t-64.5 -26.5t-64.5 26.5t-26.5 64.5q0 37 26.5 64z" />
    <glyph glyph-name="uni0935" unicode="&#x935;" horiz-adv-x="659" 
d="M659 556h-94v-556h-140v146q-88 -67 -174 -67q-68 0 -117.5 27t-75.5 73t-26 102q0 59 27 107.5t78 77t119 28.5q50 0 93.5 -20t75.5 -49v131h-445v113h679v-113zM344 220.5q45 26.5 81 68.5v1q-33 41 -72.5 65.5t-82.5 24.5q-44 0 -71 -27.5t-27 -68.5q0 -39 23 -64.5
t64 -25.5q40 0 85 26.5z" />
    <glyph glyph-name="uni0936" unicode="&#x936;" horiz-adv-x="817" 
d="M817 556h-93v-556h-140v556h-124q25 -48 25 -112q0 -58 -30 -113.5t-76.5 -100t-97.5 -68.5l114 -165l-125 -66l-97 211q-61 6 -100.5 33t-39.5 64q0 40 36 63.5t99 23.5l43 -63q40 18 73 53q-82 33 -127.5 83.5t-45.5 112.5q0 25 6 44h-137v113h837v-113zM330.5 529
q-13.5 27 -38.5 27q-16 0 -28 -13t-12 -39q0 -28 23 -52.5t62 -43.5q7 30 7 52q0 42 -13.5 69z" />
    <glyph glyph-name="uni0937" unicode="&#x937;" horiz-adv-x="631" 
d="M631 556h-94v-556h-140v148q-61 -33 -124 -33q-99 0 -151 51.5t-52 153.5v236h-90v113h651v-113zM397 556h-183l183 -195v195zM284 229q30 0 56.5 10.5t54.5 28.5l-185 196v-149q0 -86 74 -86z" />
    <glyph glyph-name="uni0938" unicode="&#x938;" horiz-adv-x="768" 
d="M769 556h-95v-556h-140v201q-41 -18 -88 -18q-50 0 -91.5 15t-78.5 49q-25 -9 -51 -9q-17 0 -32 3q17 -28 50 -61l142 -140l-82 -82l-113 111q-67 65 -100.5 118.5t-44.5 103.5t-14 125l123 17q1 -31 5 -74q14 -7 29 -7q21 0 38 18t17 54q0 65 -44 132h-219v113h789v-113
zM534 556h-194q42 -66 42 -146q0 -53 -23 -94q43 -19 87 -19q52 0 88 21v238z" />
    <glyph glyph-name="uni0939" unicode="&#x939;" horiz-adv-x="604" 
d="M214.5 368.5q-11.5 -8.5 -11.5 -26.5q0 -23 20 -41q50 22 117 22q62 0 110 -23.5t74 -64t26 -89.5q0 -34 -15 -64.5t-34 -51.5l-117 57q27 32 27 63q0 26 -19.5 43t-51.5 17q-44 0 -70.5 -23.5t-26.5 -60.5q0 -29 21.5 -59t70.5 -53t128 -29l-29 -108q-103 7 -177.5 42
t-113.5 91.5t-39 128.5q0 50 31 93q-71 52 -71 130q0 58 32.5 93t107.5 35h150v66h-374v113h624v-113h-111v-179h-239q-28 0 -39.5 -8.5z" />
    <glyph glyph-name="uni093A" unicode="&#x93a;" horiz-adv-x="0" 
d="M-234 933h140v-287h-140v287z" />
    <glyph glyph-name="uni093B" unicode="&#x93b;" horiz-adv-x="328" 
d="M328 556h-94v-556h-140v556h-114v113h117v264h140v-264h91v-113z" />
    <glyph glyph-name="uni093C" unicode="&#x93c;" horiz-adv-x="0" 
d="M-64.5 -64q26.5 27 64.5 27t64.5 -27t26.5 -64q0 -38 -26.5 -64.5t-64.5 -26.5t-64.5 26.5t-26.5 64.5q0 37 26.5 64z" />
    <glyph glyph-name="uni093D" unicode="&#x93d;" horiz-adv-x="593" 
d="M149.5 32.5q-62.5 39.5 -111.5 118.5l86 73q81 -117 151 -118q34 1 53.5 18t19.5 52q0 30 -22.5 62t-65.5 76l-57 58q-47 48 -70.5 86.5t-23.5 83.5q0 58 36 92.5t103 34.5h272v-113h-231q-40 0 -40 -24q0 -15 13.5 -33.5t45.5 -51.5l54 -55q56 -57 91 -110.5t35 -105.5
q0 -55 -25.5 -96.5t-70 -64t-100.5 -22.5q-80 0 -142.5 39.5z" />
    <glyph glyph-name="uni093E" unicode="&#x93e;" horiz-adv-x="328" 
d="M328 556h-94v-556h-140v556h-114v113h348v-113z" />
    <glyph glyph-name="uni093F" unicode="&#x93f;" horiz-adv-x="328" 
d="M197 868q-31 -26 -31 -74q0 -65 38 -125h124v-113h-94v-556h-140v556h-114v113h101q-55 83 -55 153q0 55 28.5 98t80 67.5t118.5 24.5q98 0 193.5 -39.5t167.5 -90t151 -115.5l-64 -75q-107 87 -218 144.5t-207 57.5q-48 0 -79 -26z" />
    <glyph glyph-name="uni0940" unicode="&#x940;" horiz-adv-x="328" 
d="M328 556h-94v-556h-140v556h-114v113h104q-43 106 -82.5 162t-90.5 56q-34 0 -54.5 -19.5t-20.5 -48.5q0 -42 38 -88l-78 -39q-38 29 -65 70.5t-27 89.5q0 42 23 76t63.5 53.5t89.5 19.5q82 0 142.5 -44.5t102 -115.5t81.5 -172h122v-113z" />
    <glyph glyph-name="uni0941" unicode="&#x941;" horiz-adv-x="0" 
d="M-445 -179l69 82q55 -54 101.5 -83.5t104.5 -29.5q32 0 53 15t21 39q0 23 -19.5 37t-48.5 14q-50 0 -100 -25l-39 103q62 36 139 36q90 0 148.5 -44.5t58.5 -120.5q0 -50 -27 -88t-75 -59t-110 -21q-145 0 -276 145z" />
    <glyph glyph-name="uni0942" unicode="&#x942;" horiz-adv-x="0" 
d="M110 -135l-70 -83q-53 53 -100.5 83t-105.5 30q-32 0 -52.5 -15t-20.5 -38t19.5 -37.5t47.5 -14.5q50 0 100 25l40 -102q-65 -37 -140 -37q-90 0 -148.5 45t-58.5 121q0 50 27 88t75 58.5t110 20.5q145 0 277 -144z" />
    <glyph glyph-name="uni0943" unicode="&#x943;" horiz-adv-x="0" 
d="M-222 -263q-42 20 -64.5 55.5t-22.5 78.5q0 58 44.5 106.5t133.5 84.5l55 -99q-58 -17 -85.5 -40t-27.5 -49q0 -21 16 -32t46 -11q25 0 53 8t45 21l48 -98q-27 -20 -64.5 -32.5t-80.5 -12.5q-54 0 -96 20z" />
    <glyph glyph-name="uni0944" unicode="&#x944;" horiz-adv-x="0" 
d="M116 -430q-29 -24 -68 -38.5t-85 -14.5q-53 0 -94.5 20t-64.5 55t-23 78q0 32 13 61q-48 17 -75.5 54.5t-27.5 85.5q0 58 44.5 106.5t133.5 84.5l55 -99q-58 -17 -85.5 -40t-27.5 -49q0 -21 16 -32t46 -11q25 0 53 8t45 21l48 -98q-43 -31 -95 -40q-23 -23 -23 -49
q0 -21 16 -31.5t45 -10.5q26 0 55.5 9.5t48.5 26.5z" />
    <glyph glyph-name="uni0945" unicode="&#x945;" horiz-adv-x="0" 
d="M-292.5 770.5q-64.5 42.5 -99.5 110.5l90 63q61 -102 156 -102t156 102l90 -63q-37 -69 -100.5 -111t-145.5 -42t-146.5 42.5z" />
    <glyph glyph-name="uni0946" unicode="&#x946;" horiz-adv-x="0" 
d="M-216 625q11 20 11 55q0 33 -18 55t-60 22q-37 0 -111 -6q-72 -6 -105 -6q-77 0 -119.5 32.5t-42.5 93.5q0 30 11 62.5t29 56.5l125 -29q-26 -31 -26 -64q0 -38 41 -38q31 0 99 6t99 6q106 0 161.5 -52.5t55.5 -139.5q0 -32 -11 -57z" />
    <glyph glyph-name="uni0947" unicode="&#x947;" horiz-adv-x="0" 
d="M-270 725q-33 75 -68.5 110t-86.5 35q-47 0 -90 -13l-24 107q51 21 113 21q93 0 156.5 -57.5t122.5 -186.5l50 -109h-132z" />
    <glyph glyph-name="uni0948" unicode="&#x948;" horiz-adv-x="0" 
d="M-149 633l5 -9h-112l-52 79q-43 68 -115 68q-52 0 -97 -20l-24 107q57 29 120 29q78 0 150 -65q-30 60 -50 90.5t-43 44.5t-56 14q-38 0 -73 -13l-24 107q52 21 113 21q65 0 111.5 -32.5t88 -106t91.5 -206.5l41 -108h-74z" />
    <glyph glyph-name="uni0949" unicode="&#x949;" horiz-adv-x="328" 
d="M0 0zM328 556h-94v-556h-140v556h-114v113h348v-113zM18.5 770.5q-64.5 42.5 -99.5 110.5l90 63q61 -102 156 -102t156 102l90 -63q-37 -69 -100.5 -111t-145.5 -42t-146.5 42.5z" />
    <glyph glyph-name="uni094A" unicode="&#x94a;" horiz-adv-x="328" 
d="M328 556h-94v-556h-140v556h-114v113h123v11q0 33 -18 55t-61 22q-36 0 -110 -6q-72 -6 -105 -6q-77 0 -119.5 32.5t-42.5 93.5q0 30 11 62.5t28 56.5l126 -29q-26 -31 -26 -64q0 -38 41 -38q33 0 99 6q68 6 98 6q106 0 162 -52.5t56 -139.5v-10h86v-113z" />
    <glyph glyph-name="uni094B" unicode="&#x94b;" horiz-adv-x="328" 
d="M328 556h-94v-556h-140v556h-114v113h103l-25 56q-33 75 -68.5 110t-86.5 35q-47 0 -90 -13l-24 107q51 21 113 21q93 0 156.5 -57.5t122.5 -186.5l33 -72h114v-113z" />
    <glyph glyph-name="uni094C" unicode="&#x94c;" horiz-adv-x="328" 
d="M328 556h-94v-556h-140v556h-114v113h61l-22 34q-43 68 -116 68q-51 0 -97 -20l-24 107q57 29 120 29q82 0 150 -65q-30 60 -50 90.5t-42.5 44.5t-55.5 14q-39 0 -73 -13l-24 107q50 21 112 21q65 0 111.5 -32.5t88 -105.5t92.5 -207l27 -72h90v-113z" />
    <glyph glyph-name="uni094D" unicode="&#x94d;" horiz-adv-x="0" 
d="M24 -271q-121 86 -234 113v-54q-33 -12 -63 -12q-46 0 -75 25t-29 60q0 42 32 63t84 21q79 0 172.5 -48t160.5 -104z" />
    <glyph glyph-name="uni0950" unicode="&#x950;" horiz-adv-x="1137" 
d="M656 743q-27 27 -27 64q0 38 27 65t64 27t64 -27t27 -65q0 -37 -26.5 -64t-64.5 -27q-37 0 -64 27zM574.5 565.5q-64.5 42.5 -99.5 110.5l90 63q61 -102 156 -102t156 102l90 -63q-37 -69 -100.5 -111t-145.5 -42t-146.5 42.5zM1007 481q47 -29 72.5 -77t25.5 -104
t-24.5 -101t-69.5 -70.5t-103 -25.5q-102 0 -174 86q-29 -40 -62 -62.5t-74 -22.5q-43 0 -93 33q-16 -59 -71 -95.5t-137 -36.5q-175 0 -297 193l71 85q47 -73 105 -119t116 -46q37 0 58 21.5t21 59.5q0 51 -38 94q-46 -13 -113 -16l-34 114q72 5 109.5 17.5t50.5 32.5
t13 50q0 34 -20.5 56.5t-59.5 22.5q-55 0 -144 -70l-59 105q49 36 97.5 58t99.5 22q59 0 111 -24.5t83.5 -73t31.5 -115.5q0 -82 -62 -131q22 -20 35 -41q36 -42 59 -62t51 -20q23 0 43.5 25t55.5 81q34 57 62 94.5t67.5 64.5t89.5 27q60 0 107 -29zM946 242.5
q20 25.5 20 65.5q0 38 -18 63t-47 25q-30 0 -54 -29t-58 -88q44 -62 103 -62q34 0 54 25.5z" />
    <glyph glyph-name="uni0951" unicode="&#x951;" horiz-adv-x="0" 
d="M-233 1031h139v-278h-139v278z" />
    <glyph glyph-name="uni0952" unicode="&#x952;" horiz-adv-x="0" 
d="M-442 -168h551v-114h-551v114z" />
    <glyph glyph-name="uni0953" unicode="&#x953;" horiz-adv-x="0" 
d="M-454 1031h155l220 -275h-139z" />
    <glyph glyph-name="uni0954" unicode="&#x954;" horiz-adv-x="0" 
d="M-22 1031h154l-236 -275h-139z" />
    <glyph glyph-name="uni0956" unicode="&#x956;" horiz-adv-x="0" 
d="M-381 -197.5q-69 44.5 -106 119.5l100 59q27 -48 67 -79t95 -31q100 0 163 110l99 -59q-37 -75 -106 -119.5t-156 -44.5t-156 44.5z" />
    <glyph glyph-name="uni0957" unicode="&#x957;" horiz-adv-x="0" 
d="M-381 -197.5q-69 44.5 -106 119.5l100 59q27 -48 67 -79t95 -31q100 0 163 110l99 -59q-37 -75 -106 -119.5t-156 -44.5t-156 44.5zM-381 -424.5q-69 44.5 -106 119.5l100 59q27 -48 67 -79t95 -31q100 0 163 110l99 -59q-37 -75 -106 -119.5t-156 -44.5t-156 44.5z" />
    <glyph glyph-name="uni0958" unicode="&#x958;" horiz-adv-x="874" 
d="M0 0zM514 556v-155q73 54 141 54q58 0 101 -25.5t66 -66.5t23 -86q0 -126 -100 -247l-130 75q90 109 90 177q0 27 -15.5 42.5t-41.5 15.5q-35 0 -67 -20.5t-67 -59.5v-260h-140v153q-34 -24 -68.5 -39t-76.5 -15q-60 0 -105 25t-69.5 67t-24.5 93q0 53 24 96.5t67.5 69.5
t100.5 26q46 0 85 -15t67 -37v132h-394v113h894v-113h-360zM310.5 234q33.5 21 63.5 55v2q-27 32 -59.5 51.5t-65.5 19.5q-34 0 -56.5 -22t-22.5 -56q0 -31 20.5 -51t54.5 -20q32 0 65.5 21zM121.5 23q26.5 27 64.5 27t64.5 -27t26.5 -64q0 -38 -26.5 -64.5t-64.5 -26.5
t-64.5 26.5t-26.5 64.5q0 37 26.5 64z" />
    <glyph glyph-name="uni0959" unicode="&#x959;" horiz-adv-x="910" 
d="M0 0zM910 556h-94v-567h-140v76q-59 -41 -129.5 -63.5t-137.5 -22.5q-107 0 -191 54.5t-129 154.5t-40 230l121 17q-1 -27 1 -74q11 -8 25 -8q17 0 30.5 18.5t13.5 53.5q0 32 -11 66t-30 65h-219v113h930v-113zM676 556h-337q40 -67 40 -144q0 -57 -21.5 -96t-54.5 -57.5
t-69 -18.5q-20 0 -39 7q29 -78 86 -116t128 -38q70 0 139 24.5t128 71.5v32q-52 -40 -108 -40q-49 0 -86.5 21.5t-57.5 56t-20 71.5q0 48 22.5 86t60 59t81.5 21q61 0 108 -43v103zM676 339q-40 55 -86 55q-26 0 -42 -15.5t-16 -41.5q0 -25 15 -39.5t41 -14.5q21 0 44 14
t44 39v3zM89.5 -35q26.5 27 64.5 27t64.5 -27t26.5 -64q0 -38 -26.5 -64.5t-64.5 -26.5t-64.5 26.5t-26.5 64.5q0 37 26.5 64z" />
    <glyph glyph-name="uni095A" unicode="&#x95a;" horiz-adv-x="680" 
d="M0 0zM680 556h-94v-556h-139v556h-159v-281q0 -61 -27.5 -93.5t-79.5 -32.5q-34 0 -63.5 18t-47 50t-17.5 72q0 28 9 56h87v211h-169v113h700v-113zM93.5 56q26.5 27 64.5 27t64.5 -27t26.5 -64q0 -38 -26.5 -64.5t-64.5 -26.5t-64.5 26.5t-26.5 64.5q0 37 26.5 64z" />
    <glyph glyph-name="uni095B" unicode="&#x95b;" horiz-adv-x="791" 
d="M0 0zM791 556h-94v-556h-140v346h-127q74 -67 74 -140q0 -45 -22.5 -80.5t-60.5 -54.5t-81 -19q-130 0 -205.5 92.5t-118.5 271.5l110 32q25 -97 57 -160.5t64.5 -93t61.5 -29.5q55 0 55 58q0 37 -29.5 74.5t-86.5 84.5l34 77h275v97h-577v113h811v-113zM107.5 -10
q26.5 27 64.5 27t64.5 -27t26.5 -64q0 -38 -26.5 -64.5t-64.5 -26.5t-64.5 26.5t-26.5 64.5q0 37 26.5 64z" />
    <glyph glyph-name="uni095C" unicode="&#x95c;" horiz-adv-x="616" 
d="M0 0zM221 342q0 -37 81 -37q44 0 97.5 7t95.5 19q38 -25 65 -69t27 -91q0 -83 -63.5 -132t-178.5 -49q-92 0 -171.5 33.5t-140.5 94.5l57 89q115 -104 244 -104q57 0 85 17.5t28 41.5q0 21 -15 44q-65 -15 -128 -15q-110 0 -166.5 44t-56.5 111q0 61 43.5 102.5
t120.5 41.5h126v66h-391v113h636v-113h-106v-180h-244q-45 0 -45 -34zM276.5 -87q26.5 27 64.5 27t64.5 -27t26.5 -64q0 -38 -26.5 -64.5t-64.5 -26.5t-64.5 26.5t-26.5 64.5q0 37 26.5 64z" />
    <glyph glyph-name="uni095D" unicode="&#x95d;" horiz-adv-x="616" 
d="M0 0zM220 342q-30 -30 -30 -81q0 -53 21 -94.5t55 -66.5q-16 32 -16 64q0 38 20.5 68.5t54.5 47t74 16.5q45 0 82.5 -20t60 -56t22.5 -81q0 -56 -29 -96t-74.5 -60t-93.5 -20q-81 0 -154 39t-118 109t-45 157q0 97 60 157.5t177 60.5h59v70h-366v113h636v-113h-131v-184
h-174q-61 0 -91 -30zM376.5 176q-11.5 -14 -11.5 -37q0 -36 17 -62q32 7 49.5 24.5t17.5 41.5q0 21 -12 34t-30 13q-19 0 -30.5 -14zM277.5 -118q26.5 27 64.5 27t64.5 -27t26.5 -64q0 -38 -26.5 -64.5t-64.5 -26.5t-64.5 26.5t-26.5 64.5q0 37 26.5 64z" />
    <glyph glyph-name="uni095E" unicode="&#x95e;" horiz-adv-x="875" 
d="M0 0zM517 402q73 52 139 52q58 0 101 -25t66 -66t23 -86q0 -126 -100 -247l-130 75q90 109 90 177q0 27 -15.5 42.5t-41.5 15.5q-51 0 -132 -67v-273h-140v184q-57 -31 -114 -31q-95 0 -144 49.5t-49 147.5v206h-90v113h895v-113h-358v-154zM377 301v255h-167v-211
q0 -78 64 -78q54 0 103 34zM86.5 82q26.5 27 64.5 27t64.5 -27t26.5 -64q0 -38 -26.5 -64.5t-64.5 -26.5t-64.5 26.5t-26.5 64.5q0 37 26.5 64z" />
    <glyph glyph-name="uni095F" unicode="&#x95f;" horiz-adv-x="658" 
d="M0 0zM658 556h-94v-556h-140v156q-31 -24 -71.5 -37.5t-83.5 -13.5q-99 0 -168.5 64.5t-90.5 180.5q84 25 120 50.5t36 59.5q0 52 -55 96h-131v113h678v-113zM424 556h-161q40 -42 40 -98q0 -51 -35 -97.5t-104 -78.5q35 -63 105 -63q40 0 81 19t74 53v265zM8.5 65
q26.5 27 64.5 27t64.5 -27t26.5 -64q0 -38 -26.5 -64.5t-64.5 -26.5t-64.5 26.5t-26.5 64.5q0 37 26.5 64z" />
    <glyph glyph-name="uni0960" unicode="&#x960;" horiz-adv-x="893" 
d="M1025 -232q-29 -24 -68 -38.5t-85 -14.5q-53 0 -94.5 20t-64.5 55t-23 78q0 32 13 61q-48 17 -75.5 54.5t-27.5 85.5q0 82 87 144l-22 51q-61 -23 -118 -23q-13 0 -19 1v-242h-140v179l-227 -173l-85 111l294 195q-41 30 -74 42.5t-67 12.5q-44 0 -138 -45l-66 120
q103 39 204 39q40 0 77.5 -12t81.5 -41v128h-408v113h913v-113h-365v-200q7 -1 21 -1q34 0 71 12l-35 81q18 28 45.5 43.5t57.5 15.5q48 0 74.5 -29.5t26.5 -69.5q0 -48 -35 -85l79 -162q-113 -33 -113 -89q0 -21 16 -32t46 -11q25 0 52 8t45 21l49 -98q-41 -30 -95 -40
q-23 -23 -23 -49q0 -21 16 -31.5t45 -10.5q26 0 55.5 9.5t48.5 26.5z" />
    <glyph glyph-name="uni0961" unicode="&#x961;" horiz-adv-x="800" 
d="M926 -286q-28 -23 -67.5 -37.5t-85.5 -14.5q-54 0 -95 20t-64 54.5t-23 78.5q0 22 6 43q-57 13 -93 51t-36 96q0 42 22 77t66 84q36 40 53 65.5t17 52.5t-15.5 41.5t-42.5 14.5q-44 0 -76.5 -46.5t-48.5 -126.5l-140 26q12 70 39 121q-40 43 -86 43q-30 0 -53 -22.5
t-23 -62.5q0 -64 37 -119.5t115 -124.5l-80 -81q-97 79 -154.5 166.5t-57.5 172.5q0 89 55.5 137.5t143.5 48.5q51 0 92 -24t68 -59q43 41 95 56v111h-514v113h820v-113h-166v-110q62 -19 97 -65.5t35 -101.5q0 -41 -24 -77.5t-69 -85.5q-34 -37 -51 -61.5t-17 -46.5
q0 -21 14.5 -32t39.5 -11q30 0 61 14.5t59 39.5l46 -99q-46 -39 -88 -54q-26 -22 -26 -49q0 -20 16 -31t45 -11q27 0 57.5 10.5t49.5 28.5z" />
    <glyph glyph-name="uni0962" unicode="&#x962;" horiz-adv-x="0" 
d="M61 -441q-32 -25 -66 -39.5t-79 -14.5q-58 0 -102.5 30t-44.5 79q0 34 19 64t54 71q23 25 33.5 40.5t10.5 28.5q0 12 -8 18t-20 6q-28 0 -50.5 -32.5t-31.5 -84.5l-120 20q7 50 25 92q-17 14 -38 14q-19 0 -30 -13.5t-11 -36.5q0 -81 103 -155l-79 -81q-81 64 -122 122
t-41 135q0 64 44 103.5t109 39.5q67 0 120 -51q13 12 30 21v78h140v-63q53 -13 85 -50.5t32 -82.5q0 -32 -19 -59t-55 -63q-22 -22 -32 -34.5t-10 -23.5q0 -18 27 -18q17 0 39 11t42 29z" />
    <glyph glyph-name="uni0963" unicode="&#x963;" horiz-adv-x="0" 
d="M134 -593q-24 -18 -57.5 -30t-72.5 -12q-69 0 -111 34.5t-42 89.5q0 12 3 26q-38 13 -61.5 38.5t-23.5 60.5q0 34 19 64t54 71q23 25 33.5 40.5t10.5 28.5q0 12 -8 18t-20 6q-28 0 -50.5 -32.5t-31.5 -84.5l-120 20q7 50 25 92q-17 14 -38 14q-19 0 -30 -13.5t-11 -36.5
q0 -81 103 -155l-79 -81q-81 64 -122 122t-41 135q0 64 44 103.5t109 39.5q67 0 120 -51q13 12 30 21v78h140v-63q53 -13 85 -50.5t32 -82.5q0 -32 -19 -59t-55 -63q-22 -22 -32 -34.5t-10 -23.5q0 -18 27 -18q17 0 39 11t42 29l46 -100q-33 -25 -63 -38q-9 -9 -9 -20
t8.5 -17t23.5 -6t33.5 8t34.5 20z" />
    <glyph glyph-name="uni0964" unicode="&#x964;" horiz-adv-x="416" 
d="M181 669h140v-669h-140v669z" />
    <glyph glyph-name="uni0965" unicode="&#x965;" horiz-adv-x="681" 
d="M181 669h140v-669h-140v669zM447 669h140v-669h-140v669z" />
    <glyph glyph-name="uni0966" unicode="&#x966;" horiz-adv-x="631" 
d="M186.5 98.5q-52.5 30.5 -78.5 82.5t-26 116q0 65 26 117t78.5 82.5t128.5 30.5t129 -30.5t79 -82.5t26 -117q0 -64 -26 -116t-79 -82.5t-129 -30.5t-128.5 30.5zM382 214.5q25 32.5 25 82.5t-25 83t-68 33t-67.5 -33t-24.5 -83t24.5 -82.5t67.5 -32.5t68 32.5z" />
    <glyph glyph-name="uni0967" unicode="&#x967;" horiz-adv-x="631" 
d="M533 -9q23 -37 23 -71q0 -37 -15.5 -69.5t-51.5 -69.5l-119 59q18 21 26.5 38t8.5 33q0 26 -13 49t-47 55l-242 229q84 62 133 101q-133 70 -133 190q0 77 58 122.5t147 45.5q59 0 105 -25.5t71.5 -69t25.5 -94.5q0 -73 -52.5 -137t-159.5 -149l161 -152q51 -48 74 -85z
M260 570q-17 -19 -17 -49q0 -67 79 -98q48 51 48 97q0 29 -17 49t-45 20q-31 0 -48 -19z" />
    <glyph glyph-name="uni0968" unicode="&#x968;" horiz-adv-x="631" 
d="M490 295q-48 -65 -128 -91l165 -213l-130 -70l-154 271q-71 7 -116.5 36.5t-45.5 68.5t37 66.5t98 28.5l59 -76q55 12 89 51t34 92q0 48 -31 80t-89 32q-30 0 -65 -14.5t-76 -39.5l-61 109q52 28 100.5 43.5t101.5 15.5q71 0 130.5 -27.5t94.5 -81.5t35 -128
q0 -88 -48 -153z" />
    <glyph glyph-name="uni0969" unicode="&#x969;" horiz-adv-x="631" 
d="M512 87.5q-56 -56.5 -151 -78.5l100 -147l-125 -66l-91 202q-61 4 -101.5 34.5t-40.5 71.5q0 36 36.5 61t98.5 26l52 -77q62 10 100 43t38 77q0 40 -24 65.5t-70 25.5q-64 0 -148 -48l-57 106q92 52 186 56q9 27 9 53q0 37 -24 57.5t-65 20.5q-35 0 -66.5 -13.5
t-69.5 -38.5l-61 108q50 27 97 43t100 16q61 0 113 -24.5t84 -72.5t32 -115q0 -32 -10 -62q53 -27 83.5 -74.5t30.5 -113.5q0 -79 -56 -135.5z" />
    <glyph glyph-name="uni096A" unicode="&#x96a;" horiz-adv-x="631" 
d="M427 387q68 -48 95 -96.5t27 -101.5q0 -58 -32.5 -100.5t-85 -64.5t-113.5 -22q-59 0 -112 24.5t-85.5 67.5t-32.5 95q0 58 25 105t91 95q-49 32 -93.5 69t-96.5 92l81 101q-7 7 71 -68q48 -47 80 -75.5t65 -50.5q47 32 98 78t127 121l81 -100q-107 -110 -190 -169z
M381.5 138q27.5 21 27.5 51q0 35 -20 62.5t-71 63.5q-49 -36 -69.5 -64.5t-20.5 -61.5q0 -32 26 -52t64 -20q36 0 63.5 21z" />
    <glyph glyph-name="uni096B" unicode="&#x96b;" horiz-adv-x="631" 
d="M504 -88l-93 210q-57 -21 -123 -21t-114 26t-73 72t-25 103q0 140 125 369l140 -58q-44 -73 -67.5 -116.5t-40.5 -94t-17 -100.5q0 -43 19.5 -65.5t52.5 -22.5q23 0 40 5t33 17l-33 75q19 25 48 42.5t63 17.5q45 0 73.5 -28.5t28.5 -76.5q0 -47 -40 -87l129 -201z" />
    <glyph glyph-name="uni096C" unicode="&#x96c;" horiz-adv-x="631" 
d="M523 -176l-86 196q-55 -22 -120 -22q-70 0 -121 26t-78 71t-27 102q0 69 50 127q-116 78 -116 184q0 47 24.5 87.5t69 65t101.5 24.5q45 0 75.5 -8.5t59.5 -23.5l-33 -105q-42 23 -77 23q-37 0 -58.5 -21t-21.5 -57q0 -57 73 -98q81 37 171 38l14 -114q-56 3 -99.5 -13
t-68 -46t-24.5 -69t23.5 -59.5t62.5 -20.5q22 0 39 4.5t32 15.5l-34 77q20 22 48.5 37t62.5 15q42 0 68 -27t26 -71q0 -43 -34 -82l123 -190z" />
    <glyph glyph-name="uni096D" unicode="&#x96d;" horiz-adv-x="631" 
d="M520 609.5q48 -40.5 74.5 -114t26.5 -167.5t-28.5 -165.5t-84.5 -111.5t-135 -40q-159 0 -248.5 152t-112.5 488l114 19q22 -275 85 -410.5t162 -135.5q40 0 66.5 34.5t35.5 94.5q-15 -4 -32 -4q-72 0 -121.5 28t-73.5 74.5t-24 102.5q0 52 22 97t64 72t98 27
q64 0 112 -40.5zM480 369q-4 79 -23.5 123.5t-48.5 44.5q-19 0 -31.5 -23.5t-12.5 -59.5q0 -41 18 -66t57 -25q19 0 41 6z" />
    <glyph glyph-name="uni096E" unicode="&#x96e;" horiz-adv-x="631" 
d="M176 -12.5q-58 28.5 -88.5 78t-30.5 111.5q0 70 32 135t103 147.5t217 231.5l101 -93q-133 -131 -199.5 -208t-90 -123.5t-23.5 -89.5q0 -47 30 -75t86 -28q97 0 209 104l77 -115q-67 -53 -136.5 -78.5t-149.5 -25.5q-79 0 -137 28.5z" />
    <glyph glyph-name="uni096F" unicode="&#x96f;" horiz-adv-x="631" 
d="M637.5 -8.5q23.5 -37.5 23.5 -71.5q0 -37 -15.5 -69.5t-52.5 -69.5l-118 59q18 21 26.5 38t8.5 33q0 26 -13 49t-48 56l-273 257q-56 52 -88 89t-50 78.5t-18 92.5q0 44 24 83t70 63t109 24t108 -25t68 -67.5t23 -94.5q0 -54 -36 -100.5t-106 -73.5l12 -11l272 -255
q50 -47 73.5 -84.5zM177 570q-17 -19 -17 -48q0 -44 33 -88q89 24 89 92q0 28 -15 45.5t-44 17.5t-46 -19z" />
    <glyph glyph-name="uni0970" unicode="&#x970;" horiz-adv-x="551" 
d="M167.5 103.5q-44.5 25.5 -68 70t-23.5 98.5q0 55 23.5 99.5t68 70t106.5 25.5q61 0 105.5 -25.5t68 -70t23.5 -99.5q0 -54 -23.5 -98.5t-68 -70t-105.5 -25.5q-62 0 -106.5 25.5zM316.5 213.5q14.5 21.5 14.5 58.5q0 38 -14.5 59.5t-42.5 21.5t-42.5 -21.5t-14.5 -59.5
q0 -37 14.5 -58.5t42.5 -21.5t42.5 21.5z" />
    <glyph glyph-name="uni0971" unicode="&#x971;" horiz-adv-x="368" 
d="M85 521zM112 677q27 27 64 27t64 -27t27 -65q0 -37 -27 -64t-64 -27q-38 0 -64.5 27t-26.5 64q0 38 27 65z" />
    <glyph glyph-name="uni0972" unicode="&#x972;" horiz-adv-x="864" 
d="M0 0zM864 556h-94v-556h-140v224q-41 -18 -87 -18q-12 0 -34 2q2 -16 2 -26q0 -49 -26 -89.5t-74.5 -64t-113.5 -23.5q-175 0 -297 193l71 85q47 -73 105 -119t116 -46q37 0 58 21.5t21 59.5q0 51 -38 94q-46 -13 -113 -16l-34 114q72 5 109.5 17.5t50.5 32.5t13 50
q0 34 -20.5 56.5t-59.5 22.5q-55 0 -144 -70l-59 105q49 36 97.5 58t99.5 22q59 0 111 -24.5t83.5 -73t31.5 -115.5q0 -81 -61 -130q53 -22 105 -22q50 0 87 20v216h-115v113h349v-113zM553.5 770.5q-64.5 42.5 -99.5 110.5l90 63q61 -102 156 -102t156 102l90 -63
q-37 -69 -100.5 -111t-145.5 -42t-146.5 42.5z" />
    <glyph glyph-name="uni0973" unicode="&#x973;" horiz-adv-x="864" 
d="M864 556h-94v-556h-140v224q-41 -18 -87 -18q-12 0 -34 2q2 -16 2 -26q0 -49 -26 -89.5t-74.5 -64t-113.5 -23.5q-175 0 -297 193l71 85q47 -73 105 -119t116 -46q37 0 58 21.5t21 59.5q0 51 -38 94q-46 -13 -113 -16l-34 114q72 5 109.5 17.5t50.5 32.5t13 50
q0 34 -20.5 56.5t-59.5 22.5q-55 0 -144 -70l-59 105q49 36 97.5 58t99.5 22q59 0 111 -24.5t83.5 -73t31.5 -115.5q0 -81 -61 -130q53 -22 105 -22q50 0 87 20v216h-115v113h117v264h140v-264h92v-113z" />
    <glyph glyph-name="uni0974" unicode="&#x974;" horiz-adv-x="1192" 
d="M1192 556h-94v-556h-140v556h-188v-556h-140v224q-41 -18 -87 -18q-12 0 -34 2q2 -16 2 -26q0 -49 -26 -89.5t-74.5 -64t-113.5 -23.5q-175 0 -297 193l71 85q47 -73 105 -119t116 -46q37 0 58 21.5t21 59.5q0 51 -38 94q-46 -13 -113 -16l-34 114q72 5 109.5 17.5
t50.5 32.5t13 50q0 34 -20.5 56.5t-59.5 22.5q-55 0 -144 -70l-59 105q49 36 97.5 58t99.5 22q59 0 111 -24.5t83.5 -73t31.5 -115.5q0 -81 -61 -130q53 -22 105 -22q50 0 87 20v216h-115v113h443v264h140v-264h94v-113z" />
    <glyph glyph-name="uni0976" unicode="&#x976;" horiz-adv-x="864" 
d="M0 0zM864 556h-94v-556h-140v224q-41 -18 -87 -18q-12 0 -34 2q2 -16 2 -26q0 -49 -26 -89.5t-74.5 -64t-113.5 -23.5q-175 0 -297 193l71 85q47 -73 105 -119t116 -46q37 0 58 21.5t21 59.5q0 51 -38 94q-46 -13 -113 -16l-34 114q72 5 109.5 17.5t50.5 32.5t13 50
q0 34 -20.5 56.5t-59.5 22.5q-55 0 -144 -70l-59 105q49 36 97.5 58t99.5 22q59 0 111 -24.5t83.5 -73t31.5 -115.5q0 -81 -61 -130q53 -22 105 -22q50 0 87 20v216h-115v113h349v-113zM544 -197.5q-69 44.5 -106 119.5l100 59q27 -48 67 -79t95 -31q100 0 163 110l99 -59
q-37 -75 -106 -119.5t-156 -44.5t-156 44.5z" />
    <glyph glyph-name="uni0977" unicode="&#x977;" horiz-adv-x="864" 
d="M0 0zM864 556h-94v-556h-140v224q-41 -18 -87 -18q-12 0 -34 2q2 -16 2 -26q0 -49 -26 -89.5t-74.5 -64t-113.5 -23.5q-175 0 -297 193l71 85q47 -73 105 -119t116 -46q37 0 58 21.5t21 59.5q0 51 -38 94q-46 -13 -113 -16l-34 114q72 5 109.5 17.5t50.5 32.5t13 50
q0 34 -20.5 56.5t-59.5 22.5q-55 0 -144 -70l-59 105q49 36 97.5 58t99.5 22q59 0 111 -24.5t83.5 -73t31.5 -115.5q0 -81 -61 -130q53 -22 105 -22q50 0 87 20v216h-115v113h349v-113zM544 -197.5q-69 44.5 -106 119.5l100 59q27 -48 67 -79t95 -31q100 0 163 110l99 -59
q-37 -75 -106 -119.5t-156 -44.5t-156 44.5zM544 -424.5q-69 44.5 -106 119.5l100 59q27 -48 67 -79t95 -31q100 0 163 110l99 -59q-37 -75 -106 -119.5t-156 -44.5t-156 44.5z" />
    <glyph glyph-name="uni0979" unicode="&#x979;" horiz-adv-x="791" 
d="M0 0zM791 556h-94v-556h-140v346h-127q74 -67 74 -140q0 -45 -22.5 -80.5t-60.5 -54.5t-81 -19q-130 0 -205.5 92.5t-118.5 271.5l110 32q25 -97 57 -160.5t64.5 -93t61.5 -29.5q55 0 55 58q0 37 -29.5 74.5t-86.5 84.5l34 77h275v97h-577v113h811v-113zM121.5 8
q26.5 27 64.5 27t64.5 -27t26.5 -64q0 -38 -26.5 -64.5t-64.5 -26.5t-64.5 26.5t-26.5 64.5q0 37 26.5 64zM377.5 8q26.5 27 64.5 27t64.5 -27t26.5 -64q0 -38 -26.5 -64.5t-64.5 -26.5t-64.5 26.5t-26.5 64.5q0 37 26.5 64zM249.5 -169q26.5 27 64.5 27t64.5 -27t26.5 -64
q0 -38 -26.5 -64.5t-64.5 -26.5t-64.5 26.5t-26.5 64.5q0 37 26.5 64z" />
    <glyph glyph-name="uni097A" unicode="&#x97a;" horiz-adv-x="658" 
d="M658 556h-94v-556h-140v156q-31 -24 -71.5 -37.5t-83.5 -13.5q-99 0 -168.5 64.5t-90.5 180.5q84 25 120 50.5t36 59.5q0 52 -55 96h-131v113h678v-113zM424 556h-161l6 -6h1l154 -223v229zM269 219q30 0 62 11.5t61 31.5l-99 143q-29 -77 -129 -123q35 -63 105 -63z" />
    <glyph glyph-name="uni097B" unicode="&#x97b;" horiz-adv-x="680" 
d="M680 556h-94v-556h-1v-83h-496v113h358v526h-159v-281q0 -61 -27.5 -93.5t-79.5 -32.5q-34 0 -63.5 18t-47 50t-17.5 72q0 28 9 56h87v211h-169v113h700v-113z" />
    <glyph glyph-name="uni097C" unicode="&#x97c;" horiz-adv-x="791" 
d="M697 556v-547h1v-114h-657v114h516v337h-127q74 -67 74 -140q0 -45 -22.5 -80.5t-60.5 -54.5t-81 -19q-130 0 -205.5 92.5t-118.5 271.5l110 32q25 -97 57 -160.5t64.5 -93t61.5 -29.5q55 0 55 58q0 37 -29.5 74.5t-86.5 84.5l34 77h275v97h-577v113h811v-113h-94z" />
    <glyph glyph-name="uni097D" unicode="&#x97d;" horiz-adv-x="615" 
d="M482.5 320.5q-44.5 -54.5 -135.5 -75.5v-245h-140v346q74 7 113.5 23t53 40.5t13.5 61.5q0 43 -20.5 71t-60.5 28q-33 0 -69 -19t-79 -52l-58 105q51 38 99.5 59.5t100.5 21.5q60 0 112 -27t83.5 -80t31.5 -126q0 -77 -44.5 -131.5z" />
    <glyph glyph-name="uni097E" unicode="&#x97e;" horiz-adv-x="616" 
d="M221 342q0 -37 81 -37q44 0 97.5 7t95.5 19q38 -25 65 -69t27 -91q0 -83 -63.5 -132t-178.5 -49q-92 0 -171.5 33.5t-140.5 94.5l57 89q115 -104 244 -104q57 0 85 17.5t28 41.5q0 21 -15 44q-65 -15 -128 -15q-110 0 -166.5 44t-56.5 111q0 61 43.5 102.5t120.5 41.5
h126v66h-391v113h636v-113h-106v-180h-244q-45 0 -45 -34zM53 -76h514v-113h-514v113z" />
    <glyph glyph-name="uni097F" unicode="&#x97f;" horiz-adv-x="660" 
d="M659 556h-94v-661h-486v114h346v137q-88 -67 -174 -67q-68 0 -117.5 27t-75.5 73t-26 102q0 59 27 107.5t78 77t119 28.5q50 0 93.5 -20t75.5 -49v131h-445v113h679v-113zM425 289v1q-33 41 -72.5 65.5t-82.5 24.5h-8l98 -149q37 26 65 58zM195 219.5q23 -25.5 64 -25.5
q23 0 51 10l-103 156q-17 -14 -26 -33.5t-9 -42.5q0 -39 23 -64.5z" />
    <glyph glyph-name="uni2000" unicode="&#x2000;" horiz-adv-x="759" 
 />
    <glyph glyph-name="uni2001" unicode="&#x2001;" horiz-adv-x="671" 
 />
    <glyph glyph-name="uni2002" unicode="&#x2002;" horiz-adv-x="582" 
 />
    <glyph glyph-name="uni2003" unicode="&#x2003;" horiz-adv-x="671" 
 />
    <glyph glyph-name="uni2004" unicode="&#x2004;" horiz-adv-x="553" 
 />
    <glyph glyph-name="uni2005" unicode="&#x2005;" horiz-adv-x="538" 
 />
    <glyph glyph-name="uni2006" unicode="&#x2006;" horiz-adv-x="524" 
 />
    <glyph glyph-name="uni2007" unicode="&#x2007;" horiz-adv-x="605" 
 />
    <glyph glyph-name="uni2008" unicode="&#x2008;" horiz-adv-x="556" 
 />
    <glyph glyph-name="uni2009" unicode="&#x2009;" horiz-adv-x="529" 
 />
    <glyph glyph-name="uni200A" unicode="&#x200a;" horiz-adv-x="512" 
 />
    <glyph glyph-name="uni200C" unicode="&#x200c;" horiz-adv-x="494" 
 />
    <glyph glyph-name="uni200D" unicode="&#x200d;" horiz-adv-x="494" 
 />
    <glyph glyph-name="endash" unicode="&#x2013;" horiz-adv-x="500" 
d="M0 342h500v-109h-500v109z" />
    <glyph glyph-name="emdash" unicode="&#x2014;" horiz-adv-x="1000" 
d="M125 342h750v-109h-750v109z" />
    <glyph glyph-name="quoteleft" unicode="&#x2018;" horiz-adv-x="333" 
d="M81 512q0 162 160 245l49 -63q-58 -44 -58 -138q0 -66 26 -133l-161 -22q-16 60 -16 111z" />
    <glyph glyph-name="quoteright" unicode="&#x2019;" horiz-adv-x="333" 
d="M43 464q58 44 58 139q0 65 -26 132l161 22q16 -60 16 -111q0 -162 -161 -245z" />
    <glyph glyph-name="quotesinglbase" unicode="&#x201a;" horiz-adv-x="333" 
d="M43 0zM43 -117q58 44 58 138q0 65 -26 132l161 23q16 -60 16 -111q0 -86 -42.5 -146t-118.5 -100z" />
    <glyph glyph-name="quotedblleft" unicode="&#x201c;" horiz-adv-x="606" 
d="M81 401zM81 512q0 162 160 245l49 -63q-58 -44 -58 -138q0 -66 26 -133l-161 -22q-16 60 -16 111zM354 512q0 162 160 245l49 -63q-58 -44 -58 -138q0 -66 26 -133l-161 -22q-16 60 -16 111z" />
    <glyph glyph-name="quotedblright" unicode="&#x201d;" horiz-adv-x="606" 
d="M43 401zM43 464q58 44 58 139q0 65 -26 132l161 22q16 -60 16 -111q0 -162 -161 -245zM316 464q58 44 58 139q0 65 -26 132l161 22q16 -60 16 -111q0 -162 -161 -245z" />
    <glyph glyph-name="quotedblbase" unicode="&#x201e;" horiz-adv-x="606" 
d="M43 0zM43 -117q58 44 58 138q0 65 -26 132l161 23q16 -60 16 -111q0 -86 -42.5 -146t-118.5 -100zM316 -117q58 44 58 138q0 65 -26 132l161 23q16 -60 16 -111q0 -86 -42.5 -146t-118.5 -100z" />
    <glyph glyph-name="dagger" unicode="&#x2020;" horiz-adv-x="435" 
d="M412 515v-109h-389v109h118v165h153v-165h118zM141 334h153l-9 -485h-135z" />
    <glyph glyph-name="daggerdbl" unicode="&#x2021;" horiz-adv-x="435" 
d="M412 515v-109h-389v109h118v165h153v-165h118zM280.5 197.5q-27.5 -27.5 -66.5 -27.5t-66.5 27.5t-27.5 66.5t27.5 66.5t66.5 27.5t66.5 -27.5t27.5 -66.5t-27.5 -66.5zM23 123h389v-109h-118v-165h-153v165h-118v109z" />
    <glyph glyph-name="bullet" unicode="&#x2022;" horiz-adv-x="569" 
d="M210 156q-34 20 -54 54t-20 74t20 74.5t54 54.5t74 20t74.5 -20t54.5 -54.5t20 -74.5t-20 -74t-54.5 -54t-74.5 -20t-74 20z" />
    <glyph glyph-name="ellipsis" unicode="&#x2026;" horiz-adv-x="982" 
d="M99.5 20.5q-27.5 27.5 -27.5 66.5t27.5 66.5t66.5 27.5t66.5 -27.5t27.5 -66.5t-27.5 -66.5t-66.5 -27.5t-66.5 27.5zM424.5 20.5q-27.5 27.5 -27.5 66.5t27.5 66.5t66.5 27.5t66.5 -27.5t27.5 -66.5t-27.5 -66.5t-66.5 -27.5t-66.5 27.5zM748.5 20.5
q-27.5 27.5 -27.5 66.5t27.5 66.5t66.5 27.5t66.5 -27.5t27.5 -66.5t-27.5 -66.5t-66.5 -27.5t-66.5 27.5z" />
    <glyph glyph-name="perthousand" unicode="&#x2030;" horiz-adv-x="1534" 
d="M19 0zM795 649l-400 -692l-111 67l400 692zM111 290q-46 29 -69 77.5t-23 105.5q0 58 23 106.5t69 78t112 29.5q67 0 113 -29.5t69 -78t23 -105.5t-23 -105.5t-69 -78t-113 -29.5q-66 0 -112 29zM273 385.5q15 28.5 15 88.5t-15 89t-51 29q-35 0 -50 -29t-15 -89
t15 -88.5t50 -28.5q36 0 51 28.5zM745 18q-46 29 -69 77.5t-23 105.5q0 58 23 106.5t69 78t112 29.5q67 0 113 -29.5t69 -78t23 -105.5t-23 -105.5t-69 -78t-113 -29.5q-66 0 -112 29zM907 113.5q15 28.5 15 88.5t-15 89t-51 29q-35 0 -50 -29t-15 -89t15 -88.5t50 -28.5
q36 0 51 28.5zM1199 18q-46 29 -69 77.5t-23 105.5q0 58 23 106.5t69 78t112 29.5q67 0 113 -29.5t69 -78t23 -105.5t-23 -105.5t-69 -78t-113 -29.5q-66 0 -112 29zM1361 113.5q15 28.5 15 88.5t-15 89t-51 29q-35 0 -50 -29t-15 -89t15 -88.5t50 -28.5q36 0 51 28.5z" />
    <glyph glyph-name="guilsinglleft" unicode="&#x2039;" horiz-adv-x="360" 
d="M48 259l158 211l108 -77l-102 -134l102 -134l-108 -77z" />
    <glyph glyph-name="guilsinglright" unicode="&#x203a;" horiz-adv-x="360" 
d="M46 125l102 134l-102 134l108 77l158 -211l-158 -211z" />
    <glyph glyph-name="fraction" unicode="&#x2044;" horiz-adv-x="88" 
d="M302 649l-400 -692l-111 67l400 692z" />
    <glyph glyph-name="Euro" unicode="&#x20ac;" 
d="M574 33q-65 -46 -160 -46q-105 0 -170.5 59.5t-90.5 162.5h-90v110h75v26v21h-75v110h90q25 101 90.5 158.5t170.5 57.5q91 0 159 -44l-36 -108q-46 37 -98 37q-96 0 -127 -101h194v-110h-210v-21v-26h210v-110h-194q31 -107 127 -107q51 0 101 36z" />
    <glyph glyph-name="uni20B9" unicode="&#x20b9;" horiz-adv-x="658" 
d="M423 556q15 -21 24 -47h150v-113h-149q-14 -45 -49 -79.5t-85 -53.5l219 -213l-89 -91l-278 275l2 71q101 25 128 91h-177v113h177q-12 26 -31 47h-146v113h478v-113h-174z" />
    <glyph glyph-name="trademark" unicode="&#x2122;" horiz-adv-x="902" 
d="M326 625h-88v-285h-109v285h-89v71h286v-71zM782 696v-356h-109v91l6 129l-65 -107h-65l-64 106l6 -128v-91h-109v356h113l87 -138l87 138h113z" />
    <glyph glyph-name="partialdiff" unicode="&#x2202;" 
d="M382 620q98 -55 150.5 -145t52.5 -208q0 -138 -73 -210t-195 -72q-82 0 -143 31t-93 82.5t-32 112.5q0 57 29 108t84 82.5t130 31.5q55 0 109 -24q-30 72 -95 110t-177 64l22 109q133 -17 231 -72zM397.5 136.5q29.5 38.5 29.5 113.5v20q-50 50 -119 50q-47 0 -74 -33.5
t-27 -84.5q0 -45 28.5 -74.5t81.5 -29.5q51 0 80.5 38.5z" />
    <glyph glyph-name="uni2206" unicode="&#x2206;" horiz-adv-x="693" 
d="M685 0h-676l262 689h151zM486 113l-140 413l-140 -413h280z" />
    <glyph glyph-name="product" unicode="&#x220f;" horiz-adv-x="808" 
d="M712 -235h-158v802h-301v-802h-158v915h617v-915z" />
    <glyph glyph-name="summation" unicode="&#x2211;" horiz-adv-x="698" 
d="M55 -152l273 374l-271 370v88h604v-113h-410l256 -345l-257 -348h413v-113h-608v87z" />
    <glyph glyph-name="minus" unicode="&#x2212;" 
d="M32 353h571v-109h-571v109z" />
    <glyph glyph-name="radical" unicode="&#x221a;" 
d="M606 680l-206 -680h-151l-118 314h-101v113h206l81 -279l131 532h158z" />
    <glyph glyph-name="infinity" unicode="&#x221e;" horiz-adv-x="637" 
d="M567.5 391.5q45.5 -41.5 45.5 -123.5t-47 -124t-117 -42q-85 0 -136 69q-27 -37 -55.5 -53t-72.5 -16q-72 0 -116.5 41.5t-44.5 123.5t46.5 124t115.5 42q81 0 125 -71q29 37 61 54t78 17q72 0 117.5 -41.5zM221 226q17 16 34 49q4 6 5 9q-17 20 -36 30.5t-38 10.5
q-21 0 -37 -14.5t-16 -43.5t15 -43t37 -14q19 0 36 16zM488 224.5q16 14.5 16 43.5t-15 43t-39 14q-23 0 -39.5 -14.5t-38.5 -48.5l-4 -7q17 -22 38 -33.5t43 -11.5q23 0 39 14.5z" />
    <glyph glyph-name="integral" unicode="&#x222b;" 
d="M79 -222l11 108q37 -5 62 -5q89 0 89 110v596q0 106 53.5 162.5t163.5 56.5q39 0 98 -8l-11 -108q-37 5 -62 5q-89 0 -89 -110v-596q0 -106 -54 -162.5t-164 -56.5q-39 0 -97 8z" />
    <glyph glyph-name="approxequal" unicode="&#x2248;" 
d="M35 340q39 53 83.5 86.5t105.5 33.5q30 0 54 -10t53 -28q27 -16 44.5 -23.5t38.5 -7.5q65 0 116 72l71 -69q-41 -53 -83.5 -85t-103.5 -32q-27 0 -48 9t-54 27q-27 17 -46.5 25t-41.5 8q-36 0 -64.5 -20.5t-53.5 -54.5zM35 136q39 53 83.5 86.5t105.5 33.5q30 0 54 -10
t53 -28q27 -16 44.5 -23.5t38.5 -7.5q65 0 116 72l71 -69q-41 -53 -83.5 -85t-103.5 -32q-27 0 -48 9t-54 27q-27 17 -46.5 25t-41.5 8q-36 0 -64.5 -20.5t-53.5 -54.5z" />
    <glyph glyph-name="notequal" unicode="&#x2260;" 
d="M418 362l-72 -127h257v-109h-320l-72 -126h-127l72 126h-124v109h187l72 127h-259v109h322l72 126h127l-72 -126h122v-109h-185z" />
    <glyph glyph-name="lessequal" unicode="&#x2264;" 
d="M603 453l-442 -101l442 -101v-111l-571 159v105l571 160v-111zM32 104h571v-104h-571v104z" />
    <glyph glyph-name="greaterequal" unicode="&#x2265;" 
d="M603 404v-105l-571 -159v111l442 101l-442 101v111zM32 104h571v-104h-571v104z" />
    <glyph glyph-name="lozenge" unicode="&#x25ca;" 
d="M576 340l-183 -340h-152l-182 340l183 340h152zM438 340l-121 226l-121 -226l121 -226z" />
    <glyph glyph-name="uni25CC" unicode="&#x25cc;" horiz-adv-x="770" 
d="M357 546q-12 12 -12 29q0 16 12 28.5t29 12.5q16 0 28.5 -12.5t12.5 -28.5q0 -17 -12.5 -29t-28.5 -12q-17 0 -29 12zM230 514q-12 12 -12 29t12 29t28 12q17 0 29 -12t12 -29q0 -16 -12 -28.5t-29 -12.5q-16 0 -28 12zM481.5 514.5q-12.5 12.5 -12.5 28.5q0 17 12.5 29
t28.5 12q17 0 29 -12t12 -29t-12 -29t-29 -12q-16 0 -28.5 12.5zM136 421q-12 12 -12 29t12 29t29 12t29 -12t12 -29t-12 -29t-29 -12t-29 12zM576 421q-12 12 -12 29t12.5 29t28.5 12q17 0 29 -12t12 -29t-12 -29t-29 -12t-29 12zM105 294q-12 12 -12 29t12 29t29 12
t29 -12t12 -29q0 -16 -12 -28.5t-29 -12.5t-29 12zM608 294.5q-12 12.5 -12 28.5q0 17 12 29t28 12q17 0 29 -12t12 -29t-12 -29t-29 -12q-16 0 -28 12.5zM136 168q-12 12 -12 29t12 28.5t29 11.5t29 -12t12 -28t-12 -28.5t-29 -12.5t-29 12zM576.5 168.5
q-12.5 12.5 -12.5 28.5t12 28t29 12t29 -11.5t12 -28.5t-12 -29t-29 -12q-16 0 -28.5 12.5zM230 73q-12 12 -12 29t12 28.5t28 11.5q17 0 29 -12t12 -28t-12 -28.5t-29 -12.5q-16 0 -28 12zM481.5 73.5q-12.5 12.5 -12.5 28.5t12 28t29 12t29 -11.5t12 -28.5t-12 -29
t-29 -12q-16 0 -28.5 12.5zM357 42q-12 12 -12 29t12 29t29 12q16 0 28.5 -12t12.5 -29q0 -16 -12.5 -28.5t-28.5 -12.5q-17 0 -29 12z" />
    <glyph glyph-name="uni09080902" horiz-adv-x="545" 
d="M198 382q-8 -11 -8 -28q0 -20 15.5 -30.5t45.5 -10.5q37 0 85 9t85 24q37 -26 63.5 -72t26.5 -95q0 -79 -54.5 -133t-141.5 -67l96 -142l-125 -66l-95 210q-63 11 -103 39.5t-40 63.5q0 37 36.5 61.5t99.5 25.5l56 -82q5 -1 14 -1q51 0 84 24t33 60q0 21 -13 44
q-54 -17 -105 -17q-67 0 -112.5 21.5t-68 57t-22.5 79.5q0 64 39.5 106.5t108.5 42.5h102v50h-320v113h295q-40 41 -60.5 82.5t-20.5 90.5q0 75 52.5 123t149.5 48q64 0 114 -27l-18 -104q-35 19 -67 19q-47 0 -69 -23.5t-22 -64.5q0 -38 22 -71t63 -73h126v-113h-106v-163
h-221q-12 0 -20 -11zM508.5 837.5q21.5 -21.5 21.5 -50.5q0 -31 -21.5 -52t-51.5 -21t-51.5 21t-21.5 52q0 29 21.5 50.5t51.5 21.5t51.5 -21.5z" />
    <glyph glyph-name="uni093F0902" horiz-adv-x="328" 
d="M0 0zM197 868q-31 -26 -31 -74q0 -65 38 -125h124v-113h-94v-556h-140v556h-114v113h101q-55 83 -55 153q0 55 28.5 98t80 67.5t118.5 24.5q98 0 193.5 -39.5t167.5 -90t151 -115.5l-64 -75q-107 87 -218 144.5t-207 57.5q-48 0 -79 -26zM683 1042q27 27 64 27t64 -27
t27 -65q0 -37 -27 -64t-64 -27q-38 0 -64.5 27t-26.5 64q0 38 27 65z" />
    <glyph glyph-name="uni093F0930094D" horiz-adv-x="328" 
d="M681 978.5q-19 -21.5 -19 -57.5q0 -35 19.5 -66.5t55.5 -64.5l28 -23l-64 -75q-107 87 -218 144.5t-207 57.5q-48 0 -79 -26t-31 -74q0 -65 38 -125h124v-113h-94v-556h-140v556h-114v113h101q-55 83 -55 153q0 55 28.5 98t80 67.5t118.5 24.5q129 0 270 -75v13
q0 72 51 117.5t144 45.5q37 0 71 -11t60 -28l-34 -96q-38 22 -77 22q-38 0 -57 -21.5z" />
    <glyph glyph-name="uni093F0930094D0902" horiz-adv-x="328" 
d="M681.5 854.5q19.5 -31.5 55.5 -64.5l28 -23l-64 -75q-107 87 -218 144.5t-207 57.5q-48 0 -79 -26t-31 -74q0 -65 38 -125h124v-113h-94v-556h-140v556h-114v113h101q-55 83 -55 153q0 55 28.5 98t80 67.5t118.5 24.5q129 0 270 -75v13q0 76 53 125t150 49q62 0 114 -27
l-18 -104q-34 18 -67 18q-48 0 -70.5 -24.5t-22.5 -65.5q0 -35 19.5 -66.5zM833.5 950.5q21.5 -21.5 21.5 -50.5q0 -30 -21.5 -51.5t-51.5 -21.5t-51.5 21.5t-21.5 51.5q0 29 21.5 50.5t51.5 21.5t51.5 -21.5z" />
    <glyph glyph-name="uni09400902" horiz-adv-x="328" 
d="M0 0zM328 556h-94v-556h-140v556h-114v113h104q-43 106 -82.5 162t-90.5 56q-34 0 -54.5 -19.5t-20.5 -48.5q0 -42 38 -88l-78 -39q-38 29 -65 70.5t-27 89.5q0 42 23 76t63.5 53.5t89.5 19.5q82 0 142.5 -44.5t102 -115.5t81.5 -172h122v-113zM250 871q27 27 64 27
t64 -27t27 -65q0 -37 -27 -64t-64 -27q-38 0 -64.5 27t-26.5 64q0 38 27 65z" />
    <glyph glyph-name="uni09400930094D" horiz-adv-x="328" 
d="M195 863.5q-19 -21.5 -19 -57.5q0 -26 6 -49.5t19 -53.5l16 -34h111v-113h-94v-556h-140v556h-114v113h104q-43 106 -82.5 162t-90.5 56q-34 0 -54.5 -19.5t-20.5 -48.5q0 -42 38 -88l-78 -39q-38 29 -65 70.5t-27 89.5q0 42 23 76t63.5 53.5t89.5 19.5q112 0 194 -92
q22 42 62 65.5t96 23.5q37 0 71 -11t60 -28l-34 -97q-20 11 -37 17t-40 6q-38 0 -57 -21.5z" />
    <glyph glyph-name="uni09400930094D0902" horiz-adv-x="328" 
d="M217 669h111v-113h-94v-556h-140v556h-114v113h104q-43 106 -82.5 162t-90.5 56q-34 0 -54.5 -19.5t-20.5 -48.5q0 -42 38 -88l-78 -39q-38 29 -65 70.5t-27 89.5q0 42 23 76t63.5 53.5t89.5 19.5q110 0 192 -89q22 47 64.5 74t103.5 27q64 0 114 -26l-18 -105
q-36 19 -67 19q-48 0 -70.5 -24t-22.5 -66q0 -26 6 -51t19 -57zM352.5 835.5q21.5 -21.5 21.5 -50.5q0 -30 -21.5 -51.5t-51.5 -21.5t-51.5 21.5t-21.5 51.5q0 29 21.5 50.5t51.5 21.5t51.5 -21.5z" />
    <glyph glyph-name="uni094B0902" horiz-adv-x="328" 
d="M0 0zM328 556h-94v-556h-140v556h-114v113h103l-25 56q-33 75 -68.5 110t-86.5 35q-47 0 -90 -13l-24 107q51 21 113 21q93 0 156.5 -57.5t122.5 -186.5l33 -72h114v-113zM240 896q27 27 64 27t64 -27t27 -65q0 -37 -27 -64t-64 -27q-38 0 -64.5 27t-26.5 64q0 38 27 65z
" />
    <glyph glyph-name="uni094B0930094D" horiz-adv-x="328" 
d="M213 669h115v-113h-94v-556h-140v556h-114v113h103l-25 56q-33 75 -68.5 110t-86.5 35q-47 0 -90 -13l-24 107q51 21 113 21q52 0 93 -18.5t76 -57.5q22 42 61.5 65.5t95.5 23.5q37 0 71 -11.5t60 -28.5l-35 -96q-36 23 -75 23t-57 -21.5t-18 -58.5q0 -26 7 -52.5
t22 -62.5z" />
    <glyph glyph-name="uni094B0930094D0902" horiz-adv-x="328" 
d="M213 669h115v-113h-94v-556h-140v556h-114v113h103l-25 56q-33 75 -68.5 110t-86.5 35q-47 0 -90 -13l-24 107q51 21 113 21q51 0 92 -18t76 -56q21 48 63 75t103 27q64 0 114 -27l-18 -104q-35 19 -67 19q-47 0 -69 -24.5t-22 -66.5q0 -27 7 -53.5t22 -66.5zM341 831.5
q19 -19.5 19 -44.5q0 -28 -20 -46.5t-47 -18.5t-45 19.5t-18 46.5q0 26 19.5 44.5t45.5 18.5q27 0 46 -19.5z" />
    <glyph glyph-name="uni094C0902" horiz-adv-x="328" 
d="M0 0zM328 556h-94v-556h-140v556h-114v113h61l-22 34q-43 68 -116 68q-51 0 -97 -20l-24 107q57 29 120 29q82 0 150 -65q-30 60 -50 90.5t-42.5 44.5t-55.5 14q-39 0 -73 -13l-24 107q50 21 112 21q65 0 111.5 -32.5t88 -105.5t92.5 -207l27 -72h90v-113zM251 897
q27 27 64 27t64 -27t27 -65q0 -37 -27 -64t-64 -27q-38 0 -64.5 27t-26.5 64q0 38 27 65z" />
    <glyph glyph-name="uni094C0930094D" horiz-adv-x="328" 
d="M213.5 864.5q-17.5 -20.5 -17.5 -55.5q0 -29 7 -55t22 -64l9 -21h94v-113h-94v-556h-140v556h-114v113h62l-23 34q-44 68 -115 68q-52 0 -97 -20l-24 107q57 29 120 29q80 0 149 -64q-30 60 -50 90t-42.5 44t-55.5 14q-38 0 -73 -13l-24 107q52 21 113 21
q64 0 110.5 -31.5t89.5 -106.5q47 50 128 50q67 0 130 -40l-35 -96q-18 11 -35.5 17t-38.5 6q-38 0 -55.5 -20.5z" />
    <glyph glyph-name="uni094C0930094D0902" horiz-adv-x="545" 
d="M234 669h94v-113h-94v-556h-140v556h-114v113h62l-23 34q-44 68 -115 68q-52 0 -97 -20l-24 107q57 29 120 29q80 0 149 -64q-30 60 -50 90t-42.5 44t-55.5 14q-38 0 -73 -13l-24 107q52 21 113 21q63 0 109 -30.5t88 -102.5q50 60 139 60q63 0 113 -27l-19 -104
q-36 19 -65 19q-46 0 -67.5 -23.5t-21.5 -63.5q0 -29 7 -56t22 -68zM365.5 837.5q21.5 -21.5 21.5 -50.5q0 -31 -21.5 -52t-51.5 -21t-51.5 21t-21.5 52q0 29 21.5 50.5t51.5 21.5t51.5 -21.5z" />
    <glyph glyph-name="uni093F.0" horiz-adv-x="328" 
d="M386.5 972q65.5 -40 108 -93t89.5 -129l-83 -58q-45 68 -76 108.5t-70.5 69t-84.5 28.5q-46 0 -75 -29.5t-29 -82.5q0 -58 39 -117h123v-113h-94v-556h-140v556h-114v113h96q-22 32 -36 68.5t-14 71.5q0 57 28 103.5t76.5 73t106.5 26.5q84 0 149.5 -40z" />
    <glyph glyph-name="uni093F0902.0" horiz-adv-x="328" 
d="M0 0zM386.5 972q65.5 -40 108 -93t89.5 -129l-83 -58q-45 68 -76 108.5t-70.5 69t-84.5 28.5q-46 0 -75 -29.5t-29 -82.5q0 -58 39 -117h123v-113h-94v-556h-140v556h-114v113h96q-22 32 -36 68.5t-14 71.5q0 57 28 103.5t76.5 73t106.5 26.5q84 0 149.5 -40zM541 1042
q27 27 64 27t64 -27t27 -65q0 -37 -27 -64t-64 -27q-38 0 -64.5 27t-26.5 64q0 38 27 65z" />
    <glyph glyph-name="uni093F0930094D.0" horiz-adv-x="328" 
d="M711 1077l-34 -97q-40 23 -76 23q-39 0 -58 -21.5t-19 -57.5q0 -31 11.5 -67t37.5 -88h-1l12 -19l-83 -58q-45 68 -76 108.5t-70.5 69t-84.5 28.5q-46 0 -75 -29.5t-29 -82.5q0 -58 39 -117h123v-113h-94v-556h-140v556h-114v113h96q-22 32 -36 68.5t-14 71.5
q0 57 28 103.5t76.5 73t106.5 26.5q88 0 165 -50q9 69 55 111t123 42q69 0 131 -38z" />
    <glyph glyph-name="uni093F0930094D0902.0" horiz-adv-x="328" 
d="M572 769l12 -19l-83 -58q-45 68 -76 108.5t-70.5 69t-84.5 28.5q-46 0 -75 -29.5t-29 -82.5q0 -58 39 -117h123v-113h-94v-556h-140v556h-114v113h96q-22 32 -36 68.5t-14 71.5q0 57 28 103.5t76.5 73t106.5 26.5q88 0 165 -50q9 73 57 117.5t129 44.5q62 0 114 -27
l-18 -104q-34 18 -67 18q-47 0 -70 -23.5t-23 -63.5q0 -31 11.5 -67t37.5 -88h-1zM688.5 948.5q21.5 -21.5 21.5 -50.5q0 -30 -21.5 -51.5t-51.5 -21.5t-51.5 21.5t-21.5 51.5q0 29 21.5 50.5t51.5 21.5t51.5 -21.5z" />
    <glyph glyph-name="uni093F.05" horiz-adv-x="328" 
d="M670 938.5q171 -73.5 301 -165.5l-55 -81q-120 83 -280 142.5t-293 59.5q-74 0 -120.5 -32t-46.5 -89q0 -55 29 -104h123v-113h-94v-556h-140v556h-114v113h102q-46 70 -46 131t35.5 109.5t100 75.5t147.5 27q180 0 351 -73.5z" />
    <glyph glyph-name="uni093F.10" horiz-adv-x="328" 
d="M704 937.5q180 -74.5 315 -164.5l-55 -81q-133 81 -299.5 141.5t-303.5 60.5q-86 0 -135.5 -31.5t-49.5 -89.5q0 -55 29 -104h123v-113h-94v-556h-140v556h-114v113h102q-46 70 -46 131q0 62 36.5 110t104.5 75t160 27q187 0 367 -74.5z" />
    <glyph glyph-name="uni093F0902.05" horiz-adv-x="328" 
d="M0 0zM670 938.5q171 -73.5 301 -165.5l-55 -81q-120 83 -280 142.5t-293 59.5q-74 0 -120.5 -32t-46.5 -89q0 -55 29 -104h123v-113h-94v-556h-140v556h-114v113h102q-46 70 -46 131t35.5 109.5t100 75.5t147.5 27q180 0 351 -73.5zM873 1043q27 27 64 27t64 -27t27 -65
q0 -37 -27 -64t-64 -27q-38 0 -64.5 27t-26.5 64q0 38 27 65z" />
    <glyph glyph-name="uni093F0902.10" horiz-adv-x="328" 
d="M0 0zM704 937.5q180 -74.5 315 -164.5l-55 -81q-133 81 -299.5 141.5t-303.5 60.5q-86 0 -135.5 -31.5t-49.5 -89.5q0 -55 29 -104h123v-113h-94v-556h-140v556h-114v113h102q-46 70 -46 131q0 62 36.5 110t104.5 75t160 27q187 0 367 -74.5zM921 1043q27 27 64 27
t64 -27t27 -65q0 -37 -27 -64t-64 -27q-38 0 -64.5 27t-26.5 64q0 38 27 65z" />
    <glyph glyph-name="uni093F0930094D.05" horiz-adv-x="328" 
d="M886 985q-19 -22 -19 -59q0 -39 24.5 -74t67.5 -70h-1l13 -9l-55 -81q-120 83 -280 142.5t-293 59.5q-74 0 -120.5 -32t-46.5 -89q0 -55 29 -104h123v-113h-94v-556h-140v556h-114v113h102q-46 70 -46 131t35.5 109.5t100 75.5t147.5 27q194 0 412 -100q-4 17 -4 42
q0 74 51 120t145 46q68 0 132 -39l-34 -97q-40 23 -77 23q-39 0 -58 -22z" />
    <glyph glyph-name="uni093F0930094D.10" horiz-adv-x="328" 
d="M934 985q-19 -22 -19 -59q0 -39 24.5 -74t67.5 -70h-2l14 -9l-55 -81q-133 81 -299.5 141.5t-303.5 60.5q-86 0 -135.5 -31.5t-49.5 -89.5q0 -55 29 -104h123v-113h-94v-556h-140v556h-114v113h102q-46 70 -46 131q0 62 36.5 110t104.5 75t160 27q208 0 444 -107
q-6 23 -6 49q0 74 51 120t145 46q68 0 132 -39l-34 -97q-40 23 -77 23q-39 0 -58 -22z" />
    <glyph glyph-name="uni093F0930094D0902.05" horiz-adv-x="328" 
d="M958 782l13 -9l-55 -81q-120 83 -280 142.5t-293 59.5q-74 0 -120.5 -32t-46.5 -89q0 -55 29 -104h123v-113h-94v-556h-140v556h-114v113h102q-46 70 -46 131t35.5 109.5t100 75.5t147.5 27q194 0 412 -100q-4 17 -4 42q0 78 53 127t152 49q64 0 114 -26l-18 -105
q-36 19 -68 19q-48 0 -70.5 -24.5t-22.5 -67.5q0 -39 24.5 -74t67.5 -70h-1zM1038.5 957.5q21.5 -21.5 21.5 -50.5q0 -31 -21.5 -52t-51.5 -21t-51.5 21t-21.5 52q0 29 21.5 50.5t51.5 21.5t51.5 -21.5z" />
    <glyph glyph-name="uni093F0930094D0902.10" horiz-adv-x="328" 
d="M1005 782l14 -9l-55 -81q-133 81 -299.5 141.5t-303.5 60.5q-86 0 -135.5 -31.5t-49.5 -89.5q0 -55 29 -104h123v-113h-94v-556h-140v556h-114v113h102q-46 70 -46 131q0 62 36.5 110t104.5 75t160 27q208 0 444 -107q-6 23 -6 49q0 78 53 127t152 49q64 0 114 -26
l-18 -105q-36 19 -68 19q-48 0 -70.5 -24.5t-22.5 -67.5q0 -39 24.5 -74t67.5 -70h-2zM1086.5 957.5q21.5 -21.5 21.5 -50.5q0 -31 -21.5 -52t-51.5 -21t-51.5 21t-21.5 52q0 29 21.5 50.5t51.5 21.5t51.5 -21.5z" />
    <glyph glyph-name="uni0940.02" horiz-adv-x="328" 
d="M328 556h-94v-556h-140v556h-114v113h90q-249 215 -422 215q-47 0 -74 -18.5t-27 -51.5q0 -42 34 -83l-82 -39q-91 69 -91 155q0 71 60.5 112.5t154.5 41.5q146 0 288 -82.5t307 -249.5h110v-113z" />
    <glyph glyph-name="uni09400902.02" horiz-adv-x="328" 
d="M0 0zM328 556h-94v-556h-140v556h-114v113h90q-249 215 -422 215q-47 0 -74 -18.5t-27 -51.5q0 -42 34 -83l-82 -39q-91 69 -91 155q0 71 60.5 112.5t154.5 41.5q146 0 288 -82.5t307 -249.5h110v-113zM217 871q27 27 64 27t64 -27t27 -65q0 -37 -27 -64t-64 -27
q-38 0 -64.5 27t-26.5 64q0 38 27 65z" />
    <glyph glyph-name="uni09400930094D.02" horiz-adv-x="328" 
d="M163 739.5q20 -32.5 58 -70.5h107v-113h-94v-556h-140v556h-114v113h90q-249 215 -422 215q-47 0 -74 -18.5t-27 -51.5q0 -42 34 -83l-82 -39q-91 69 -91 155q0 71 60.5 112.5t154.5 41.5q96 0 190 -36t191 -107q7 65 57.5 105t137.5 40q37 0 71 -11t60 -28l-34 -97
q-20 11 -37 17t-40 6q-39 0 -57.5 -21.5t-18.5 -58.5q0 -38 20 -70.5z" />
    <glyph glyph-name="uni09400930094D0902.02" horiz-adv-x="328" 
d="M163 739.5q20 -32.5 58 -70.5h107v-113h-94v-556h-140v556h-114v113h90q-249 215 -422 215q-47 0 -74 -18.5t-27 -51.5q0 -42 34 -83l-82 -39q-91 69 -91 155q0 71 60.5 112.5t154.5 41.5q96 0 190 -36t191 -107q6 69 59 112t144 43q64 0 114 -26l-18 -105q-36 19 -67 19
q-48 0 -70.5 -24.5t-22.5 -66.5q0 -38 20 -70.5zM319.5 835.5q21.5 -21.5 21.5 -50.5q0 -30 -21.5 -51.5t-51.5 -21.5t-51.5 21.5t-21.5 51.5q0 29 21.5 50.5t51.5 21.5t51.5 -21.5z" />
    <glyph glyph-name="uni0932.loclMAR" horiz-adv-x="815" 
d="M610 556v-106q53 -10 92 -38t59 -67.5t20 -81.5q0 -76 -43.5 -149.5t-110.5 -130.5l-100 101q114 111 114 191q0 31 -16 48t-45 17q-43 0 -74 -46.5t-47 -126.5l-140 26q9 63 32 112q-22 26 -45 39t-50 13q-30 0 -53 -22.5t-23 -62.5q0 -64 37 -119.5t115 -124.5l-80 -81
q-97 79 -154.5 166.5t-57.5 172.5q0 89 55.5 137.5t143.5 48.5q53 0 95 -25.5t68 -61.5q32 32 68 50v121h-490v113h835v-113h-205z" />
    <glyph glyph-name="uni0936.loclMAR" horiz-adv-x="821" 
d="M820 556h-93v-556h-140v556h-254v-64q66 -21 107 -73t41 -131q0 -74 -41.5 -126.5t-113.5 -77.5l108 -161l-125 -66l-94 209q-37 0 -70 15t-53 39.5t-20 53.5q0 36 36.5 61t98.5 26l50 -74q42 11 63 40t21 72q0 39 -21 64.5t-60 25.5q-57 0 -138 -47l-57 104
q66 39 128 52v58h-210v113h837v-113z" />
    <glyph glyph-name="uni091D.loclNEP" horiz-adv-x="1066" 
d="M708 556v-154q72 53 139 53q58 0 101 -25.5t66 -66.5t23 -86q0 -126 -100 -247l-130 75q90 109 90 177q0 27 -15.5 42.5t-41.5 15.5q-34 0 -66 -20.5t-66 -57.5v-262h-140v201h-173v-73q-39 -13 -76 -13q-41 0 -73.5 15.5t-50.5 41t-18 54.5q0 33 21.5 58t56.5 29v36
q-109 22 -161.5 76.5t-52.5 121.5t48 104.5t129 37.5q84 0 130.5 -45.5t46.5 -143.5v-186h173v242h-116v113h613v-113h-357zM200 487q19 -21 55 -35v66q0 57 -37 57q-17 0 -27 -11t-10 -30q0 -26 19 -47z" />
    <glyph glyph-name="uni0979.loclNEP" horiz-adv-x="768" 
d="M303 556q40 -56 56 -116q42 11 89 11q94 0 155.5 -34t90 -86t28.5 -109q0 -95 -53 -160t-138 -81l98 -144l-125 -66l-96 211q-63 11 -102 39t-39 63q0 37 36.5 61.5t98.5 25.5l55 -81h11q49 0 81.5 35.5t32.5 87.5q0 55 -36 90t-98 35q-37 0 -78 -11q-6 -55 -33 -93.5
t-66.5 -57.5t-82.5 -19q-108 0 -182 84l66 70q19 -20 37.5 -30.5t42.5 -10.5q37 0 58 24.5t21 71.5t-24 97.5t-65 92.5h-162v113h788v-113h-465z" />
    <glyph glyph-name="uni0915094D0915" horiz-adv-x="1495" 
d="M1134 556v-155q73 54 141 54q58 0 101 -25.5t66 -66.5t23 -86q0 -126 -100 -247l-130 75q90 109 90 177q0 27 -15.5 42.5t-41.5 15.5q-35 0 -67 -20.5t-67 -59.5v-260h-140v153q-34 -24 -68.5 -39t-76.5 -15q-60 0 -105 25t-69.5 67t-24.5 93q0 9 2 25q-17 7 -37 7
q-28 0 -51.5 -15t-49.5 -42v-259h-140v153q-34 -24 -68.5 -39t-76.5 -15q-60 0 -105 25t-69.5 67t-24.5 93q0 53 24 96.5t67.5 69.5t100.5 26q46 0 85 -15t67 -37v132h-394v113h1514v-113h-360zM994 556h-480v-158q49 32 100 32q42 0 79 -21q25 32 63.5 49.5t85.5 17.5
q46 0 85 -15t67 -37v132zM310.5 234q33.5 21 63.5 55v2q-27 32 -59.5 51.5t-65.5 19.5q-34 0 -56.5 -22t-22.5 -56q0 -31 20.5 -51t54.5 -20q32 0 65.5 21zM930.5 234q33.5 21 63.5 55v2q-27 32 -59.5 51.5t-65.5 19.5q-34 0 -56.5 -22t-22.5 -56q0 -31 20.5 -51t54.5 -20
q32 0 65.5 21z" />
    <glyph glyph-name="uni0915094D0924" horiz-adv-x="986" 
d="M628 556v-155q73 54 141 54q58 0 101 -25.5t66 -66.5t23 -86q0 -126 -100 -247l-130 75q90 109 90 177q0 27 -15.5 42.5t-41.5 15.5q-35 0 -67 -20.5t-67 -59.5v-260h-140v326h-98q-55 0 -87 -28.5t-32 -82.5q0 -31 13.5 -58.5t33.5 -49.5t62 -65l-86 -75
q-68 56 -116 127.5t-48 135.5q0 52 21 96h-111v113h448v117h-508v113h1006v-113h-358z" />
    <glyph glyph-name="uni0915094D0930" horiz-adv-x="874" 
d="M514 556v-155q73 54 141 54q58 0 101 -25.5t66 -66.5t23 -86q0 -126 -100 -247l-130 75q90 109 90 177q0 27 -15.5 42.5t-41.5 15.5q-35 0 -67 -20.5t-67 -59.5v-260h-140v136l-252 -231l-94 102l125 104q-57 19 -90 66.5t-33 106.5q0 53 24 96.5t67.5 69.5t100.5 26
q46 0 85 -15t67 -37v132h-394v113h894v-113h-360zM192.5 340q-22.5 -22 -22.5 -56q0 -31 20.5 -51t54.5 -20q32 0 65.5 21t63.5 55v2q-27 32 -59.5 51.5t-65.5 19.5q-34 0 -56.5 -22z" />
    <glyph glyph-name="uni0915094D0932" horiz-adv-x="1441" 
d="M1441 556h-94v-556h-140v335q-13 5 -27 5q-42 0 -72 -46.5t-45 -126.5l-140 26q10 68 37 124q-38 40 -84 40q-30 0 -53 -22.5t-23 -62.5q0 -64 37 -119t115 -124l-80 -81q-97 79 -154.5 166t-57.5 172q0 13 1 19q-22 11 -46 11q-28 0 -51.5 -15t-49.5 -42v-259h-140v153
q-34 -24 -68.5 -39t-76.5 -15q-60 0 -105 25t-69.5 67t-24.5 93q0 53 24 96.5t67.5 69.5t100.5 26q46 0 85 -15t67 -37v132h-394v113h1461v-113zM1207 556h-693v-158q49 32 100 32q46 0 84 -25q27 33 69 50t93 17q49 0 88 -22t67 -56q30 30 67.5 45.5t77.5 15.5q24 0 47 -5
v106zM310.5 234q33.5 21 63.5 55v2q-27 32 -59.5 51.5t-65.5 19.5q-34 0 -56.5 -22t-22.5 -56q0 -31 20.5 -51t54.5 -20q32 0 65.5 21z" />
    <glyph glyph-name="uni0915094D0935" horiz-adv-x="1279" 
d="M1279 556h-94v-556h-140v146q-88 -67 -174 -67q-68 0 -117.5 27t-75.5 73t-26 102q0 10 2 28q-21 7 -39 7q-28 0 -51.5 -15t-49.5 -42v-259h-140v153q-34 -24 -68.5 -39t-76.5 -15q-60 0 -105 25t-69.5 67t-24.5 93q0 53 24 96.5t67.5 69.5t100.5 26q46 0 85 -15t67 -37
v132h-394v113h1299v-113zM1045 556h-531v-158q49 32 100 32q41 0 78 -21q29 40 76 62.5t108 22.5q50 0 93.5 -20t75.5 -49v131zM964 220.5q45 26.5 81 68.5v1q-33 41 -72.5 65.5t-82.5 24.5q-44 0 -71 -27.5t-27 -68.5q0 -39 23 -64.5t64 -25.5q40 0 85 26.5zM310.5 234
q33.5 21 63.5 55v2q-27 32 -59.5 51.5t-65.5 19.5q-34 0 -56.5 -22t-22.5 -56q0 -31 20.5 -51t54.5 -20q32 0 65.5 21z" />
    <glyph glyph-name="uni0915094D0937" horiz-adv-x="838" 
d="M838 556h-94v-556h-140v277q-40 -10 -68 -14.5t-70 -4.5q-106 0 -198 34q-41 -32 -63.5 -58.5t-22.5 -54.5q0 -39 30.5 -60.5t70.5 -21.5q15 0 22 1l-30 70q18 28 46 44t58 16q47 0 74 -29.5t27 -69.5q0 -47 -33 -83l98 -145l-126 -65l-68 156q-31 -9 -70 -9
q-60 0 -114.5 23.5t-88 68t-33.5 104.5q0 59 30.5 98t85.5 76q-41 35 -63 76t-22 84q0 44 23 83.5t65 63.5t96 24t96.5 -24.5t65.5 -63.5t23 -83q0 -69 -68 -134q43 -8 88 -8q42 0 73.5 5t65.5 15v165h-127v113h361v-113zM263 424q44 41 44 89q0 25 -13.5 41t-33.5 16
t-33 -16t-13 -41q0 -53 49 -89z" />
    <glyph glyph-name="uni0915094D0937094D" horiz-adv-x="508" 
d="M447 46l98 -145l-126 -65l-68 156q-31 -9 -70 -9q-60 0 -114.5 23.5t-88 68t-33.5 104.5q0 59 30.5 98t85.5 76q-41 35 -63 76t-22 84q0 44 23 83.5t65 63.5t96 24t96.5 -24.5t65.5 -63.5t23 -83q0 -69 -68 -134q43 -8 88 -8q57 0 101.5 7t89.5 21l12 -112
q-105 -29 -202 -29q-106 0 -198 34q-41 -32 -63.5 -58.5t-22.5 -54.5q0 -39 30.5 -60.5t70.5 -21.5q15 0 22 1l-30 70q18 28 46 44t58 16q47 0 74 -29.5t27 -69.5q0 -47 -33 -83zM581 556h-104v113h104v-113zM263 424q44 41 44 89q0 25 -13.5 41t-33.5 16t-33 -16t-13 -41
q0 -53 49 -89z" />
    <glyph glyph-name="uni0915094D0937094D0930" horiz-adv-x="969" 
d="M969 556h-94v-556h-140v86l-123 -102l-90 107l213 141v50l-22 -6q-53 -13 -93 -20t-98 -7q-143 0 -253 43q-42 -32 -64.5 -58t-22.5 -55q0 -39 30.5 -60.5t70.5 -21.5q15 0 22 1l-30 70q18 28 46 44t58 16q47 0 74 -29.5t27 -69.5q0 -47 -33 -83l98 -145l-126 -65
l-68 156q-31 -9 -70 -9q-60 0 -114.5 23.5t-88 68t-33.5 104.5q0 59 30.5 98t85.5 77q-41 33 -63 74t-22 85t23 83.5t65 63.5t96 24t96.5 -24.5t65.5 -63.5t23 -83q0 -70 -70 -135q65 -15 146 -15q65 0 112 8.5t102 24.5v160h-258v113h492v-113zM263 424q44 41 44 89
q0 25 -13.5 41t-33.5 16t-33 -16t-13 -41q0 -51 49 -89z" />
    <glyph glyph-name="uni0915094D0072" horiz-adv-x="598" 
d="M694.5 407.5q35.5 -22.5 69.5 -64.5l-62 -73q-15 21 -37.5 33.5t-49.5 12.5q-28 0 -51.5 -15t-49.5 -42v-259h-140v136l-252 -231l-94 102l125 104q-57 19 -90 66.5t-33 106.5q0 53 24 96.5t67.5 69.5t100.5 26q46 0 85 -15t67 -37v132h-394v113h640v-113h-106v-158
q49 32 100 32q45 0 80.5 -22.5zM192.5 340q-22.5 -22 -22.5 -56q0 -31 20.5 -51t54.5 -20q32 0 65.5 21t63.5 55v2q-27 32 -59.5 51.5t-65.5 19.5q-34 0 -56.5 -22z" />
    <glyph glyph-name="uni0916094D0930" horiz-adv-x="893" 
d="M910 556h-94v-567h-140v76q-49 -34 -105 -55l-350 -218l-75 118l159 84q-80 24 -139.5 82t-90 146t-26.5 196l121 17q-1 -27 1 -74q11 -8 25 -8q17 0 30.5 18.5t13.5 53.5q0 32 -11 66t-30 65h-219v113h930v-113zM676 556h-337q40 -67 40 -144q0 -57 -21.5 -96
t-54.5 -57.5t-69 -18.5q-20 0 -39 7q29 -78 86 -116t128 -38q70 0 139 24.5t128 71.5v32q-52 -40 -108 -40q-49 0 -86.5 21.5t-57.5 56t-20 71.5q0 48 22.5 86t60 59t81.5 21q61 0 108 -43v103zM676 339q-40 55 -86 55q-26 0 -42 -15.5t-16 -41.5q0 -25 15 -39.5t41 -14.5
q21 0 44 14t44 39v3z" />
    <glyph glyph-name="uni0916094D0072" horiz-adv-x="626" 
d="M684 74q-26 -20 -56 -35l-407 -247l-75 118l153 81q-82 22 -144 80t-94.5 147.5t-28.5 199.5l122 17q-1 -28 1 -74q11 -8 24 -8q17 0 30.5 18.5t13.5 53.5q0 32 -11 66t-30 65h-202v113h686v-113h-344q40 -67 40 -144q0 -57 -21.5 -96t-54.5 -57.5t-69 -18.5q-16 0 -38 6
q29 -77 86 -115t128 -38q66 0 129 21t112 58zM654.5 463.5q44.5 -32.5 83.5 -94.5v-79q-46 -56 -89.5 -82.5t-97.5 -26.5q-49 0 -86.5 21.5t-57.5 56t-20 71.5q0 48 22.5 86t60 59t81.5 21q59 0 103.5 -32.5zM616.5 297.5q23.5 14.5 43.5 39.5q-38 57 -87 57q-26 0 -42 -16
t-16 -41t15 -39.5t41 -14.5q22 0 45.5 14.5z" />
    <glyph glyph-name="uni0917094D0928" horiz-adv-x="680" 
d="M680 556h-94v-556h-139v179l-191 -119l47 -74q-26 -31 -58 -47t-64 -16q-46 0 -76 30t-31 72q0 54 64 95l309 194v242h-159v-187q0 -61 -27.5 -93t-79.5 -32q-34 0 -63.5 18t-47 50t-17.5 72q0 27 9 55h87v117h-169v113h700v-113z" />
    <glyph glyph-name="uni0917094D0930" horiz-adv-x="680" 
d="M680 556h-94v-556h-139v157l-253 -193l-84 111l337 231v250h-159v-187q0 -61 -27.5 -93t-79.5 -32q-34 0 -63.5 18t-47 50t-17.5 72q0 27 9 55h87v117h-169v113h700v-113z" />
    <glyph glyph-name="uni0917094D0072" horiz-adv-x="376" 
d="M260.5 263.5q-27.5 -32.5 -79.5 -32.5q-34 0 -63.5 18t-47 50t-17.5 72q0 28 9 56h87v129h-169v113h396v-113h-88v-199q0 -61 -27.5 -93.5zM533 222l-339 -258l-84 111l363 248z" />
    <glyph glyph-name="uni0918094D0928" horiz-adv-x="741" 
d="M741 556h-94v-556h-140v131l-207 -163l51 -80q-23 -29 -56 -46t-67 -17q-44 0 -75 30t-31 68q0 26 16.5 50.5t53.5 53.5l80 64q-64 18 -102 66t-38 117q0 62 44 111q-122 60 -122 137q0 18 3 34h-77v113h761v-113zM507 556h-297q-14 -26 -14 -51q0 -38 57 -68
q38 16 81 16q38 0 62 -11l-9 -109q-20 6 -39 6q-34 0 -55 -20.5t-21 -55.5q0 -32 20.5 -49.5t49.5 -17.5q82 0 165 72v288z" />
    <glyph glyph-name="uni0918094D0930" horiz-adv-x="741" 
d="M741 556h-94v-556h-140v132q-2 -2 -3 -2l-263 -241l-94 103l123 100q-63 18 -100.5 65.5t-37.5 116.5q0 62 44 111q-122 60 -122 137q0 18 3 34h-77v113h761v-113zM507 556h-297q-14 -26 -14 -51q0 -38 57 -68q38 16 81 16q38 0 62 -11l-9 -109q-20 6 -39 6
q-34 0 -55 -20.5t-21 -55.5q0 -32 20.5 -49.5t49.5 -17.5q82 0 165 72v288z" />
    <glyph glyph-name="uni0918094D0072" horiz-adv-x="450" 
d="M578 188q-26 -23 -31 -27l-306 -272l-94 103l126 99q-64 17 -102.5 65t-38.5 118q0 62 44 111q-122 60 -122 137q0 18 3 34h-77v113h470v-113h-240q-14 -26 -14 -51q0 -38 57 -68q38 16 81 16q38 0 62 -11l-9 -109q-20 6 -39 6q-34 0 -55 -20.5t-21 -55.5
q0 -32 20.5 -49.5t49.5 -17.5q108 0 210 119l37 -116v-1z" />
    <glyph glyph-name="uni0919094D0915" horiz-adv-x="796" 
d="M796 669v-113h-286v-151h-244q-42 0 -42 -21q0 -32 78 -32q44 0 97.5 7t95.5 19q35 -22 58.5 -56.5t23.5 -78.5q0 -52 -36 -88t-104 -51v-105q60 43 119 43q50 0 87.5 -21.5t57.5 -56.5t20 -73q0 -98 -88 -186l-115 67q78 74 78 122q0 23 -12.5 35t-33.5 12
q-30 0 -57.5 -17t-55.5 -49v-204h-123v101q-61 -43 -124 -43q-52 0 -91 21.5t-60 57.5t-21 80q0 45 21 83t58.5 60t86.5 22q40 0 73.5 -12t56.5 -30v86q-80 5 -150.5 32t-123.5 71l51 78q50 -39 113 -62t133 -23q51 0 75.5 13.5t24.5 32.5q0 14 -8 30q-63 -15 -125 -15
q-73 0 -122.5 18t-73.5 48.5t-24 66.5q0 49 43 82t118 33h126v54h-391v113h816zM764.5 434.5q26.5 -26.5 26.5 -64.5q0 -37 -26.5 -64t-64.5 -27q-37 0 -64 27t-27 64q0 38 27 64.5t64 26.5q38 0 64.5 -26.5zM260.5 -153q28.5 17 53.5 46q-23 26 -50.5 42t-55.5 16
t-47.5 -17.5t-19.5 -44.5q0 -25 17.5 -42t45.5 -17t56.5 17z" />
    <glyph glyph-name="uni0919094D0915094D" horiz-adv-x="796" 
d="M796 669v-113h-286v-151h-244q-42 0 -42 -21q0 -32 78 -32q44 0 97.5 7t95.5 19q35 -22 58.5 -56.5t23.5 -78.5q0 -52 -36 -88t-104 -51v-108q52 37 105 37q79 0 138 -69l-56 -67q-33 35 -79 35q-32 0 -57 -15t-51 -43v-203h-123v101q-61 -43 -124 -43q-52 0 -91 21.5
t-60 57.5t-21 80q0 45 21 83t58.5 60t86.5 22q40 0 73.5 -12t56.5 -30v86q-80 5 -150.5 32t-123.5 71l51 78q50 -39 113 -62t133 -23q51 0 75.5 13.5t24.5 32.5q0 14 -8 30q-63 -15 -125 -15q-73 0 -122.5 18t-73.5 48.5t-24 66.5q0 49 43 82t118 33h126v54h-391v113h816z
M764.5 434.5q26.5 -26.5 26.5 -64.5q0 -37 -26.5 -64t-64.5 -27q-37 0 -64 27t-27 64q0 38 27 64.5t64 26.5q38 0 64.5 -26.5zM260.5 -153q28.5 17 53.5 46q-23 26 -50.5 42t-55.5 16t-47.5 -17.5t-19.5 -44.5q0 -25 17.5 -42t45.5 -17t56.5 17z" />
    <glyph glyph-name="uni0919094D0915094D0937" horiz-adv-x="796" 
d="M796 669v-113h-286v-151h-244q-42 0 -42 -21q0 -32 78 -32q44 0 97.5 7t95.5 19q35 -22 58.5 -56.5t23.5 -78.5q0 -52 -35 -87v-485h-123v196q-49 -14 -110 -14q-73 0 -133 18q-33 -19 -50.5 -37t-17.5 -42q0 -22 15.5 -34t38.5 -12q30 0 47 7l-18 45q15 17 35 26t41 9
q34 0 52.5 -20t18.5 -53q0 -25 -16 -47l88 -114l-117 -56l-48 119q-42 -13 -85 -13q-45 0 -86 16.5t-66 49t-25 77.5q0 43 24.5 72.5t66.5 55.5q-31 24 -48 53t-17 61q0 45 25 77t69 46q-31 16 -63 43l51 78q50 -39 113 -62t133 -23q51 0 75.5 13.5t24.5 32.5q0 14 -8 30
q-63 -15 -125 -15q-73 0 -122.5 18t-73.5 48.5t-24 66.5q0 49 43 82t118 33h126v54h-391v113h816zM764.5 434.5q26.5 -26.5 26.5 -64.5q0 -37 -26.5 -64t-64.5 -27q-37 0 -64 27t-27 64q0 38 27 64.5t64 26.5q38 0 64.5 -26.5zM419 -34v135q-37 -5 -71 -5q-25 0 -37 1
q17 -28 17 -63q0 -48 -33 -84h13q63 0 111 16zM173 -19q31 24 31 52q0 18 -10 27.5t-25 9.5t-25 -9t-10 -27q0 -30 39 -53z" />
    <glyph glyph-name="uni0919094D0916" horiz-adv-x="796" 
d="M796 669v-113h-286v-151h-244q-42 0 -42 -21q0 -32 78 -32q44 0 97.5 7t95.5 19q35 -22 58.5 -56.5t23.5 -78.5q0 -36 -16 -62v-510h-123v44q-88 -57 -181 -57q-131 0 -203.5 92t-72.5 266l105 16q0 -42 4 -71h4q13 0 23 18t10 51t-8.5 67t-22.5 64q-32 19 -56 39l51 78
q50 -39 113 -62t133 -23q51 0 75.5 13.5t24.5 32.5q0 14 -8 30q-63 -15 -125 -15q-73 0 -122.5 18t-73.5 48.5t-24 66.5q0 49 43 82t118 33h126v54h-391v113h816zM764.5 434.5q26.5 -26.5 26.5 -64.5q0 -37 -26.5 -64t-64.5 -27q-37 0 -64 27t-27 64q0 38 27 64.5t64 26.5
q38 0 64.5 -26.5zM346.5 -220.5q47.5 19.5 91.5 55.5v10q-33 -21 -72 -21q-38 0 -66.5 17t-43.5 45t-15 58q0 57 35 97.5t90 40.5q41 0 72 -23v46q-39 -9 -90 -9q-62 0 -121 14q11 -46 11 -93q0 -50 -16.5 -84t-43 -51t-56.5 -17q-7 0 -10 1q22 -54 59.5 -80t85.5 -26
q42 0 89.5 19.5zM438 -48q-8 16 -21 26t-29 10q-18 0 -29 -10t-11 -26t10.5 -25.5t27.5 -9.5q15 0 29 10t23 24v1z" />
    <glyph glyph-name="uni0919094D0917" horiz-adv-x="796" 
d="M796 669v-113h-286v-151h-244q-42 0 -42 -21q0 -32 78 -32q44 0 97.5 7t95.5 19q35 -22 58.5 -56.5t23.5 -78.5q0 -47 -31 -83v-489h-123v431q-34 -6 -75 -6q-34 0 -74 5v-181q0 -58 -25.5 -88t-72.5 -30q-32 0 -59.5 17t-44 46.5t-16.5 65.5q0 23 8 50h87v153
q-63 25 -111 66l51 78q50 -39 113 -62t133 -23q51 0 75.5 13.5t24.5 32.5q0 14 -8 30q-63 -15 -125 -15q-73 0 -122.5 18t-73.5 48.5t-24 66.5q0 49 43 82t118 33h126v54h-391v113h816zM764.5 434.5q26.5 -26.5 26.5 -64.5q0 -37 -26.5 -64t-64.5 -27q-37 0 -64 27t-27 64
q0 38 27 64.5t64 26.5q38 0 64.5 -26.5z" />
    <glyph glyph-name="uni0919094D0918" horiz-adv-x="796" 
d="M796 669v-113h-286v-151h-244q-42 0 -42 -21q0 -32 78 -32q44 0 97.5 7t95.5 19q35 -22 58.5 -56.5t23.5 -78.5q0 -43 -26 -77v-495h-122v85q-65 -35 -137 -35q-80 0 -130.5 41.5t-50.5 111.5q0 54 43 95q-83 55 -83 124q0 39 17 73q-21 12 -48 34l51 78q50 -39 113 -62
t133 -23q51 0 75.5 13.5t24.5 32.5q0 14 -8 30q-63 -15 -125 -15q-73 0 -122.5 18t-73.5 48.5t-24 66.5q0 49 43 82t118 33h126v54h-391v113h816zM764.5 434.5q26.5 -26.5 26.5 -64.5q0 -37 -26.5 -64t-64.5 -27q-37 0 -64 27t-27 64q0 38 27 64.5t64 26.5q38 0 64.5 -26.5z
M429 -130v233q-34 -7 -81 -7q-72 0 -142 19q-9 -22 -9 -39q0 -35 46 -62q25 5 45 5q38 0 62 -11l-9 -93q-18 6 -39 6q-30 0 -49 -15.5t-19 -41.5q0 -22 16.5 -34t40.5 -12q70 0 138 52z" />
    <glyph glyph-name="uni0919094D092E" horiz-adv-x="1098" 
d="M1094 556h-94v-885h-140v205h-350v-73q-39 -13 -75 -13q-42 0 -74.5 15.5t-50.5 41t-18 54.5q0 34 21.5 58.5t56.5 29.5v107h-22q-90 0 -169.5 27.5t-138.5 76.5l51 78q50 -39 113 -62t133 -23q51 0 75.5 13.5t24.5 32.5q0 14 -8 30q-63 -15 -125 -15q-73 0 -122.5 18
t-73.5 48.5t-24 66.5q0 49 43 82t118 33h126v54h-391v113h1114v-113zM860 556h-350v-151h-244q-42 0 -42 -21q0 -32 78 -32q44 0 97.5 7t95.5 19q35 -22 58.5 -56.5t23.5 -78.5q0 -35 -17 -64t-50 -48v-141h350v566zM636 306q-27 27 -27 64q0 38 27 64.5t64 26.5
q38 0 64.5 -26.5t26.5 -64.5q0 -37 -26.5 -64t-64.5 -27q-37 0 -64 27z" />
    <glyph glyph-name="uni0919094D0930" horiz-adv-x="797" 
d="M553.5 68.5q-33.5 -43.5 -96.5 -63.5l97 -78l-69 -83l-157 120l-147 -123l-79 80l109 89q-103 33 -178 108l57 89q115 -104 244 -104q57 0 85 17.5t28 41.5q0 21 -15 44q-65 -15 -128 -15q-110 0 -166.5 44t-56.5 111q0 61 43.5 102.5t120.5 41.5h126v66h-391v113h812
v-113h-282v-180h-244q-45 0 -45 -34q0 -37 81 -37q44 0 97.5 7t95.5 19q38 -25 65 -69t27 -91q0 -59 -33.5 -102.5zM766.5 393.5q26.5 -26.5 26.5 -64.5q0 -37 -26.5 -64t-64.5 -27q-37 0 -64 27t-27 64q0 38 27 64.5t64 26.5q38 0 64.5 -26.5z" />
    <glyph glyph-name="uni091A094D091A" horiz-adv-x="1044" 
d="M1044 556h-94v-556h-140v145q-87 -67 -181 -67q-53 0 -95 17.5t-68 49.5q-87 -67 -182 -67q-60 0 -105 22.5t-69 61.5t-24 87q0 60 42 107h-111v113h702v-105h-4q-69 -10 -107.5 -42t-38.5 -73q0 -27 16 -41.5t43 -14.5q39 0 87 23.5t95 71.5v268h-830v113h1064v-113z
M352.5 208q37.5 15 76.5 47q1 55 41 101h-95q-47 0 -80.5 -15.5t-51 -40t-17.5 -51.5t15.5 -41.5t41.5 -14.5q32 0 69.5 15z" />
    <glyph glyph-name="uni091A094D091B" horiz-adv-x="1223" 
d="M1036 556v-90q47 -23 74.5 -67.5t27.5 -106.5q0 -57 -30 -115q92 -63 92 -152q0 -107 -75 -219l-133 72q41 47 62.5 83t21.5 72q0 27 -33 55q-62 -63 -147 -101t-171 -38q-103 0 -165 50.5t-62 136.5q0 18 5 38q-103 -96 -216 -96q-61 0 -106.5 22.5t-69.5 61.5t-24 87
q0 59 41 107h-111v113h360v-105h-4q-69 -10 -107.5 -42t-38.5 -73q0 -27 16 -41.5t43 -14.5q37 0 82.5 21t89.5 65q-31 36 -31 76t21.5 73t62 52.5t97.5 19.5q58 0 95 -16l-14 -112q-32 14 -66 14q-26 0 -41 -12.5t-15 -34.5q0 -25 31 -50q48 23 98 23q38 0 62 -11l-9 -109
q-16 6 -39 6q-34 0 -53 -20.5t-19 -50.5q0 -31 22 -47t56 -16q59 0 116 26t98 68q-74 43 -115.5 85.5t-41.5 102.5t32.5 96.5t90.5 44.5v69h-916v113h1243v-113h-187zM932.5 286.5q19.5 -19.5 55.5 -39.5q10 30 10 55q0 35 -14 54t-34 19q-15 0 -26 -12t-11 -33
q0 -24 19.5 -43.5z" />
    <glyph glyph-name="uni091A094D0930" horiz-adv-x="702" 
d="M702 556h-94v-556h-140l-1 145l-278 -256l-94 103l118 96q-59 18 -92.5 61.5t-33.5 99.5q0 59 41 107h-111v113h360v-105h-4q-69 -10 -107.5 -42t-38.5 -73q0 -27 16 -41.5t43 -14.5q39 0 87 23.5t95 71.5v268h-488v113h722v-113z" />
    <glyph glyph-name="uni091B094D0930" horiz-adv-x="825" 
d="M638 556v-90q47 -23 74.5 -67.5t27.5 -106.5q0 -57 -30 -115q92 -63 92 -152q0 -107 -75 -219l-133 72q41 47 62.5 83t21.5 72q0 27 -33 55q-38 -39 -86.5 -69t-102.5 -48l106 -86l-69 -83l-157 120l-147 -123l-79 80l108 88q-56 21 -87 65t-31 104q0 49 27 90
q-98 58 -98 129q0 40 21.5 73t62 52.5t97.5 19.5q58 0 95 -16l-14 -112q-31 14 -66 14q-26 0 -41 -12.5t-15 -34.5q0 -25 31 -50q48 23 98 23q38 0 62 -11l-9 -109q-17 6 -39 6q-34 0 -53 -20.5t-19 -50.5q0 -31 22 -47t56 -16q59 0 116 26t98 68q-74 43 -115.5 85.5
t-41.5 102.5t32.5 96.5t90.5 44.5v69h-518v113h845v-113h-187zM534.5 286.5q19.5 -19.5 55.5 -39.5q10 30 10 55q0 35 -14 54t-34 19q-15 0 -26 -12t-11 -33q0 -24 19.5 -43.5z" />
    <glyph glyph-name="uni091B094D0935" horiz-adv-x="818" 
d="M638 556v-64q42 -20 66 -57t24 -88q0 -53 -36 -105q52 -28 81.5 -61t29.5 -81q0 -89 -55 -182l-129 69q30 36 45.5 65t15.5 55q0 19 -13 34.5t-39 31.5q-13 -12 -33 -25v-477h-140v89q-59 -42 -115 -42q-52 0 -91 21.5t-60 58t-21 80.5q0 45 21 82.5t58.5 59.5t86.5 22
q70 0 121 -41v83q-66 -19 -128 -19q-104 0 -165.5 41.5t-61.5 114.5q0 36 20 65q-46 26 -68.5 54t-22.5 60q0 34 21 63t62 46t98 17q58 0 95 -16l-14 -105q-30 15 -67 15q-26 0 -40.5 -9.5t-14.5 -26.5q0 -18 24 -38q49 23 105 23q38 0 62 -11l-9 -101q-17 6 -39 6
q-34 0 -53 -15t-19 -37q0 -20 22 -30t56 -10q53 0 103.5 16.5t90.5 44.5q-60 31 -94.5 67t-34.5 88q0 53 30 85.5t85 40.5v43h-518v113h838v-113h-180zM531.5 331.5q16.5 -17.5 46.5 -33.5q18 31 18 59q0 25 -12 38.5t-32 13.5q-16 0 -26.5 -10t-10.5 -29q0 -21 16.5 -38.5z
M405.5 -164q26.5 17 49.5 45v4q-21 25 -46.5 40t-50.5 15q-28 0 -47.5 -17.5t-19.5 -44.5q0 -25 17.5 -42t45.5 -17q25 0 51.5 17z" />
    <glyph glyph-name="uni091C094D091E094D" horiz-adv-x="561" 
d="M561 556h-581v113h581v-113zM197.5 382q-8.5 -11 -8.5 -28q0 -20 16 -30.5t46 -10.5q37 0 84.5 9t84.5 24q37 -26 64 -72t27 -95q0 -79 -55 -133t-142 -67l96 -142l-125 -66l-96 210q-63 12 -102 40t-39 63q0 37 36.5 61.5t98.5 25.5l56 -82q5 -1 14 -1q51 0 84.5 24.5
t33.5 59.5q0 21 -13 44q-54 -17 -105 -17q-67 0 -113 21.5t-68.5 57t-22.5 79.5q0 63 39.5 106t108.5 43h453v-113h-432q-12 0 -20.5 -11z" />
    <glyph glyph-name="uni091C094D091C" horiz-adv-x="1064" 
d="M1064 556h-94v-556h-140v346h-127q73 -66 73 -142q0 -46 -22.5 -81.5t-60.5 -55t-81 -19.5q-114 0 -188 76q-42 -28 -95 -28q-124 0 -197 83t-116 237l110 32q36 -119 83 -179t89 -60q53 0 53 57q0 54 -71 116l33 77h517v97h-850v113h1084v-113zM636 220q0 30 -19 61
t-55 65h-106q35 -47 35 -97q0 -15 -1 -22q23 -33 47 -49.5t45 -16.5q54 0 54 59z" />
    <glyph glyph-name="uni091C094D091C094D" horiz-adv-x="851" 
d="M851 556h-871v113h871v-113zM994 300h-281q71 -68 71 -140q0 -46 -23 -82t-60.5 -55.5t-80.5 -19.5q-114 0 -190 79q-41 -29 -97 -29q-123 0 -195 82.5t-114 234.5l110 32q36 -119 82 -177.5t87 -58.5q54 0 54 59q0 27 -17 55.5t-47 55.5l34 77h667v-113zM630 131
q14 15 14 45t-18 60t-53 64h-106q30 -45 30 -92l-1 -22q23 -35 47.5 -52.5t45.5 -17.5q27 0 41 15z" />
    <glyph glyph-name="uni091C094D091E" horiz-adv-x="770" 
d="M770 556h-94v-556h-140v369h-206q123 -92 123 -189q0 -65 -42 -110t-109 -57l97 -143l-125 -66l-96 210q-63 12 -102 40t-39 63q0 37 36.5 61.5t98.5 25.5l56 -83h10q32 0 53.5 21.5t21.5 52.5q0 50 -48.5 99t-142.5 110l33 78h381v74h-556v113h790v-113z" />
    <glyph glyph-name="uni091C094D091E094D.1" horiz-adv-x="484" 
d="M485 556h-505v113h505v-113zM578 369h-247q122 -91 122 -191q0 -63 -41 -107.5t-108 -57.5l97 -143l-125 -66l-95 210q-63 11 -102.5 39.5t-39.5 63.5q0 37 36.5 61.5t98.5 25.5l56 -83h9q32 0 53 21t21 52q0 50 -48.5 100.5t-142.5 110.5l34 77h422v-113z" />
    <glyph glyph-name="uni091C094D091E094D0930" horiz-adv-x="954" 
d="M954 556h-94v-556h-140v85l-121 -101l-90 107l211 139v163h-502q-12 0 -20.5 -11t-8.5 -28q0 -20 16 -30.5t46 -10.5q37 0 84.5 9t84.5 24q37 -26 64 -72t27 -95q0 -79 -55 -133t-142 -67l96 -142l-125 -66l-96 210q-63 12 -102 40t-39 63q0 37 36.5 61.5t98.5 25.5
l56 -82q5 -1 14 -1q51 0 84.5 24.5t33.5 59.5q0 21 -13 44q-54 -17 -105 -17q-67 0 -113 21.5t-68.5 57t-22.5 79.5q0 63 39.5 106t108.5 43h523v50h-740v113h974v-113z" />
    <glyph glyph-name="uni091C094D0930" horiz-adv-x="791" 
d="M791 556h-94v-556h-140v116l-294 -214l-82 114l376 245v115h-132q33 -40 33 -84q0 -49 -44.5 -80t-106.5 -31q-104 0 -178 67t-109 185l105 45q32 -94 74.5 -139t85.5 -45q33 0 33 31q0 20 -17 41t-49 46l33 77h272v67h-577v113h811v-113z" />
    <glyph glyph-name="uni091D094D0930" horiz-adv-x="972" 
d="M972 556h-94v-556h-140v67l-124 -103l-90 107l214 134v24q-37 -22 -83.5 -35t-97.5 -13q-23 0 -46 3v-5q0 -79 -54.5 -133t-141.5 -67l96 -142l-125 -66l-97 210q-63 12 -102 40t-39 63q0 37 36.5 61.5t99.5 25.5l55 -82q5 -1 15 -1q51 0 84 24t33 60q0 24 -14 44
q-53 -17 -104 -17q-67 0 -112.5 21.5t-68 57t-22.5 79.5q0 64 39.5 106.5t108.5 42.5h102v50h-320v113h992v-113zM738 556h-299v-163h-221q-12 0 -20 -11t-8 -28q0 -20 15.5 -30.5t45.5 -10.5q37 0 85 9t85 24q25 -18 42 -39q48 -12 94 -12q87 0 181 62v199z" />
    <glyph glyph-name="uni091E094D091A" horiz-adv-x="818" 
d="M817 556h-94v-572h-140v77q-48 -66 -111 -109.5t-136 -43.5q-59 0 -97 30t-38 83q0 19 6 38l-112 -32l-27 99l359 98l26 -97q-68 -19 -94 -38.5t-26 -43.5q0 -14 8.5 -22.5t24.5 -8.5q25 0 63 27t79 76t75 112v99q-36 -12 -72 -12q-8 0 -26 2q-24 -40 -74 -64.5
t-111 -24.5q-77 0 -147 47t-129 143l83 54q50 -71 94.5 -104.5t91.5 -33.5q36 0 56.5 12t20.5 30t-15.5 30t-41.5 12q-17 0 -30 -4t-31 -13l-61 86q31 18 60.5 27.5t65.5 9.5q62 0 112 -26.5t66 -75.5q6 -1 16 -1q38 0 72 13v121h-603v113h837v-113z" />
    <glyph glyph-name="uni091E094D091C" horiz-adv-x="818" 
d="M817 556h-94v-572h-140v170l-174 -45q20 -14 31.5 -33t11.5 -40q0 -52 -50.5 -84t-125.5 -32q-78 0 -147.5 38.5t-121.5 107.5l73 63q83 -104 179 -104q28 0 45 9.5t17 24.5q0 32 -64 47l13 75l313 78v69q-36 -12 -72 -12q-8 0 -26 2q-24 -40 -74 -64.5t-111 -24.5
q-77 0 -147 47t-129 143l83 54q50 -71 94.5 -104.5t91.5 -33.5q36 0 56.5 12t20.5 30t-15.5 30t-41.5 12q-17 0 -30 -4t-31 -13l-61 86q31 18 60.5 27.5t65.5 9.5q62 0 112 -26.5t66 -75.5q6 -1 16 -1q38 0 72 13v121h-609v113h843v-113z" />
    <glyph glyph-name="uni091E094D0930" horiz-adv-x="824" 
d="M824 556h-94v-556h-140v89l-264 -187l-81 115l345 219v35q-32 -10 -64 -10q-14 0 -32 3q-23 -52 -75.5 -82.5t-122.5 -30.5q-82 0 -153 53t-141 166l83 55q54 -84 100.5 -122t99.5 -38q39 0 61 19t22 46q0 30 -16 48.5t-47 18.5q-19 0 -32.5 -6.5t-32.5 -20.5l-76 85
q34 27 70 42t81 15q66 0 119 -35t69 -99q16 -2 23 -2q32 0 64 10v170h-610v113h844v-113z" />
    <glyph glyph-name="uni091F094D091F" horiz-adv-x="620" 
d="M268 363.5q-66 -27.5 -66 -75.5q0 -41 38.5 -62.5t95.5 -21.5q56 0 105 16.5t97 46.5l51 -101q-58 -37 -114 -54v-172q-141 -9 -207 -36.5t-66 -75.5q0 -41 38.5 -62.5t95.5 -21.5q56 0 105 16.5t97 46.5l51 -101q-61 -39 -123 -57t-137 -18q-76 0 -136 24t-94 68.5
t-34 104.5q0 87 66.5 140t204.5 74v49h-7q-76 0 -136 24t-94 68.5t-34 104.5q0 87 66.5 140t204.5 74v54h-356v113h640v-113h-145v-156q-141 -9 -207 -36.5z" />
    <glyph glyph-name="uni091F094D0920" horiz-adv-x="620" 
d="M268 363.5q-66 -27.5 -66 -75.5q0 -41 38.5 -62.5t95.5 -21.5q56 0 105 16.5t97 46.5l51 -101q-56 -37 -116 -55q8 -21 8 -42q0 -24 -6 -47q129 -84 129 -184q0 -59 -37 -106t-100 -74t-138 -27t-135 24t-94.5 68.5t-34.5 104.5q0 88 68 141.5t206 74.5q2 16 2 24
q0 13 -3 23h-9q-76 0 -136 24t-94 68.5t-34 104.5q0 87 66.5 140t204.5 74v54h-356v113h640v-113h-145v-156q-141 -9 -207 -36.5zM425 -229.5q41 26.5 41 67.5q0 54 -66 95q-198 -23 -198 -105q0 -40 37.5 -62t91.5 -22q53 0 94 26.5z" />
    <glyph glyph-name="uni091F094D092F" horiz-adv-x="1195" 
d="M1195 556h-94v-556h-140v61q-59 -34 -130 -34q-93 0 -158.5 56t-91.5 157q74 23 109.5 42t35.5 44q0 32 -52 45t-122 13q-350 0 -350 -148q0 -50 38.5 -76.5t95.5 -26.5q81 0 163 41l48 -104q-51 -26 -103.5 -38t-114.5 -12q-76 0 -136 26t-94 75t-34 115q0 216 331 253
v67h-416v113h1215v-113zM961 556h-426v-59h15q118 0 187.5 -23.5t97 -58t27.5 -73.5v-1q0 -97 -120 -160q33 -40 89 -40q33 0 67 13t63 36v366z" />
    <glyph glyph-name="uni091F094D0930" horiz-adv-x="620" 
d="M268 325.5q-66 -32.5 -66 -89.5q0 -50 38 -76.5t95 -26.5q56 0 105 16.5t98 47.5l51 -102q-81 -52 -170 -68l140 -113l-69 -83l-157 120l-147 -123l-79 80l146 119q-86 18 -137 72.5t-51 136.5q0 95 66.5 153t204.5 80v87h-356v113h640v-113h-145v-188
q-141 -10 -207 -42.5z" />
    <glyph glyph-name="uni091F094D0935" horiz-adv-x="620" 
d="M268 363.5q-66 -27.5 -66 -75.5q0 -41 38.5 -62.5t94.5 -21.5t105 16.5t98 47.5l51 -102q-40 -26 -79 -42v-453h-140v88q-57 -43 -116 -43q-52 0 -91 21.5t-60 58t-21 80.5q0 45 21 82.5t58.5 60t86.5 22.5q37 0 68.5 -12t53.5 -30v93q-13 -1 -41 -1q-76 0 -136 24
t-94 68.5t-34 104.5q0 87 66.5 140t204.5 74v54h-356v113h640v-113h-145v-156q-141 -9 -207 -36.5zM320.5 -165.5q26.5 17.5 49.5 46.5v1q-21 26 -46.5 41.5t-51.5 15.5q-28 0 -47.5 -18t-19.5 -45q0 -25 17.5 -42t45.5 -17q26 0 52.5 17.5z" />
    <glyph glyph-name="uni0920094D0920" horiz-adv-x="624" 
d="M624 556h-147q4 -12 4 -28q0 -23 -6 -46q129 -84 129 -185q0 -58 -36.5 -105t-97.5 -74q11 -24 11 -49q0 -24 -6 -47q129 -84 129 -184q0 -59 -37 -106t-100 -74t-138 -27t-135 24t-94.5 68.5t-34.5 104.5q0 88 68 141.5t206 74.5q2 16 2 24t-2 22h-10q-75 0 -135 24
t-94.5 68.5t-34.5 104.5q0 176 274 216q2 16 2 24q0 11 -4 29h-357v113h644v-113zM239.5 225.5q37.5 -21.5 91.5 -21.5q53 0 94 26.5t41 66.5q0 31 -18.5 54t-47.5 41q-198 -23 -198 -105q0 -40 37.5 -61.5zM425 -229.5q41 26.5 41 67.5q0 54 -66 95q-198 -23 -198 -105
q0 -40 37.5 -62t91.5 -22q53 0 94 26.5z" />
    <glyph glyph-name="uni0920094D092F" horiz-adv-x="1277" 
d="M1277 556h-94v-556h-140v61q-59 -34 -130 -34q-93 0 -158.5 56t-91.5 157q74 23 109.5 42t35.5 44t-78 36t-175 11q49 -61 49 -128q0 -65 -37 -117t-100 -81.5t-138 -29.5t-135 26.5t-94.5 76t-34.5 115.5q0 194 271 237q7 25 7 44t-8 40h-355v113h1297v-113zM1043 556
h-568q7 -17 7 -39q0 -16 -3 -33q24 2 71 2q148 0 236.5 -22t123.5 -54t35 -68v-1q0 -97 -120 -160q32 -40 88 -40q33 0 67 13t63 36v366zM396.5 145q31.5 15 50.5 41t19 59q0 68 -66 117q-198 -26 -198 -127q0 -51 37.5 -78t91.5 -27q34 0 65.5 15z" />
    <glyph glyph-name="uni0920094D0930" horiz-adv-x="668" 
d="M668 556h-193q7 -17 7 -39q0 -34 -12 -66q58 -41 96 -93t38 -113q0 -78 -52.5 -137t-137.5 -80l145 -117l-69 -83l-157 120l-147 -123l-79 80l146 120q-85 18 -136.5 73.5t-51.5 136.5q0 194 271 237q7 25 7 44t-8 40h-355v113h688v-113zM396.5 145q31.5 15 50.5 41
t19 59q0 68 -66 117q-198 -26 -198 -127q0 -51 37.5 -78t91.5 -27q34 0 65.5 15z" />
    <glyph glyph-name="uni0920094D0072" horiz-adv-x="668" 
d="M0 0zM668 556h-193q7 -17 7 -39q0 -34 -12 -66q58 -41 96 -93t38 -113q0 -78 -52.5 -137t-137.5 -80l145 -117l-69 -83l-157 120l-147 -123l-79 80l146 120q-85 18 -136.5 73.5t-51.5 136.5q0 194 271 237q7 25 7 44t-8 40h-355v113h688v-113zM396.5 145q31.5 15 50.5 41
t19 59q0 68 -66 117q-198 -26 -198 -127q0 -51 37.5 -78t91.5 -27q34 0 65.5 15zM617 -398q-121 86 -234 113v-54q-33 -12 -63 -12q-46 0 -75 25t-29 60q0 42 32 63t84 21q79 0 172.5 -48t160.5 -104z" />
    <glyph glyph-name="uni0921094D0921" horiz-adv-x="642" 
d="M259.5 372.5q-10.5 -8.5 -10.5 -23.5q0 -33 78 -33q45 0 98.5 6.5t93.5 19.5q38 -25 65 -68.5t27 -89.5q0 -82 -62.5 -129.5t-176.5 -47.5q-53 0 -96 10q-27 -6 -27 -31q0 -17 18.5 -25t58.5 -8q45 0 99 6.5t94 19.5q38 -25 65 -68t27 -90q0 -81 -62.5 -129t-176.5 -48
q-93 0 -173 33t-141 93l58 89q51 -47 113 -74.5t132 -27.5q56 0 83 16.5t27 39.5q0 21 -14 41q-65 -15 -129 -15q-108 0 -163.5 42.5t-55.5 107.5q0 47 27 83q-43 26 -78 60l58 90q51 -47 113 -74.5t132 -27.5q57 0 83.5 16.5t26.5 39.5q0 21 -14 40q-65 -15 -128 -15
q-109 0 -164.5 43t-55.5 108q0 61 42.5 101.5t118.5 40.5h126v62h-416v113h662v-113h-107v-175h-244q-21 0 -31.5 -8.5z" />
    <glyph glyph-name="uni0921094D0922" horiz-adv-x="642" 
d="M259.5 372.5q-10.5 -8.5 -10.5 -23.5q0 -33 78 -33q45 0 98.5 6.5t93.5 19.5q38 -25 65 -68.5t27 -89.5q0 -82 -62.5 -129.5t-176.5 -47.5q-43 0 -88 8q-30 -29 -30 -83q0 -50 20.5 -89.5t53.5 -62.5q-16 27 -16 61q0 53 44 87t105 34q45 0 82.5 -19.5t60 -53.5t22.5 -77
q0 -55 -27.5 -93t-72.5 -57.5t-97 -19.5q-81 0 -153.5 38t-117 106t-44.5 153q0 74 34 126q-47 26 -90 67l58 90q51 -47 113 -74.5t132 -27.5q57 0 83.5 16.5t26.5 39.5q0 21 -14 40q-65 -15 -128 -15q-109 0 -164.5 43t-55.5 108q0 61 42.5 101.5t118.5 40.5h126v62h-416
v113h662v-113h-107v-175h-244q-21 0 -31.5 -8.5zM439 -156.5q-12 -12.5 -12 -31.5q0 -30 17 -56q67 11 67 60q0 18 -12 29t-30 11t-30 -12.5z" />
    <glyph glyph-name="uni0921094D092F" horiz-adv-x="1264" 
d="M1264 556h-94v-556h-140v61q-59 -34 -130 -34q-93 0 -158.5 56t-91.5 157q75 25 110 46t35 49q0 23 -17.5 32t-53.5 9h-458q-45 0 -45 -34q0 -37 81 -37q44 0 97.5 7t95.5 19q38 -25 65 -69t27 -91q0 -83 -63.5 -132t-178.5 -49q-92 0 -171.5 33.5t-140.5 94.5l57 89
q115 -104 244 -104q57 0 85 17.5t28 41.5q0 21 -15 44q-65 -15 -128 -15q-110 0 -166.5 44t-56.5 111q0 61 43.5 102.5t120.5 41.5h126v66h-391v113h1284v-113zM1030 556h-520v-66h231q93 0 141.5 -34.5t48.5 -110.5q0 -54 -30.5 -94t-88.5 -70q32 -40 88 -40q33 0 67 13
t63 36v366z" />
    <glyph glyph-name="uni0921094D0930" horiz-adv-x="616" 
d="M221 342q0 -37 81 -37q44 0 97.5 7t95.5 19q38 -25 65 -69t27 -91q0 -59 -33.5 -102.5t-96.5 -63.5l97 -78l-69 -83l-157 120l-147 -123l-79 80l109 89q-103 33 -178 108l57 89q115 -104 244 -104q57 0 85 17.5t28 41.5q0 21 -15 44q-65 -15 -128 -15q-110 0 -166.5 44
t-56.5 111q0 61 43.5 102.5t120.5 41.5h126v66h-391v113h636v-113h-106v-180h-244q-45 0 -45 -34z" />
    <glyph glyph-name="uni0921094D0072" horiz-adv-x="591" 
d="M0 0zM221 342q0 -37 81 -37q44 0 97.5 7t95.5 19q38 -25 65 -69t27 -91q0 -59 -33.5 -102.5t-96.5 -63.5l97 -78l-69 -83l-157 120l-147 -123l-79 80l109 89q-103 33 -178 108l57 89q115 -104 244 -104q57 0 85 17.5t28 41.5q0 21 -15 44q-65 -15 -128 -15
q-110 0 -166.5 44t-56.5 111q0 61 43.5 102.5t120.5 41.5h126v66h-391v113h636v-113h-106v-180h-244q-45 0 -45 -34zM599 -447q-121 86 -234 113v-54q-33 -12 -63 -12q-46 0 -75 25t-29 60q0 42 32 63t84 21q79 0 172.5 -48t160.5 -104z" />
    <glyph glyph-name="uni0922094D0922" horiz-adv-x="615" 
d="M220 365q-30 -28 -30 -76t22 -86t56 -60q-18 29 -18 66q0 53 44 86.5t105 33.5q45 0 82.5 -19.5t60 -53t22.5 -75.5q0 -55 -27.5 -93.5t-72.5 -58t-97 -19.5q-49 0 -97 14q-78 -17 -78 -101q0 -48 21 -85.5t54 -60.5q-17 31 -17 64q0 53 44 87t105 34q45 0 82.5 -19.5
t60 -53.5t22.5 -77q0 -55 -27.5 -93t-72.5 -57.5t-97 -19.5q-81 0 -153.5 37t-117 103t-44.5 149q0 55 20.5 98.5t61.5 71.5q-40 39 -62 88.5t-22 106.5q0 94 60 152t177 58h59v50h-366v113h636v-113h-131v-163h-174q-61 0 -91 -28zM376.5 211q-11.5 -12 -11.5 -31
q0 -31 17 -57q67 11 67 60q0 18 -12 29t-30 11q-19 0 -30.5 -12zM377 -156.5q-12 -12.5 -12 -31.5q0 -31 17 -57q34 6 50.5 22t16.5 38q0 18 -12 29.5t-30 11.5t-30 -12.5z" />
    <glyph glyph-name="uni0922094D092F" horiz-adv-x="1216" 
d="M1216 556h-94v-556h-140v61q-59 -34 -130 -34q-93 0 -158.5 56t-91.5 157q75 25 110 46t35 49q0 23 -17.5 32t-53.5 9h-365q-61 0 -91 -30t-30 -81q0 -53 21 -94.5t55 -66.5q-16 32 -16 64q0 38 20.5 68.5t54.5 47t74 16.5q45 0 82.5 -20t60 -55.5t22.5 -80.5
q0 -56 -29 -96.5t-74.5 -60.5t-93.5 -20q-81 0 -154 39t-118 109t-45 157q0 97 60 157.5t177 60.5h59v66h-366v113h1236v-113zM982 556h-497v-66h208q93 0 141.5 -34.5t48.5 -110.5q0 -54 -30.5 -94t-88.5 -70q32 -40 88 -40q33 0 67 13t63 36v366zM376.5 180
q-11.5 -14 -11.5 -37q0 -36 17 -62q32 7 49.5 24.5t17.5 41.5q0 21 -12 34t-30 13q-19 0 -30.5 -14z" />
    <glyph glyph-name="uni0922094D0930" horiz-adv-x="616" 
d="M220 342q-30 -30 -30 -81q0 -53 21 -94.5t55 -66.5q-16 32 -16 64q0 38 20.5 68.5t54.5 47t74 16.5q45 0 82.5 -20t60 -56t22.5 -81q0 -53 -26.5 -92t-70.5 -61l98 -79l-69 -83l-157 120l-147 -123l-79 80l115 94q-79 37 -128.5 109t-49.5 164q0 97 60 157.5t177 60.5h59
v70h-366v113h636v-113h-131v-184h-174q-61 0 -91 -30zM376.5 176q-11.5 -14 -11.5 -37q0 -36 17 -62q32 7 49.5 24.5t17.5 41.5q0 21 -12 34t-30 13q-19 0 -30.5 -14z" />
    <glyph glyph-name="uni0922094D0072" horiz-adv-x="616" 
d="M0 0zM220 342q-30 -30 -30 -81q0 -53 21 -94.5t55 -66.5q-16 32 -16 64q0 38 20.5 68.5t54.5 47t74 16.5q45 0 82.5 -20t60 -56t22.5 -81q0 -53 -26.5 -92t-70.5 -61l98 -79l-69 -83l-157 120l-147 -123l-79 80l115 94q-79 37 -128.5 109t-49.5 164q0 97 60 157.5
t177 60.5h59v70h-366v113h636v-113h-131v-184h-174q-61 0 -91 -30zM376.5 176q-11.5 -14 -11.5 -37q0 -36 17 -62q32 7 49.5 24.5t17.5 41.5q0 21 -12 34t-30 13q-19 0 -30.5 -14zM624 -403q-121 86 -234 113v-54q-33 -12 -63 -12q-46 0 -75 25t-29 60q0 42 32 63t84 21
q79 0 172.5 -48t160.5 -104z" />
    <glyph glyph-name="uni0923094D0930" horiz-adv-x="780" 
d="M796 556h-94v-556h-140v99l-160 -132l-90 107l250 167v315h-95v-225q0 -87 -52.5 -134t-145.5 -47t-146 47t-53 134v225h-90v113h816v-113zM327 556h-117v-225q0 -67 59 -67q28 0 43 16.5t15 50.5v225z" />
    <glyph glyph-name="uni0924094D0924" horiz-adv-x="722" 
d="M722 556h-94v-556h-140v326h-98q-55 0 -87 -28.5t-32 -82.5q0 -31 14 -59.5t34.5 -52t60.5 -63.5l-86 -76q-68 57 -116 129t-48 137q0 52 21 96h-111v113h448v117h-508v113h742v-113z" />
    <glyph glyph-name="uni0924094D0924094D" horiz-adv-x="415" 
d="M415 556h-435v113h435v-113zM551 439v-113h-161q-55 0 -87 -28.5t-32 -82.5q0 -31 13.5 -58.5t33.5 -49.5t62 -65l-86 -75q-68 56 -116 127.5t-48 135.5q0 52 21 96h-111v113h511z" />
    <glyph glyph-name="uni0924094D092F" horiz-adv-x="985" 
d="M985 556h-94v-556h-140v156q-31 -24 -71.5 -37.5t-83.5 -13.5q-91 0 -157.5 55t-93.5 155q-40 42 -86 42q-31 0 -54 -22.5t-23 -61.5q0 -62 36 -116t114 -125l-80 -81q-94 77 -152 164.5t-58 170.5q0 87 55 136.5t145 49.5q59 0 106 -26t77 -64q36 17 52 36t16 42
q0 52 -55 96h-458v113h1005v-113zM751 556h-161q40 -42 40 -98q0 -51 -35 -97.5t-104 -78.5q35 -63 105 -63q40 0 81 19t74 53v265z" />
    <glyph glyph-name="uni0924094D0930" horiz-adv-x="622" 
d="M622 556h-94v-556h-140v179l-227 -173l-85 111l294 195q-41 30 -74 42.5t-67 12.5q-44 0 -138 -45l-66 120q103 39 204 39q40 0 77.5 -12t81.5 -41v128h-408v113h642v-113z" />
    <glyph glyph-name="uni0924094D0072" horiz-adv-x="361" 
d="M361 556h-381v113h381v-113zM341 455.5q55 -25.5 136 -93.5l-1 -115l-315 -241l-86 111l295 195q-42 30 -74.5 42.5t-66.5 12.5q-44 0 -138 -45l-66 120q103 39 204 39q57 0 112 -25.5z" />
    <glyph glyph-name="uni0925094D0930" horiz-adv-x="722" 
d="M722 556h-94v-556h-140v156l-2 -2l-261 -238l-94 102l120 98q-69 21 -116.5 77.5t-68.5 143.5q60 18 99 42q-60 27 -92 70.5t-32 98.5q0 64 46 102.5t118 38.5q51 0 95 -20.5t70.5 -62.5t26.5 -102q0 -68 -44 -126.5t-128 -97.5q29 -61 106 -61q40 0 81.5 19t75.5 54v264
h-63v113h297v-113zM191.5 565q-10.5 -10 -10.5 -30q0 -22 16 -42.5t47 -33.5q13 27 13 60q0 25 -10.5 40.5t-28.5 15.5q-16 0 -26.5 -10z" />
    <glyph glyph-name="uni0926094D0917" horiz-adv-x="626" 
d="M229.5 347.5q-26.5 -24.5 -26.5 -64.5q0 -38 19 -65.5t49.5 -42t62.5 -14.5q15 0 23 1l-31 71q18 28 46 44t58 16q46 0 73.5 -28.5t27.5 -70.5q0 -46 -33 -84l98 -144l-126 -66l-68 157q-30 -9 -65 -9v-215q0 -58 -25.5 -88t-72.5 -30q-32 0 -59.5 17.5t-44 47.5
t-16.5 68q0 26 9 55h87v168q-67 28 -108.5 83t-41.5 129q0 93 56 148t168 55h53v70h-362v113h646v-113h-145v-184h-169q-56 0 -82.5 -24.5z" />
    <glyph glyph-name="uni0926094D0918" horiz-adv-x="782" 
d="M696 -179l-84 196q-34 -63 -88.5 -101t-117.5 -38q-43 0 -81 17t-63 47.5t-29 67.5q-24 -2 -36 -2q-75 0 -121.5 45t-46.5 119q0 44 24 83.5t66.5 64t93.5 24.5h11q12 68 67 107t154 39h53v66h-528v113h812v-113h-145v-180h-169q-56 0 -82.5 -19t-26.5 -50
q0 -46 39.5 -73t90.5 -27q19 0 39 3l-27 63q16 23 41 36t52 13q42 0 67.5 -26.5t25.5 -64.5q0 -42 -30 -75l176 -271zM184 128q22 -16 52 -16q12 0 18 1q13 25 34 50q-38 34 -54 76h-4q-28 0 -48 -18t-20 -49q0 -28 22 -44zM475.5 20.5q32.5 29.5 55.5 76.5q-21 -3 -44 -3
q-46 0 -90 12q-32 -27 -32 -65q0 -23 13.5 -36.5t33.5 -13.5q31 0 63.5 29.5z" />
    <glyph glyph-name="uni0926094D0926" horiz-adv-x="634" 
d="M526 -189l-68 157q-62 -20 -136 -20q-56 0 -107.5 21.5t-83.5 62.5t-32 96q0 44 24 78q-36 23 -57 56.5t-21 71.5q0 62 40.5 103.5t114.5 41.5h114v77h-351v113h671v-113h-181v-191h-220q-51 0 -51 -37q0 -40 65 -40q54 0 88 10l17 -112q-54 -13 -103 -13
q-13 -20 -13 -45q0 -35 25.5 -51t61.5 -16q44 0 87 15l-29 68q18 27 46 43t58 16q46 0 73.5 -28.5t27.5 -70.5q0 -46 -35 -81l100 -147z" />
    <glyph glyph-name="uni0926094D0927094D0930" horiz-adv-x="816" 
d="M730 -179l-49 113l-36 -194l-140 24l44 146q-53 -32 -108 -32q-58 0 -104.5 29.5t-62.5 76.5q-46 -7 -72 -7q-79 0 -127 42t-48 111q0 39 19.5 73t53.5 55q27 18 58 27t60 8l31 -97q-5 1 -14 1q-24 0 -44 -10q-15 -6 -23 -17t-8 -25q0 -30 30.5 -47.5t75.5 -17.5h10
q16 48 47 82q-68 60 -68 145q0 84 56 133.5t168 49.5h53v66h-552v113h836v-113h-145v-180h-169q-56 0 -82.5 -19t-26.5 -50q0 -46 39.5 -73t90.5 -27q20 0 39 3l-27 63q16 23 41 36t52 13q42 0 67.5 -26.5t25.5 -64.5q0 -42 -30 -75l176 -271zM510.5 20.5
q32.5 29.5 55.5 76.5q-21 -3 -45 -3q-47 0 -89 12q-32 -27 -32 -65q0 -23 13.5 -36.5t33.5 -13.5q31 0 63.5 29.5z" />
    <glyph glyph-name="uni0926094D0927094D0072092F" horiz-adv-x="1394" 
d="M1394 556h-94v-556h-140v61q-59 -34 -130 -34q-93 0 -158.5 56t-91.5 157q75 25 110 46t35 49q0 23 -17.5 32t-53.5 9h-352q-56 0 -82.5 -19t-26.5 -50q0 -46 39.5 -73t90.5 -27q20 0 39 3l-27 63q16 23 41 36t52 13q42 0 67.5 -26.5t25.5 -64.5q0 -42 -30 -75l176 -271
l-137 -64l-49 113l-36 -194l-140 24l44 146q-53 -32 -108 -32q-58 0 -104.5 29.5t-62.5 76.5q-46 -7 -72 -7q-79 0 -127 42t-48 111q0 39 19.5 73t53.5 55q27 18 58 27t60 8l31 -97q-5 1 -14 1q-24 0 -44 -10q-15 -6 -23 -17t-8 -25q0 -30 30.5 -47.5t75.5 -17.5h10
q16 48 47 82q-68 60 -68 145q0 84 56 133.5t168 49.5h53v66h-552v113h1414v-113zM1160 556h-489v-66h200q93 0 141.5 -34.5t48.5 -110.5q0 -54 -30.5 -94t-88.5 -70q32 -40 88 -40q33 0 67 13t63 36v366zM521 94q-47 0 -89 12q-32 -27 -32 -65q0 -23 13.5 -36.5t33.5 -13.5
q31 0 63.5 29.5t55.5 76.5q-21 -3 -45 -3z" />
    <glyph glyph-name="uni0926094D0928" horiz-adv-x="623" 
d="M229.5 348.5q-26.5 -23.5 -26.5 -62.5q0 -57 39.5 -87.5t91.5 -30.5q15 0 22 1l-30 71q18 28 46 44t58 16q46 0 73.5 -28.5t27.5 -70.5q0 -47 -35 -85l100 -150l-126 -66l-65 153l-199 -66l27 -84q-46 -35 -100 -35q-50 0 -82 29t-32 77q0 35 22 60.5t66 39.5l69 23
q-51 29 -81 77.5t-30 111.5q0 93 56 146.5t168 53.5h53v70h-362v113h646v-113h-145v-184h-169q-56 0 -82.5 -23.5z" />
    <glyph glyph-name="uni0926094D092C" 
d="M229.5 359.5q-26.5 -21.5 -26.5 -57.5q0 -52 39.5 -80.5t91.5 -28.5q11 0 31 2l-24 54q18 23 44 37t54 14q45 0 68.5 -26t23.5 -65q0 -43 -36 -76l134 -201l-117 -61l-33 73q-33 -56 -90 -93t-129 -37q-76 0 -123 43t-47 112q0 47 21 87t58 69q-48 28 -76 73.5t-28 103.5
q0 89 56 140.5t168 51.5h53v62h-362v113h655v-113h-154v-175h-169q-56 0 -82.5 -21.5zM360 82q-46 -5 -81 -26l95 -57q23 39 32 83q-9 1 -27 1q-11 0 -16 -1h-3zM241.5 -58q13.5 -14 34.5 -14q34 0 66 30l-102 61q-12 -20 -12 -42q0 -21 13.5 -35z" />
    <glyph glyph-name="uni0926094D092D" horiz-adv-x="939" 
d="M542.5 348.5q-26.5 -23.5 -26.5 -62.5q0 -57 39.5 -87.5t91.5 -30.5q15 0 22 1l-30 71q18 28 46 44t58 16q46 0 73.5 -28.5t27.5 -70.5q0 -47 -35 -85l100 -150l-126 -66l-68 160l-234 -125l33 -62q-31 -34 -65 -50.5t-66 -16.5q-46 0 -76 26t-30 68q0 22 10.5 42
t30.5 34l-17 34q-52 -16 -98 -16q-48 0 -88 19.5t-63.5 53t-23.5 74.5q0 38 27 72t68 54t80 20q45 0 79 -22.5t64 -78.5l81 -151l90 48q-63 28 -101 79.5t-38 123.5q0 93 56 146.5t168 53.5h53v70h-675v113h959v-113h-145v-184h-169q-56 0 -82.5 -23.5zM257 92l-31 59
q-18 34 -40 34q-13 0 -23.5 -9.5t-10.5 -23.5q0 -26 27.5 -43.5t63.5 -17.5q9 0 14 1z" />
    <glyph glyph-name="uni0926094D092E" horiz-adv-x="812" 
d="M812 556h-94v-643h-140v167h-184v-73q-39 -13 -76 -13q-41 0 -73.5 15.5t-50.5 40.5t-18 54q0 34 21.5 58.5t56.5 29.5v39h-55q-87 0 -130 38t-43 103t43 103t130 38h55v43h-274v113h832v-113zM578 556h-184v-156h-195q-35 0 -35 -28t35 -28h195v-151h184v363z" />
    </font>
</defs>
</svg>
